<svg width="56" height="56" viewBox="0 0 56 56" fill="none" xmlns="http://www.w3.org/2000/svg">
<rect width="56" height="56" rx="28" fill="url(#paint0_radial_6763_23384)"/>
<path d="M28.9997 21.3333C28.9997 21.068 28.8943 20.8137 28.7068 20.6261C28.5192 20.4386 28.2649 20.3333 27.9997 20.3333C27.7345 20.3333 27.4801 20.4386 27.2926 20.6261C27.105 20.8137 26.9997 21.068 26.9997 21.3333V26.9999H21.333C21.0678 26.9999 20.8134 27.1053 20.6259 27.2928C20.4384 27.4803 20.333 27.7347 20.333 27.9999C20.333 28.2651 20.4384 28.5195 20.6259 28.707C20.8134 28.8946 21.0678 28.9999 21.333 28.9999H26.9997V34.6666C26.9997 34.9318 27.105 35.1862 27.2926 35.3737C27.4801 35.5612 27.7345 35.6666 27.9997 35.6666C28.2649 35.6666 28.5192 35.5612 28.7068 35.3737C28.8943 35.1862 28.9997 34.9318 28.9997 34.6666V28.9999H34.6663C34.9316 28.9999 35.1859 28.8946 35.3734 28.707C35.561 28.5195 35.6663 28.2651 35.6663 27.9999C35.6663 27.7347 35.561 27.4803 35.3734 27.2928C35.1859 27.1053 34.9316 26.9999 34.6663 26.9999H28.9997V21.3333Z" fill="white"/>
<defs>
<radialGradient id="paint0_radial_6763_23384" cx="0" cy="0" r="1" gradientUnits="userSpaceOnUse" gradientTransform="translate(28 -1.11617e-06) rotate(90) scale(56 56.1445)">
<stop stop-color="#1E52C8"/>
<stop offset="0.503471" stop-color="#4B75D3"/>
<stop offset="1" stop-color="#7FD4D9"/>
</radialGradient>
</defs>
</svg>
