<svg width="40" height="40" viewBox="0 0 40 40" fill="none" xmlns="http://www.w3.org/2000/svg">
<g clip-path="url(#clip0_3_24)">
<rect width="40" height="40" fill="white"/>
<path d="M23.3143 9.84715C23.1674 10.4348 23.3143 12.7853 23.4612 14.989C23.6081 17.9272 23.0205 19.1025 21.4044 19.1025C19.7884 19.1025 19.0539 17.7803 19.0539 15.2828C19.0539 8.08423 15.3811 12.4915 14.9404 20.2777C14.6466 24.5381 13.7651 27.9171 12.8837 27.9171C12.1491 27.9171 11.8553 26.8887 12.296 25.5665C12.8837 24.0974 12.4429 23.5098 11.4146 23.8036C10.3862 24.2443 9.35784 25.8603 9.06402 27.4763C8.32947 32.1774 14.059 33.3527 18.907 29.68C22.5797 27.0356 23.0205 27.0356 24.3426 29.0923C25.371 30.5614 26.8401 31.0022 28.603 30.2676C30.5129 29.5331 30.9536 28.9454 29.7783 28.2109C28.7499 27.6232 27.8685 23.2159 27.5747 18.5148C27.2808 13.2261 26.3994 9.55333 25.371 9.1126C24.3426 8.81878 23.4612 9.1126 23.3143 9.84715ZM23.4612 22.4814C23.4612 25.1258 20.3761 27.9171 17.5848 27.7702C16.1157 27.7702 15.9688 27.4763 17.291 26.8887C18.1724 26.5949 19.0539 24.9789 19.0539 23.3629C19.0539 21.8938 20.0823 20.5716 21.2575 20.5716C22.4328 20.5716 23.4612 21.453 23.4612 22.4814Z" fill="black"/>
</g>
<defs>
<clipPath id="clip0_3_24">
<rect width="40" height="40" fill="white"/>
</clipPath>
</defs>
</svg>
