<svg width="49" height="48" viewBox="0 0 49 48" fill="none" xmlns="http://www.w3.org/2000/svg">
<rect x="1" y="0.5" width="47" height="47" rx="23.5" fill="url(#paint0_radial_344_55642)"/>
<rect x="1" y="0.5" width="47" height="47" rx="23.5" stroke="#E4484C"/>
<path fillRule="evenodd" clipRule="evenodd" d="M16.0043 13C15.452 13 15.0043 13.4477 15.0043 14V25.3306L15.0005 25.3367L15.0022 25.3398L15.0043 25.3378V31.5989C15.0043 33.2558 16.3474 34.5989 18.0043 34.5989H31.3563C33.0132 34.5989 34.3563 33.2558 34.3563 31.5989V24.0227C34.3563 23.0744 33.908 22.182 33.1472 21.6159L26.4712 16.6482C25.4083 15.8573 23.9524 15.8573 22.8894 16.6482L18.2983 20.0645L20.0941 17.1935C20.293 16.8755 20.3985 16.508 20.3985 16.1329V14C20.3985 13.4477 19.9508 13 19.3985 13H16.0043ZM24.5002 21.5581C24.2826 21.5581 24.0676 21.6055 23.8702 21.6969C23.6728 21.7883 23.4976 21.9216 23.3569 22.0875C23.2161 22.2534 23.1132 22.448 23.0552 22.6577C22.9972 22.8674 22.9855 23.0872 23.021 23.3019L23.7111 27.4434C23.7753 27.8292 24.1091 28.1119 24.5002 28.1119C24.8913 28.1119 25.225 27.8292 25.2893 27.4434L25.9794 23.3019C26.0149 23.0872 26.0032 22.8674 25.9452 22.6577C25.8872 22.448 25.7842 22.2534 25.6435 22.0875C25.5028 21.9216 25.3276 21.7883 25.1302 21.6969C24.9327 21.6055 24.7178 21.5581 24.5002 21.5581ZM24.5002 29.239C23.892 29.239 23.399 29.732 23.399 30.3402C23.399 30.9484 23.892 31.4414 24.5002 31.4414C25.1083 31.4414 25.6014 30.9484 25.6014 30.3402C25.6014 29.732 25.1083 29.239 24.5002 29.239Z" fill="white"/>
<defs>
<radialGradient id="paint0_radial_344_55642" cx="0" cy="0" r="1" gradientUnits="userSpaceOnUse" gradientTransform="translate(24.5 32.6667) rotate(90) scale(24)">
<stop stop-color="#E96D70"/>
<stop offset="1" stop-color="#B73A3D"/>
</radialGradient>
</defs>
</svg>
