<svg width="30" height="30" viewBox="0 0 30 30" fill="none" xmlns="http://www.w3.org/2000/svg">
<path d="M29.7161 8.89473L29.5029 28.6467C29.5004 28.8778 29.4062 29.1005 29.241 29.2656C29.0759 29.4308 28.8532 29.525 28.6221 29.5275L8.87014 29.7407C8.7555 29.7423 8.64216 29.7212 8.53664 29.6786C8.43111 29.6361 8.33545 29.573 8.25516 29.4929C8.17486 29.4129 8.11151 29.3174 8.06871 29.212C8.02592 29.1066 8.00453 28.9933 8.00577 28.8787C8.00701 28.764 8.03085 28.6503 8.07594 28.5439C8.12102 28.4376 8.18647 28.3407 8.26852 28.2589C8.35056 28.1771 8.4476 28.1119 8.55408 28.0671C8.66055 28.0223 8.77436 27.9988 8.88899 27.9979L26.4929 27.8081L0.247801 1.49378C0.0864661 1.33206 -0.00268525 1.11151 -6.79778e-05 0.880586C0.0025493 0.649657 0.0967213 0.427231 0.261761 0.262165L0.262696 0.261229C0.344607 0.179545 0.44146 0.114455 0.547726 0.0696689C0.653992 0.0248833 0.767589 0.00128166 0.88203 0.00021364C0.996472 -0.000854383 1.10952 0.0206292 1.21471 0.0634407C1.3199 0.106252 1.41518 0.169553 1.49511 0.249726L27.7824 26.6063L27.9733 8.91359C27.9742 8.79895 27.9977 8.68514 28.0425 8.57867C28.0873 8.47219 28.1525 8.37515 28.2343 8.29311C28.3161 8.21106 28.413 8.14561 28.5193 8.10053C28.6257 8.05544 28.7395 8.0316 28.8541 8.03036C28.9687 8.02912 29.082 8.05051 29.1874 8.0933C29.2928 8.1361 29.3883 8.19946 29.4684 8.27975C29.5484 8.36004 29.6115 8.4557 29.6541 8.56123C29.6966 8.66676 29.7177 8.78009 29.7161 8.89473Z" fill="white"/>
</svg>
