<svg width="30" height="30" viewBox="0 0 30 30" fill="none" xmlns="http://www.w3.org/2000/svg">
<path d="M8.89473 0.00019464L28.6467 0.213381C28.8778 0.215883 29.1005 0.310081 29.2656 0.475262C29.4308 0.640442 29.525 0.863075 29.5275 1.09418L29.7407 20.8462C29.7423 20.9608 29.7212 21.0741 29.6786 21.1797C29.6361 21.2852 29.573 21.3809 29.4929 21.4612C29.4129 21.5414 29.3174 21.6048 29.212 21.6476C29.1066 21.6904 28.9933 21.7118 28.8787 21.7105C28.764 21.7093 28.6503 21.6855 28.5439 21.6404C28.4376 21.5953 28.3407 21.5298 28.2589 21.4478C28.1771 21.3657 28.1119 21.2687 28.0671 21.1622C28.0223 21.0558 27.9988 20.9419 27.9979 20.8273L27.8081 3.22346L1.49378 29.4685C1.33206 29.6298 1.11151 29.719 0.880586 29.7164C0.649657 29.7138 0.427231 29.6196 0.262165 29.4545L0.261229 29.4536C0.179545 29.3717 0.114455 29.2748 0.0696689 29.1686C0.0248833 29.0623 0.00128166 28.9487 0.00021364 28.8343C-0.000854383 28.7198 0.0206292 28.6068 0.0634407 28.5016C0.106252 28.3964 0.169553 28.3011 0.249726 28.2212L26.6063 1.93394L8.91359 1.74304C8.79895 1.74212 8.68514 1.71859 8.57867 1.6738C8.47219 1.629 8.37515 1.56383 8.29311 1.482C8.21106 1.40018 8.14561 1.30332 8.10053 1.19697C8.05544 1.09061 8.0316 0.976852 8.03036 0.862216C8.02912 0.747579 8.05051 0.634315 8.0933 0.528908C8.1361 0.4235 8.19946 0.328027 8.27975 0.247951C8.36004 0.167874 8.4557 0.104765 8.56123 0.0622523C8.66676 0.01974 8.78009 -0.00135097 8.89473 0.00019464Z" fill="white"/>
</svg>
