<svg width="25" height="24" viewBox="0 0 25 24" fill="none" xmlns="http://www.w3.org/2000/svg">
<g id="icon:event-in-logo">
<path id="Vector" fillRule="evenodd" clipRule="evenodd" d="M3.20401 2C3.20401 1.44772 3.65172 1 4.20401 1H7.59822C8.15051 1 8.59822 1.44772 8.59822 2V4.13291C8.59822 4.50799 8.49274 4.87552 8.29383 5.19353L6.498 8.0645L11.0891 4.64822C12.1521 3.85727 13.608 3.85727 14.6709 4.64822L21.347 9.6159C22.1077 10.182 22.556 11.0744 22.556 12.0227V19.5989C22.556 21.2558 21.2129 22.5989 19.556 22.5989H6.204C4.54715 22.5989 3.20401 21.2558 3.20401 19.5989V13.3378L3.20194 13.3398L3.2002 13.3367L3.20401 13.3306V2ZM11.5619 12.2783L11.4299 12.5149C11.2859 12.7733 11.2139 12.9025 11.1019 12.9877C10.9895 13.0729 10.8499 13.1045 10.5703 13.1677L10.3159 13.2253C9.33197 13.4477 8.83998 13.5593 8.72278 13.9357C8.60599 14.3121 8.94118 14.7045 9.61196 15.4885L9.78556 15.6917C9.97566 15.9138 10.0716 16.0258 10.114 16.1637C10.1571 16.3013 10.1427 16.4501 10.114 16.7477L10.0873 17.0202C9.98629 18.0656 9.93576 18.5883 10.2423 18.8209C10.5483 19.0529 11.0091 18.8409 11.9303 18.4169L12.1687 18.3073C12.4303 18.1865 12.5611 18.1265 12.6999 18.1265C12.8387 18.1265 12.9695 18.1865 13.2311 18.3073L13.4715 18.4177C14.3912 18.8412 14.8516 19.0532 15.1578 18.8205C15.464 18.5883 15.4135 18.0656 15.3124 17.0202L15.2858 16.7473C15.257 16.4501 15.2426 16.3013 15.2854 16.1633C15.3281 16.0261 15.4232 15.9148 15.6125 15.6933L15.7878 15.4885C16.4586 14.7041 16.7938 14.3117 16.677 13.9357C16.5598 13.5594 16.0685 13.4482 15.0852 13.2255L14.8298 13.1677C14.5499 13.1045 14.4098 13.0729 14.2979 12.9877C14.1859 12.9025 14.1139 12.7733 13.9699 12.5149L13.8379 12.2783C13.3316 11.3704 13.0785 10.9165 12.6999 10.9165C12.3213 10.9165 12.0682 11.3704 11.5619 12.2783Z" fill="white"/>
</g>
</svg>
