<svg width="17" height="17" viewBox="0 0 17 17" fill="none" xmlns="http://www.w3.org/2000/svg">
<g id="icon:event-in-logo">
<path id="Vector" fillRule="evenodd" clipRule="evenodd" d="M2.06344 1.54848C2.06344 1.1652 2.37414 0.854492 2.75742 0.854492H5.11295C5.49622 0.854492 5.80693 1.1652 5.80693 1.54848V3.02868C5.80693 3.28898 5.73373 3.54404 5.59569 3.76473L4.34942 5.75714L7.53557 3.3863C8.27324 2.83739 9.28363 2.83739 10.0213 3.3863L14.6543 6.83378C15.1823 7.22664 15.4934 7.84597 15.4934 8.50406V13.7618C15.4934 14.9117 14.5613 15.8438 13.4115 15.8438H4.14538C2.99556 15.8438 2.06344 14.9117 2.06344 13.7618V9.41671L2.062 9.41814L2.06079 9.41595L2.06344 9.41172V1.54848ZM7.86369 8.68143L7.77208 8.84565C7.67216 9.02497 7.62219 9.11464 7.54446 9.17377C7.46646 9.23289 7.36958 9.25482 7.17555 9.29868L6.99901 9.33866C6.31614 9.493 5.97471 9.57045 5.89338 9.83166C5.81232 10.0929 6.04494 10.3652 6.51045 10.9093L6.63092 11.0503C6.76286 11.2044 6.82942 11.2822 6.85882 11.3779C6.8888 11.4734 6.87881 11.5766 6.85883 11.7831L6.84036 11.9723C6.77023 12.6978 6.73516 13.0605 6.94793 13.2219C7.16028 13.3829 7.48006 13.2358 8.11935 12.9416L8.28479 12.8655C8.46633 12.7817 8.5571 12.74 8.65342 12.74C8.74975 12.74 8.84052 12.7817 9.02206 12.8655L9.18888 12.9421C9.82715 13.236 10.1467 13.3831 10.3592 13.2216C10.5717 13.0605 10.5366 12.6978 10.4665 11.9723L10.448 11.7829C10.428 11.5766 10.418 11.4734 10.4477 11.3776C10.4774 11.2824 10.5434 11.2051 10.6747 11.0514L10.7964 10.9093C11.2619 10.3649 11.4945 10.0926 11.4135 9.83166C11.3322 9.57053 10.9912 9.49332 10.3088 9.3388L10.1316 9.29868C9.93727 9.25483 9.84011 9.23289 9.76238 9.17377C9.68466 9.11464 9.63469 9.02498 9.53476 8.84565L9.44316 8.68143C9.09182 8.0514 8.91616 7.73638 8.65342 7.73638C8.39069 7.73638 8.21502 8.0514 7.86369 8.68143Z" fill="#516473"/>
</g>
</svg>
