<svg width="18" height="18" viewBox="0 0 18 18" fill="none" xmlns="http://www.w3.org/2000/svg">
<g id="icon:event-in-logo">
<path id="Vector" fillRule="evenodd" clipRule="evenodd" d="M2.31881 2.10475C2.31881 1.72147 2.62951 1.41077 3.01279 1.41077H5.36832C5.7516 1.41077 6.0623 1.72147 6.0623 2.10475V3.58495C6.0623 3.84526 5.9891 4.10032 5.85106 4.321L4.60479 6.31341L7.79094 3.94257C8.52861 3.39367 9.539 3.39367 10.2767 3.94257L14.9097 7.39006C15.4377 7.78291 15.7488 8.40225 15.7488 9.06033V14.3181C15.7488 15.4679 14.8167 16.4 13.6668 16.4H4.40076C3.25093 16.4 2.31881 15.4679 2.31881 14.3181V9.97298L2.31738 9.97441L2.31616 9.97223L2.31881 9.968V2.10475ZM8.11906 9.2377L8.02746 9.40192C7.92753 9.58125 7.87756 9.67091 7.79983 9.73004C7.72183 9.78917 7.62495 9.8111 7.43092 9.85496L7.25438 9.89493C6.57151 10.0493 6.23008 10.1267 6.14875 10.3879C6.06769 10.6492 6.30031 10.9215 6.76582 11.4656L6.8863 11.6066C7.01823 11.7607 7.08479 11.8384 7.11419 11.9341C7.14417 12.0296 7.13418 12.1329 7.1142 12.3394L7.09573 12.5285C7.0256 13.254 6.99053 13.6167 7.2033 13.7782C7.41565 13.9392 7.73543 13.7921 8.37472 13.4978L8.54016 13.4218C8.7217 13.3379 8.81247 13.2963 8.90879 13.2963C9.00512 13.2963 9.09589 13.3379 9.27743 13.4218L9.44425 13.4983C10.0825 13.7922 10.4021 13.9394 10.6146 13.7779C10.8271 13.6167 10.792 13.254 10.7219 12.5285L10.7034 12.3391C10.6834 12.1329 10.6734 12.0296 10.7031 11.9339C10.7327 11.8387 10.7988 11.7614 10.9301 11.6077L11.0518 11.4656C11.5173 10.9212 11.7499 10.6489 11.6688 10.3879C11.5875 10.1268 11.2466 10.0496 10.5641 9.89508L10.3869 9.85496C10.1926 9.8111 10.0955 9.78917 10.0178 9.73004C9.94003 9.67091 9.89006 9.58125 9.79013 9.40192L9.69853 9.2377C9.3472 8.60767 9.17153 8.29266 8.90879 8.29266C8.64606 8.29266 8.47039 8.60767 8.11906 9.2377Z" fill="#9AA7B2"/>
</g>
</svg>
