<svg width="25" height="24" viewBox="0 0 25 24" fill="none" xmlns="http://www.w3.org/2000/svg">
<g id="icon:chat-in-logo">
<g id="Vector">
<path d="M10.1008 13.7017C9.68656 13.7017 9.35077 14.0374 9.35077 14.4517C9.35077 14.8659 9.68656 15.2017 10.1008 15.2017H14.1008C14.515 15.2017 14.8508 14.8659 14.8508 14.4517C14.8508 14.0374 14.515 13.7017 14.1008 13.7017H10.1008Z" fill="#9AA7B2"/>
<path d="M10.1008 15.4517C9.68656 15.4517 9.35077 15.7874 9.35077 16.2017C9.35077 16.6159 9.68656 16.9517 10.1008 16.9517H12.8508C13.265 16.9517 13.6008 16.6159 13.6008 16.2017C13.6008 15.7874 13.265 15.4517 12.8508 15.4517H11.4758H10.1008Z" fill="#9AA7B2"/>
<path fillRule="evenodd" clipRule="evenodd" d="M2.42666 2.20056C2.42666 1.64828 2.87438 1.20056 3.42666 1.20056H6.82088C7.37316 1.20056 7.82088 1.64828 7.82088 2.20056V4.33347C7.82088 4.70856 7.7154 5.07609 7.51648 5.39409L5.72066 8.26506L10.3118 4.84878C11.3747 4.05783 12.8306 4.05783 13.8936 4.84878L20.5696 9.81646C21.3304 10.3825 21.7787 11.275 21.7787 12.2232V19.7995C21.7787 21.4563 20.4355 22.7995 18.7787 22.7995H5.42666C3.76981 22.7995 2.42666 21.4563 2.42666 19.7995V13.5383L2.4246 13.5404L2.42285 13.5372L2.42666 13.5312V2.20056ZM11.9225 19.7006C14.4079 19.7006 16.4225 17.6859 16.4225 15.2006C16.4225 12.7152 14.4079 10.7006 11.9225 10.7006C9.4372 10.7006 7.42255 12.7152 7.42255 15.2006C7.42255 15.9206 7.59175 16.601 7.8919 17.2044C7.972 17.3646 7.99855 17.5478 7.9522 17.721L7.68445 18.7227C7.65793 18.8218 7.65795 18.9262 7.68452 19.0253C7.71108 19.1244 7.76325 19.2148 7.83579 19.2874C7.90833 19.36 7.99868 19.4122 8.09778 19.4388C8.19689 19.4655 8.30125 19.4656 8.4004 19.4391L9.4021 19.1709C9.57598 19.1271 9.75986 19.1484 9.91915 19.2308C10.5415 19.5406 11.2273 19.7015 11.9225 19.7006Z" fill="#9AA7B2"/>
</g>
</g>
</svg>
