<svg width="25" height="24" viewBox="0 0 25 24" fill="none" xmlns="http://www.w3.org/2000/svg">
<g id="icon:chat-in-logo">
<g id="Vector">
<path d="M10.1008 13.7015C9.68656 13.7015 9.35077 14.0373 9.35077 14.4515C9.35077 14.8658 9.68656 15.2015 10.1008 15.2015H14.1008C14.515 15.2015 14.8508 14.8658 14.8508 14.4515C14.8508 14.0373 14.515 13.7015 14.1008 13.7015H10.1008Z" fill="#516473"/>
<path d="M10.1008 15.4515C9.68656 15.4515 9.35077 15.7873 9.35077 16.2015C9.35077 16.6158 9.68656 16.9515 10.1008 16.9515H12.8508C13.265 16.9515 13.6008 16.6158 13.6008 16.2015C13.6008 15.7873 13.265 15.4515 12.8508 15.4515H11.4758H10.1008Z" fill="#516473"/>
<path fillRule="evenodd" clipRule="evenodd" d="M2.42666 2.20044C2.42666 1.64815 2.87438 1.20044 3.42666 1.20044H6.82088C7.37316 1.20044 7.82088 1.64815 7.82088 2.20044V4.33334C7.82088 4.70843 7.7154 5.07596 7.51648 5.39397L5.72066 8.26494L10.3118 4.84866C11.3747 4.05771 12.8306 4.05771 13.8936 4.84866L20.5696 9.81634C21.3304 10.3824 21.7787 11.2749 21.7787 12.2231V19.7993C21.7787 21.4562 20.4355 22.7993 18.7787 22.7993H5.42666C3.76981 22.7993 2.42666 21.4562 2.42666 19.7993V13.5382L2.4246 13.5403L2.42285 13.5371L2.42666 13.531V2.20044ZM11.9225 19.7004C14.4079 19.7004 16.4225 17.6858 16.4225 15.2004C16.4225 12.7151 14.4079 10.7004 11.9225 10.7004C9.4372 10.7004 7.42255 12.7151 7.42255 15.2004C7.42255 15.9204 7.59175 16.6008 7.8919 17.2043C7.972 17.3645 7.99855 17.5476 7.9522 17.7209L7.68445 18.7226C7.65793 18.8217 7.65795 18.9261 7.68452 19.0252C7.71108 19.1243 7.76325 19.2147 7.83579 19.2873C7.90833 19.3599 7.99868 19.4121 8.09778 19.4387C8.19689 19.4654 8.30125 19.4654 8.4004 19.439L9.4021 19.1708C9.57598 19.127 9.75986 19.1483 9.91915 19.2306C10.5415 19.5405 11.2273 19.7014 11.9225 19.7004Z" fill="#516473"/>
</g>
</g>
</svg>
