<svg width="49" height="48" viewBox="0 0 49 48" fill="none" xmlns="http://www.w3.org/2000/svg">
<rect x="1" y="0.5" width="47" height="47" rx="23.5" fill="url(#paint0_radial_344_55645)"/>
<rect x="1" y="0.5" width="47" height="47" rx="23.5" stroke="#22929A"/>
<path d="M22.5002 25.7017C22.086 25.7017 21.7502 26.0374 21.7502 26.4517C21.7502 26.8659 22.086 27.2017 22.5002 27.2017H26.5002C26.9144 27.2017 27.2502 26.8659 27.2502 26.4517C27.2502 26.0374 26.9144 25.7017 26.5002 25.7017H22.5002Z" fill="white"/>
<path d="M22.5002 27.4517C22.086 27.4517 21.7502 27.7874 21.7502 28.2017C21.7502 28.6159 22.086 28.9517 22.5002 28.9517H25.2502C25.6644 28.9517 26.0002 28.6159 26.0002 28.2017C26.0002 27.7874 25.6644 27.4517 25.2502 27.4517H23.8752H22.5002Z" fill="white"/>
<path fillRule="evenodd" clipRule="evenodd" d="M14.8261 14.2006C14.8261 13.6483 15.2738 13.2006 15.8261 13.2006H19.2203C19.7726 13.2006 20.2203 13.6483 20.2203 14.2006V16.3335C20.2203 16.7086 20.1148 17.0761 19.9159 17.3941L18.1201 20.2651L22.7112 16.8488C23.7741 16.0578 25.2301 16.0578 26.293 16.8488L32.969 21.8165C33.7298 22.3825 34.1781 23.275 34.1781 24.2232V31.7995C34.1781 33.4563 32.835 34.7995 31.1781 34.7995H17.8261C16.1692 34.7995 14.8261 33.4563 14.8261 31.7995V25.5383L14.824 25.5404L14.8223 25.5372L14.8261 25.5312V14.2006ZM24.322 31.7006C26.8073 31.7006 28.822 29.6859 28.822 27.2006C28.822 24.7152 26.8073 22.7006 24.322 22.7006C21.8366 22.7006 19.822 24.7152 19.822 27.2006C19.822 27.9206 19.9912 28.601 20.2913 29.2044C20.3714 29.3646 20.398 29.5478 20.3516 29.721L20.0839 30.7227C20.0573 30.8218 20.0574 30.9262 20.0839 31.0253C20.1105 31.1244 20.1627 31.2148 20.2352 31.2874C20.3077 31.36 20.3981 31.4122 20.4972 31.4388C20.5963 31.4655 20.7007 31.4656 20.7998 31.4391L21.8015 31.1709C21.9754 31.1271 22.1593 31.1484 22.3186 31.2308C22.9409 31.5406 23.6268 31.7015 24.322 31.7006Z" fill="white"/>
<defs>
<radialGradient id="paint0_radial_344_55645" cx="0" cy="0" r="1" gradientUnits="userSpaceOnUse" gradientTransform="translate(24.5 37.2) rotate(-45) scale(33.9411)">
<stop stop-color="#55C5CD"/>
<stop offset="1" stop-color="#196E73"/>
</radialGradient>
</defs>
</svg>
