<svg width="44" height="44" viewBox="0 0 44 44" fill="none" xmlns="http://www.w3.org/2000/svg">
<rect x="4" y="4" width="36" height="36" rx="18" fill="#2D4354" fill-opacity="0.32"/>
<path d="M19.9968 19.2894C19.903 19.1957 19.7758 19.143 19.6432 19.143C19.5106 19.143 19.3834 19.1957 19.2897 19.2894C19.1959 19.3832 19.1432 19.5104 19.1432 19.643C19.1432 19.7756 19.1959 19.9028 19.2897 19.9965L21.2931 22L19.2897 24.0035C19.1959 24.0972 19.1432 24.2244 19.1432 24.357C19.1432 24.4896 19.1959 24.6168 19.2897 24.7106C19.3834 24.8043 19.5106 24.857 19.6432 24.857C19.7758 24.857 19.903 24.8043 19.9968 24.7106L22.0003 22.7071L24.0037 24.7106C24.0975 24.8043 24.2247 24.857 24.3573 24.857C24.4899 24.857 24.6171 24.8043 24.7108 24.7106C24.8046 24.6168 24.8573 24.4896 24.8573 24.357C24.8573 24.2244 24.8046 24.0972 24.7108 24.0035L22.7074 22L24.7108 19.9965C24.8046 19.9028 24.8573 19.7756 24.8573 19.643C24.8573 19.5104 24.8046 19.3832 24.7108 19.2894C24.6171 19.1957 24.4899 19.143 24.3573 19.143C24.2247 19.143 24.0975 19.1957 24.0037 19.2894L22.0003 21.2929L19.9968 19.2894Z" fill="white"/>
</svg>
