<svg width="32" height="32" viewBox="0 0 32 32" fill="none" xmlns="http://www.w3.org/2000/svg">
<g clip-path="url(#clip0_3_41)">
<rect width="32" height="32" fill="white"/>
<path d="M11.0335 17.542L11.0417 17.5329L15.4826 8.8H10.8079C8.47406 11.493 6.16842 14.145 3.2 17.5489H11.0316C11.0323 17.5466 11.0329 17.5443 11.0335 17.542Z" fill="#ED2127"/>
<path d="M11.0316 17.5489C10.4681 19.5492 9.90475 21.5428 9.34132 23.5432H13.9526L15.3839 21.8618C16.4627 20.6178 17.5556 19.3533 18.7543 17.9863L21.5887 14.8012C22.1528 12.7985 22.7169 10.8027 23.2809 8.80002H18.6697L17.2383 10.4814C16.1595 11.7254 15.0666 12.9899 13.8679 14.3569L11.0417 17.5329L11.0335 17.5489H11.0316Z" fill="#ED2127"/>
<path d="M11.0316 17.5508H11.0338L11.0429 17.5329L11.0338 17.5431C11.033 17.5457 11.0323 17.5482 11.0316 17.5508Z" fill="#ED2127"/>
<path d="M21.8214 23.55C24.1552 20.8638 26.4538 18.205 29.4222 14.8012H21.5957L17.1466 23.55H21.8214Z" fill="#ED2127"/>
</g>
<defs>
<clipPath id="clip0_3_41">
<rect width="32" height="32" fill="white"/>
</clipPath>
</defs>
</svg>
