<svg width="49" height="48" viewBox="0 0 49 48" fill="none" xmlns="http://www.w3.org/2000/svg">
<rect x="1" y="0.5" width="47" height="47" rx="23.5" fill="url(#paint0_radial_344_55639)"/>
<rect x="1" y="0.5" width="47" height="47" rx="23.5" stroke="#1E52C8"/>
<path fillRule="evenodd" clipRule="evenodd" d="M15.0043 14C15.0043 13.4477 15.452 13 16.0043 13H19.3985C19.9508 13 20.3985 13.4477 20.3985 14V16.1329C20.3985 16.508 20.293 16.8755 20.0941 17.1935L18.2983 20.0645L22.8894 16.6482C23.9524 15.8573 25.4083 15.8573 26.4712 16.6482L33.1472 21.6159C33.908 22.182 34.3563 23.0744 34.3563 24.0227V31.5989C34.3563 33.2558 33.0132 34.5989 31.3563 34.5989H18.0043C16.3474 34.5989 15.0043 33.2558 15.0043 31.5989V25.3378L15.0022 25.3398L15.0005 25.3367L15.0043 25.3306V14ZM23.3622 24.2783L23.2302 24.5149C23.0862 24.7733 23.0142 24.9025 22.9022 24.9877C22.7898 25.0729 22.6502 25.1045 22.3706 25.1677L22.1162 25.2253C21.1323 25.4477 20.6403 25.5593 20.5231 25.9357C20.4063 26.3121 20.7415 26.7045 21.4123 27.4885L21.5859 27.6917C21.776 27.9138 21.8719 28.0258 21.9142 28.1637C21.9574 28.3013 21.943 28.4501 21.9142 28.7477L21.8876 29.0202C21.7866 30.0656 21.7361 30.5883 22.0426 30.8209C22.3486 31.0529 22.8094 30.8409 23.7306 30.4169L23.969 30.3073C24.2306 30.1865 24.3614 30.1265 24.5002 30.1265C24.639 30.1265 24.7698 30.1865 25.0314 30.3073L25.2718 30.4177C26.1915 30.8412 26.6519 31.0532 26.9581 30.8205C27.2643 30.5883 27.2138 30.0656 27.1127 29.0202L27.0861 28.7473C27.0573 28.4501 27.0429 28.3013 27.0857 28.1633C27.1284 28.0261 27.2235 27.9148 27.4128 27.6933L27.5881 27.4885C28.2589 26.7041 28.5941 26.3117 28.4773 25.9357C28.3601 25.5594 27.8688 25.4482 26.8854 25.2255L26.6301 25.1677C26.3501 25.1045 26.2101 25.0729 26.0981 24.9877C25.9861 24.9025 25.9141 24.7733 25.7702 24.5149L25.6382 24.2783C25.1319 23.3704 24.8788 22.9165 24.5002 22.9165C24.1216 22.9165 23.8685 23.3704 23.3622 24.2783Z" fill="white"/>
<defs>
<radialGradient id="paint0_radial_344_55639" cx="0" cy="0" r="1" gradientUnits="userSpaceOnUse" gradientTransform="translate(24.5 32.6667) rotate(90) scale(24)">
<stop stop-color="#7897DE"/>
<stop offset="1" stop-color="#1842A0"/>
</radialGradient>
</defs>
</svg>
