<svg width="49" height="48" viewBox="0 0 49 48" fill="none" xmlns="http://www.w3.org/2000/svg">
<rect x="1" y="0.5" width="47" height="47" rx="23.5" fill="url(#paint0_radial_344_55636)"/>
<rect x="1" y="0.5" width="47" height="47" rx="23.5" stroke="#9248E4"/>
<path fillRule="evenodd" clipRule="evenodd" d="M16.0043 13C15.452 13 15.0043 13.4477 15.0043 14V25.3306L15.0005 25.3367L15.0022 25.3398L15.0043 25.3378V31.5989C15.0043 33.2558 16.3474 34.5989 18.0043 34.5989H31.3563C33.0132 34.5989 34.3563 33.2558 34.3563 31.5989V24.0227C34.3563 23.0744 33.908 22.182 33.1472 21.6159L26.4712 16.6482C25.4083 15.8573 23.9524 15.8573 22.8894 16.6482L18.2983 20.0645L20.0941 17.1935C20.293 16.8755 20.3985 16.508 20.3985 16.1329V14C20.3985 13.4477 19.9508 13 19.3985 13H16.0043ZM26.4927 25.0524C26.6011 24.7908 26.6569 24.5103 26.6569 24.2271C26.6569 23.6551 26.4296 23.1066 26.0252 22.7021C25.6207 22.2977 25.0722 22.0704 24.5002 22.0704C23.9282 22.0704 23.3796 22.2977 22.9752 22.7021C22.5707 23.1066 22.3435 23.6551 22.3435 24.2271C22.3435 24.5103 22.3993 24.7908 22.5077 25.0524C22.6161 25.3141 22.7749 25.5519 22.9752 25.7521C23.1754 25.9524 23.4132 26.1112 23.6749 26.2196C23.9365 26.328 24.217 26.3838 24.5002 26.3838C24.7834 26.3838 25.0638 26.328 25.3255 26.2196C25.5872 26.1112 25.8249 25.9524 26.0252 25.7521C26.2255 25.5519 26.3843 25.3141 26.4927 25.0524ZM24.5002 31.9295C26.5422 31.9295 28.1973 30.964 28.1973 29.7729C28.1973 28.5818 26.5422 27.6162 24.5002 27.6162C22.4581 27.6162 20.803 28.5818 20.803 29.7729C20.803 30.964 22.4581 31.9295 24.5002 31.9295ZM21.8136 22.7174C21.7105 22.6969 21.6041 22.6866 21.4944 22.6866C20.6231 22.6866 19.9163 23.3688 19.9163 24.2092C19.9163 25.0497 20.6231 25.7312 21.4944 25.7312C21.5975 25.7312 21.6977 25.722 21.7951 25.7035C21.5554 25.2654 21.4192 24.762 21.4192 24.2271C21.419 23.6984 21.5548 23.1785 21.8136 22.7174ZM19.8787 29.7729C19.8787 30.373 20.1129 30.8863 20.4623 31.3047C19.273 31.2234 18.3382 30.5764 18.3382 29.7907C18.3382 29.0131 19.2564 28.371 20.4308 28.2798C20.0987 28.6908 19.8787 29.1912 19.8787 29.7729ZM27.2053 25.7035C27.445 25.2654 27.5812 24.762 27.5812 24.2271C27.5812 23.6787 27.4382 23.1636 27.1874 22.7174C27.2905 22.6969 27.3969 22.6866 27.5066 22.6866C28.3779 22.6866 29.0834 23.3688 29.0834 24.2092C29.0834 25.0497 28.3773 25.7312 27.506 25.7312C27.4025 25.7312 27.3022 25.722 27.2053 25.7035ZM30.6621 29.7907C30.6621 30.5764 29.7274 31.2234 28.5381 31.3047C28.8875 30.8863 29.1216 30.373 29.1216 29.7729C29.1216 29.1912 28.9023 28.6908 28.5695 28.2798C29.7434 28.371 30.6621 29.0125 30.6621 29.7907Z" fill="white"/>
<defs>
<radialGradient id="paint0_radial_344_55636" cx="0" cy="0" r="1" gradientUnits="userSpaceOnUse" gradientTransform="translate(24.5 32.6667) rotate(90) scale(24)">
<stop stop-color="#BE91EF"/>
<stop offset="1" stop-color="#753AB7"/>
</radialGradient>
</defs>
</svg>
