<svg width="25" height="24" viewBox="0 0 25 24" fill="none" xmlns="http://www.w3.org/2000/svg">
<g id="icon:home-in-logo">
<path id="Vector" fillRule="evenodd" clipRule="evenodd" d="M4.4042 1C3.85192 1 3.4042 1.44772 3.4042 2V13.3306L3.40039 13.3367L3.40214 13.3398L3.4042 13.3378V19.5989C3.4042 21.2558 4.74734 22.5989 6.4042 22.5989H19.7562C21.4131 22.5989 22.7562 21.2558 22.7562 19.5989V12.0227C22.7562 11.0744 22.3079 10.182 21.5471 9.6159L14.8711 4.64822C13.8082 3.85727 12.3523 3.85727 11.2893 4.64822L6.6982 8.0645L8.49402 5.19353C8.69294 4.87552 8.79842 4.50799 8.79842 4.13291V2C8.79842 1.44772 8.3507 1 7.79842 1H4.4042ZM12.7247 18.8283C12.5841 18.6877 12.5051 18.4969 12.5051 18.298V15.298C12.5051 15.0991 12.5841 14.9083 12.7247 14.7676C12.8654 14.627 13.0562 14.548 13.2551 14.548C13.454 14.548 13.6447 14.627 13.7854 14.7676C13.926 14.9083 14.0051 15.0991 14.0051 15.298V18.298C14.0051 18.4969 13.926 18.6877 13.7854 18.8283C13.6447 18.969 13.454 19.048 13.2551 19.048C13.0562 19.048 12.8654 18.969 12.7247 18.8283Z" fill="#516473"/>
</g>
</svg>
