<svg width="24" height="25" viewBox="0 0 24 25" fill="none" xmlns="http://www.w3.org/2000/svg">
<path d="M0 12.4944C0 5.86697 5.37258 0.494385 12 0.494385C18.6274 0.494385 24 5.86697 24 12.4944C24 19.1218 18.6274 24.4944 12 24.4944C5.37258 24.4944 0 19.1218 0 12.4944Z" fill="url(#paint0_radial_1561_2615)"/>
<path fillRule="evenodd" clipRule="evenodd" d="M7.75191 6.99438C7.47576 6.99438 7.25191 7.21824 7.25191 7.49438V13.1597L7.25 13.1627L7.25087 13.1643L7.25191 13.1633V16.2938C7.25191 16.42 7.25174 16.6003 7.25151 16.7922C7.25085 17.3419 7.6937 17.7898 8.24334 17.7926C8.38456 17.7934 8.51434 17.7938 8.61084 17.7938H8.99985C9.55213 17.7938 9.99985 17.3461 9.99985 16.7938V13.4944C9.99985 12.3898 10.8953 11.4944 11.9998 11.4944C13.1044 11.4944 13.9998 12.3898 13.9998 13.4944V16.7938C13.9998 17.3461 14.4476 17.7938 14.9998 17.7938H15.5181C15.6239 17.7938 15.7698 17.7938 15.9278 17.7938C16.4801 17.7938 16.9279 17.346 16.9279 16.7937C16.9279 16.5995 16.9279 16.418 16.9279 16.2938V12.5057C16.9279 12.0316 16.7038 11.5854 16.3234 11.3023L12.9854 8.81849C12.4539 8.42302 11.7259 8.42302 11.1945 8.81849L8.8989 10.5266L9.79682 9.09115C9.89627 8.93215 9.94901 8.74838 9.94901 8.56084V7.49438C9.94901 7.21824 9.72515 6.99438 9.44901 6.99438H7.75191Z" fill="white"/>
<defs>
<radialGradient id="paint0_radial_1561_2615" cx="0" cy="0" r="1" gradientUnits="userSpaceOnUse" gradientTransform="translate(12 19.0944) rotate(-45) scale(16.9706)">
<stop stop-color="#55C5CD"/>
<stop offset="1" stop-color="#196E73"/>
</radialGradient>
</defs>
</svg>
