<svg width="44" height="60" viewBox="0 0 44 60" fill="none" xmlns="http://www.w3.org/2000/svg">
<path d="M43.9936 30.4286V57.7143C43.9936 59 42.9705 60 41.6551 60H34.201C32.8856 60 31.8625 59 31.8625 57.7143V35.5714C31.8625 32.5714 30.9855 30.1429 29.0855 28.4286C27.6239 27 25.87 26.1429 23.6776 25.8571C23.093 25.7143 22.6545 25.7143 22.0699 25.7143C19.1467 25.7143 16.8082 26.5714 14.9081 28.4286C13.0081 30.1429 12.1311 32.5714 12.1311 35.5714V57.5714C12.1311 58.8571 11.108 59.8571 9.79259 59.8571H2.33853C1.02311 59.8571 0 58.8571 0 57.5714V2.28571C0 1 1.02311 0 2.33853 0H9.79259C11.108 0 12.1311 1 12.1311 2.28571V12.2857L5.34084 24.2036L17.2467 14.8571L20.0237 13C21.4852 12 23.5315 12 24.993 13L41.9474 25.7143C43.1166 26.5714 43.9417 27.6283 43.9936 29.2273C44.008 29.6708 43.9936 30 43.9936 30.4286Z" fill="#758692"/>
</svg>
