<svg width="21" height="21" viewBox="0 0 21 21" fill="none" xmlns="http://www.w3.org/2000/svg">
<g id="emoji">
<path id="Vector" d="M10.6665 20.4944C16.1894 20.4944 20.6665 16.0172 20.6665 10.4944C20.6665 4.97154 16.1894 0.494385 10.6665 0.494385C5.14366 0.494385 0.666504 4.97154 0.666504 10.4944C0.666504 16.0172 5.14366 20.4944 10.6665 20.4944Z" fill="url(#paint0_radial_6155_11495)"/>
<path id="Vector_2" d="M16.9066 10.2504C17.0106 10.0504 17.0706 9.81835 17.0706 9.57835C17.0706 8.85435 16.5426 8.25035 15.8466 8.13835C15.9226 7.95835 15.9666 7.76235 15.9666 7.55435C15.9666 6.73035 15.3026 6.06235 14.4786 6.05835C14.5106 5.94635 14.5226 5.82635 14.5226 5.70235C14.5226 4.87435 13.8546 4.42635 13.0266 4.42635C12.4906 4.42635 10.9746 5.56635 10.3066 5.85835C10.0586 5.96635 9.77863 5.94235 9.65863 5.70235L9.37463 4.16235C9.09863 3.60635 8.42663 3.38235 7.87463 3.65835C7.31863 3.93435 7.20663 4.58635 7.37063 5.15835L7.63063 6.95435C7.63863 7.00235 7.57063 7.35835 7.51463 7.49835C7.30663 8.01035 7.14663 8.39835 6.93063 9.05035C6.83063 9.35435 6.86263 9.69035 7.03063 9.96235C7.68663 11.0384 9.47063 14.0024 9.94663 14.9264C10.0466 15.1184 10.2386 15.2424 10.4546 15.2584C12.2946 15.3864 15.2146 13.5944 16.2346 12.9504C16.5226 12.7664 16.7906 12.5584 17.0266 12.3144C17.3186 12.0064 17.5026 11.7144 17.5026 11.3464C17.5026 10.8904 17.2626 10.4904 16.9066 10.2624V10.2504Z" fill="white"/>
<path id="Vector_3" d="M9.73441 16.0465V16.0545C9.7264 16.5425 9.4704 17.0145 9.0184 17.2825C8.3224 17.6945 7.4304 17.4665 7.0184 16.7705L3.9864 11.6585C3.8424 11.4145 3.7784 11.1505 3.7824 10.8905C3.7904 10.4025 4.0464 9.93049 4.4984 9.65849C5.1144 9.29449 5.8864 9.43449 6.3384 9.95049C6.3984 10.0145 6.4464 10.0905 6.4944 10.1665L9.5264 15.2785C9.6664 15.5185 9.7344 15.7825 9.7304 16.0425L9.73441 16.0465Z" fill="white"/>
</g>
<defs>
<radialGradient id="paint0_radial_6155_11495" cx="0" cy="0" r="1" gradientUnits="userSpaceOnUse" gradientTransform="translate(12.7498 21.7444) rotate(-88.9391) scale(22.5039 23.3493)">
<stop stop-color="#BCCBEF"/>
<stop offset="0.675" stop-color="#4B75D3"/>
<stop offset="0.88" stop-color="#1E52C8"/>
<stop offset="1" stop-color="#1842A0"/>
</radialGradient>
</defs>
</svg>
