<svg width="32" height="32" viewBox="0 0 32 32" fill="none" xmlns="http://www.w3.org/2000/svg">
<g id="emoji">
<g id="Vector">
<path d="M16 32C24.8366 32 32 24.8366 32 16C32 7.16345 24.8366 0 16 0C7.16344 0 0 7.16345 0 16C0 24.8366 7.16344 32 16 32Z" fill="#F65066"/>
<path d="M16 32C24.8366 32 32 24.8366 32 16C32 7.16345 24.8366 0 16 0C7.16344 0 0 7.16345 0 16C0 24.8366 7.16344 32 16 32Z" fill="url(#paint0_radial_6928_5915)"/>
</g>
<path id="Vector_2" d="M25.4978 11.4048C24.3202 9.6832 22.413 8.5376 20.3266 8.5376C18.6178 8.5376 17.1714 9.248 16.0705 10.3744C14.9698 9.2416 13.5233 8.5376 11.8145 8.5376C9.72815 8.5376 7.82095 9.6832 6.64335 11.4048C5.08815 13.6832 6.06735 16.8 6.59855 17.7664C8.76815 21.7088 13.0945 24.4416 15.1105 25.6832C15.7058 26.048 16.4545 26.0288 17.0306 25.632C19.3538 24.0192 23.7761 21.0176 25.5489 17.7728C26.0737 16.8064 27.0593 13.6896 25.5041 11.4112L25.4978 11.4048Z" fill="white"/>
</g>
<defs>
<radialGradient id="paint0_radial_6928_5915" cx="0" cy="0" r="1" gradientUnits="userSpaceOnUse" gradientTransform="translate(18 30.6667) rotate(-88.8065) scale(32.0069 33.2093)">
<stop stop-color="#F7C8C9"/>
<stop offset="0.585673" stop-color="#E96D70"/>
<stop offset="0.746835" stop-color="#E4484C"/>
<stop offset="0.904499" stop-color="#B73A3D"/>
</radialGradient>
</defs>
</svg>
