<svg width="25" height="24" viewBox="0 0 25 24" fill="none" xmlns="http://www.w3.org/2000/svg">
<g id="icon:location-in-logo">
<path id="Vector" fillRule="evenodd" clipRule="evenodd" d="M4.0043 1C3.45202 1 3.0043 1.44772 3.0043 2V13.3306L3.00049 13.3367L3.00224 13.3398L3.0043 13.3378V19.5989C3.0043 21.2558 4.34744 22.5989 6.0043 22.5989H19.3563C21.0132 22.5989 22.3563 21.2558 22.3563 19.5989V12.0227C22.3563 11.0744 21.908 10.182 21.1472 9.6159L14.4712 4.64822C13.4083 3.85727 11.9524 3.85727 10.8894 4.64822L6.2983 8.0645L8.09412 5.19353C8.29303 4.87552 8.39851 4.50799 8.39851 4.13291V2C8.39851 1.44772 7.9508 1 7.39851 1H4.0043ZM8.89056 13.7641C8.89056 11.7767 10.5862 10.1656 12.6784 10.1656C14.7705 10.1656 16.4662 11.7767 16.4662 13.7641C16.4662 15.7363 15.2573 18.038 13.3709 18.86C13.1524 18.9548 12.9166 19.0038 12.6784 19.0038C12.4401 19.0038 12.2044 18.9548 11.9858 18.86C10.0995 18.0374 8.89056 15.7363 8.89056 13.7641ZM13.5712 14.8463C13.3344 15.0831 13.0132 15.2161 12.6784 15.2161C12.3435 15.2161 12.0224 15.0831 11.7856 14.8463C11.5488 14.6095 11.4158 14.2883 11.4158 13.9535C11.4158 13.6186 11.5488 13.2975 11.7856 13.0607C12.0224 12.8239 12.3435 12.6909 12.6784 12.6909C13.0132 12.6909 13.3344 12.8239 13.5712 13.0607C13.808 13.2975 13.941 13.6186 13.941 13.9535C13.941 14.2883 13.808 14.6095 13.5712 14.8463Z" fill="#1B2832"/>
</g>
</svg>
