<svg width="40" height="40" viewBox="0 0 40 40" fill="none" xmlns="http://www.w3.org/2000/svg">
<g clip-path="url(#clip0_3_38)">
<rect width="40" height="40" fill="white"/>
<path d="M5.625 0.359375C4.04688 0.828125 3.3125 1.23438 2.29688 2.25C1.23438 3.32812 0.765625 4.14062 0.328125 5.73438C0 6.95312 0 7.17188 0 20C0 32.8281 0 33.0469 0.328125 34.2656C0.765625 35.8438 1.23438 36.6719 2.28125 37.7188C3.32812 38.7656 4.15625 39.2344 5.73438 39.6719C6.95312 40 7.17188 40 20 40C32.8281 40 33.0469 40 34.2656 39.6719C35.8438 39.2344 36.6719 38.7656 37.7188 37.7188C38.7656 36.6719 39.2344 35.8438 39.6719 34.2656C40 33.0469 40 32.8281 40 20C40 7.17188 40 6.95312 39.6719 5.73438C39.2344 4.15625 38.7656 3.32812 37.7188 2.28125C36.6719 1.23438 35.8438 0.765625 34.2656 0.328125C33.0469 0 32.8594 0 19.9062 0.015625C6.90625 0.03125 6.78125 0.03125 5.625 0.359375ZM23.2812 15.6094C23.6875 16.0469 23.75 16.2344 23.75 16.9844C23.75 17.8125 23.7031 17.9062 23.125 18.4688C22.5938 18.9688 22.375 19.0625 21.8281 19.0625C20.2812 19.0625 19.2344 17.4219 19.9219 16.0938C20.3594 15.25 20.9062 14.9688 21.9219 15.0312C22.7031 15.0938 22.8906 15.1719 23.2812 15.6094ZM9.1875 20.1875L9.14062 25.2344L7.46875 25.2812L5.78125 25.3281V20.2344V15.1562H7.5H9.21875L9.1875 20.1875ZM12.9062 15.5469C13.4688 15.9688 13.5625 16.2188 14.0625 18.5156C14.25 19.375 14.5 20.4219 14.625 20.8438C14.75 21.25 14.8438 21.7188 14.8438 21.8594C14.8438 22 15.0156 22.7812 15.2188 23.5938C15.4219 24.4062 15.5625 25.125 15.5156 25.1875C15.4844 25.2656 14.6562 25.3125 13.6719 25.3125H11.9062L11.7344 24.7969C11.6406 24.5156 11.4531 23.7969 11.3438 23.1875C11.2188 22.5938 10.9688 21.4375 10.7812 20.625C10.5938 19.8125 10.3125 18.5469 10.1562 17.8125C10 17.0781 9.79688 16.2344 9.70312 15.9375C9.60938 15.6406 9.53125 15.3438 9.53125 15.2812C9.53125 15.2031 10.1719 15.1562 10.9688 15.1562C12.25 15.1562 12.4375 15.2031 12.9062 15.5469ZM19.3438 20.1875L19.2969 25.2344H17.6562H16.0156L15.9688 20.1875L15.9375 15.1562H17.6562H19.375L19.3438 20.1875ZM27.5781 20.2344V25.2344H25.9375H24.2969L24.25 20.1875L24.2188 15.1406L25.8906 15.1875L27.5781 15.2344V20.2344ZM34.375 15.3125C34.375 15.5625 34.0156 16.25 33.875 16.25C33.8125 16.25 33.75 16.3281 33.75 16.4219C33.75 16.5781 33.2344 17.4531 32.2188 19.0156C31.6406 19.9062 31.625 20.3281 32.1406 21.1875C32.7031 22.1562 33.375 23.25 34.0156 24.2656C34.2969 24.6875 34.4844 25.1094 34.4375 25.1875C34.3906 25.25 33.5625 25.3125 32.6094 25.3125H30.8594L30.3125 24.4375C28.1875 21.0469 27.9219 20.5156 28.0312 19.9375C28.0938 19.6406 28.2656 19.2344 28.4375 19.0156C28.6094 18.7969 28.75 18.5781 28.75 18.5156C28.75 18.4531 28.9062 18.1875 29.1094 17.9219C29.2969 17.6562 29.5312 17.3125 29.6094 17.1562C29.7031 17.0156 30 16.5 30.2812 16.0312L30.7812 15.1562H32.5781C33.6094 15.1562 34.375 15.2188 34.375 15.3125Z" fill="#1767CE"/>
</g>
<defs>
<clipPath id="clip0_3_38">
<rect width="40" height="40" fill="white"/>
</clipPath>
</defs>
</svg>
