<svg width="32" height="33" viewBox="0 0 32 33" fill="none" xmlns="http://www.w3.org/2000/svg">
<path d="M0 16.4944C0 7.65783 7.16344 0.494385 16 0.494385C24.8366 0.494385 32 7.65783 32 16.4944C32 25.3309 24.8366 32.4944 16 32.4944C7.16344 32.4944 0 25.3309 0 16.4944Z" fill="#261A40"/>
<g clip-path="url(#clip0_6492_18222)">
<path d="M16.1235 8.49744C19.639 8.49744 22.1137 11.0505 22.1137 14.7293V16.2571H19.0891V14.7293C19.0891 12.7592 17.8911 11.5128 16.1235 11.5128C14.3559 11.5128 13.1579 12.7391 13.1579 14.7293H10.1333C10.1333 11.0505 12.6276 8.49744 16.1235 8.49744ZM10.1333 24.0569H22.1333V21.0616H13.8452L18.1071 16.2772H14.3952L10.1333 21.0616V24.0569Z" fill="white"/>
</g>
<defs>
<clipPath id="clip0_6492_18222">
<rect width="16" height="16" fill="white" transform="translate(8 8.49438)"/>
</clipPath>
</defs>
</svg>
