<svg width="49" height="48" viewBox="0 0 49 48" fill="none" xmlns="http://www.w3.org/2000/svg">
<rect x="1" y="0.5" width="47" height="47" rx="23.5" fill="url(#paint0_radial_344_55648)"/>
<rect x="1" y="0.5" width="47" height="47" rx="23.5" stroke="#758692"/>
<path fillRule="evenodd" clipRule="evenodd" d="M16.0043 13C15.452 13 15.0043 13.4477 15.0043 14V25.3306L15.0005 25.3367L15.0022 25.3398L15.0043 25.3378V31.5989C15.0043 33.2558 16.3474 34.5989 18.0043 34.5989H31.3563C33.0132 34.5989 34.3563 33.2558 34.3563 31.5989V24.0227C34.3563 23.0744 33.908 22.182 33.1472 21.6159L26.4712 16.6482C25.4083 15.8573 23.9524 15.8573 22.8894 16.6482L18.2983 20.0645L20.0941 17.1935C20.293 16.8755 20.3985 16.508 20.3985 16.1329V14C20.3985 13.4477 19.9508 13 19.3985 13H16.0043ZM27.2187 24.0818L24.2602 27.0403L24.2541 27.0464C24.0271 27.2729 23.9126 27.3872 23.7862 27.4858C23.6361 27.603 23.4737 27.7032 23.3017 27.7848C23.1579 27.854 23.0047 27.9051 22.7018 28.0063L22.6912 28.0098L21.0582 28.5538C20.9835 28.5788 20.9033 28.5824 20.8266 28.5644C20.7499 28.5463 20.6797 28.5072 20.624 28.4515C20.5683 28.3958 20.5292 28.3256 20.5112 28.249C20.4931 28.1723 20.4967 28.0921 20.5217 28.0173L21.0657 26.3838L21.0705 26.3694L21.0705 26.3694C21.1708 26.0695 21.2218 25.917 21.2902 25.7738C21.3721 25.6019 21.4725 25.4395 21.5897 25.2893C21.687 25.164 21.8002 25.0508 22.0234 24.8276L22.0234 24.8276L22.0352 24.8158L24.9942 21.8573C25.2021 22.3553 25.5058 22.8076 25.8882 23.1883C26.2689 23.5705 26.7209 23.874 27.2187 24.0818ZM28.3806 22.7504C28.3016 22.9413 28.1858 23.1147 28.0397 23.2608L27.6852 23.6158C27.1674 23.4428 26.6972 23.151 26.3122 22.7638C25.8507 22.3023 25.6052 21.8108 25.4752 21.4363L25.4597 21.3913L25.8147 21.0363C25.9608 20.8902 26.1342 20.7743 26.325 20.6953C26.5159 20.6162 26.7204 20.5755 26.927 20.5754C27.1336 20.5754 27.3382 20.6161 27.529 20.6951C27.7199 20.7742 27.8933 20.89 28.0394 21.0361C28.1855 21.1821 28.3014 21.3555 28.3805 21.5464C28.4596 21.7373 28.5003 21.9418 28.5003 22.1484C28.5003 22.355 28.4597 22.5596 28.3806 22.7504ZM20.5631 30.3508C20.2318 30.3508 19.9631 30.6194 19.9631 30.9508C19.9631 31.2822 20.2318 31.5508 20.5631 31.5508H28.2C28.5313 31.5508 28.8 31.2822 28.8 30.9508C28.8 30.6194 28.5313 30.3508 28.2 30.3508H20.5631Z" fill="white"/>
<defs>
<radialGradient id="paint0_radial_344_55648" cx="0" cy="0" r="1" gradientUnits="userSpaceOnUse" gradientTransform="translate(26.9 34.8) rotate(21.8686) scale(21.1198 21.1134)">
<stop stop-color="#9AA7B2"/>
<stop offset="1" stop-color="#516473"/>
</radialGradient>
</defs>
</svg>
