<svg width="20" height="29" viewBox="0 0 20 29" fill="none" xmlns="http://www.w3.org/2000/svg">
<path fillRule="evenodd" clipRule="evenodd" d="M2.45477 9.9979C1.93699 11.0017 1.66678 12.1148 1.66669 13.2444C1.6666 14.5743 2.04094 15.8775 2.74688 17.0046C3.45282 18.1318 4.46183 19.0374 5.65843 19.6179C6.85504 20.1983 8.1909 20.4302 9.51313 20.2869C10.8354 20.1437 12.0905 19.631 13.135 18.8077L16.1784 21.851C16.3355 22.0028 16.546 22.0868 16.7645 22.0849C16.983 22.083 17.192 21.9954 17.3465 21.8409C17.501 21.6864 17.5887 21.4774 17.5906 21.2589C17.5925 21.0404 17.5085 20.8299 17.3567 20.6727L14.3134 17.6294C15.0125 16.7422 15.4893 15.7008 15.7041 14.5919C15.9189 13.483 15.8654 12.3388 15.548 11.2548C15.2307 10.1708 14.6587 9.17838 13.8798 8.36038C13.1009 7.54239 12.1377 6.92252 11.0705 6.5525C10.0033 6.18248 8.86314 6.07302 7.74506 6.23328C6.62698 6.39353 5.56343 6.81883 4.64315 7.47372C3.72287 8.1286 2.97254 8.99406 2.45477 9.9979ZM8.71274 9.65787C8.54698 9.65787 8.38801 9.72372 8.2708 9.84093C8.15359 9.95814 8.08774 10.1171 8.08774 10.2829C8.08774 10.4486 8.15359 10.6076 8.2708 10.7248C8.38801 10.842 8.54698 10.9079 8.71274 10.9079C9.32053 10.9079 9.90342 11.1493 10.3332 11.5791C10.763 12.0089 11.0044 12.5917 11.0044 13.1995C11.0044 13.3653 11.0703 13.5243 11.1875 13.6415C11.3047 13.7587 11.4636 13.8245 11.6294 13.8245C11.7952 13.8245 11.9541 13.7587 12.0713 13.6415C12.1886 13.5243 12.2544 13.3653 12.2544 13.1995C12.2544 12.2602 11.8813 11.3594 11.2171 10.6952C10.5529 10.031 9.65205 9.65787 8.71274 9.65787Z" fill="#2D4354"/>
</svg>
