<svg width="20" height="29" viewBox="0 0 20 29" fill="none" xmlns="http://www.w3.org/2000/svg">
<path fillRule="evenodd" clipRule="evenodd" d="M2.45458 9.9979C1.93681 11.0017 1.6666 12.1148 1.6665 13.2444C1.66641 14.5743 2.04076 15.8775 2.7467 17.0046C3.45263 18.1318 4.46164 19.0374 5.65825 19.6179C6.85486 20.1983 8.19071 20.4302 9.51294 20.2869C10.8352 20.1437 12.0904 19.631 13.1348 18.8077L16.1782 21.851C16.3353 22.0028 16.5458 22.0868 16.7643 22.0849C16.9828 22.083 17.1918 21.9954 17.3464 21.8409C17.5009 21.6864 17.5885 21.4774 17.5904 21.2589C17.5923 21.0404 17.5083 20.8299 17.3565 20.6727L14.3132 17.6294C15.0123 16.7422 15.4892 15.7008 15.7039 14.5919C15.9187 13.483 15.8652 12.3388 15.5478 11.2548C15.2305 10.1708 14.6585 9.17838 13.8796 8.36038C13.1007 7.54239 12.1375 6.92252 11.0703 6.5525C10.0031 6.18248 8.86295 6.07302 7.74487 6.23328C6.62679 6.39353 5.56325 6.81883 4.64297 7.47372C3.72268 8.1286 2.97236 8.99406 2.45458 9.9979ZM8.71256 9.65787C8.54679 9.65787 8.38782 9.72372 8.27061 9.84093C8.1534 9.95814 8.08756 10.1171 8.08756 10.2829C8.08756 10.4486 8.1534 10.6076 8.27061 10.7248C8.38782 10.842 8.54679 10.9079 8.71256 10.9079C9.32034 10.9079 9.90324 11.1493 10.333 11.5791C10.7628 12.0089 11.0042 12.5917 11.0042 13.1995C11.0042 13.3653 11.0701 13.5243 11.1873 13.6415C11.3045 13.7587 11.4635 13.8245 11.6292 13.8245C11.795 13.8245 11.954 13.7587 12.0712 13.6415C12.1884 13.5243 12.2542 13.3653 12.2542 13.1995C12.2542 12.2602 11.8811 11.3594 11.2169 10.6952C10.5527 10.031 9.65186 9.65787 8.71256 9.65787Z" fill="#ACB8C1"/>
</svg>
