<svg width="32" height="33" viewBox="0 0 32 33" fill="none" xmlns="http://www.w3.org/2000/svg">
<path d="M0 16.4944C0 7.65783 7.16344 0.494385 16 0.494385C24.8366 0.494385 32 7.65783 32 16.4944C32 25.3309 24.8366 32.4944 16 32.4944C7.16344 32.4944 0 25.3309 0 16.4944Z" fill="#261A40"/>
<g clip-path="url(#clip0_566_8136)">
<path d="M16.1235 8.49731C19.639 8.49731 22.1137 11.0504 22.1137 14.7292V16.2569H19.0891V14.7292C19.0891 12.7591 17.8911 11.5127 16.1235 11.5127C14.3559 11.5127 13.1579 12.739 13.1579 14.7292H10.1333C10.1333 11.0504 12.6276 8.49731 16.1235 8.49731ZM10.1333 24.0568H22.1333V21.0615H13.8452L18.1071 16.277H14.3952L10.1333 21.0615V24.0568Z" fill="white"/>
</g>
<defs>
<clipPath id="clip0_566_8136">
<rect width="16" height="16" fill="white" transform="translate(8 8.49438)"/>
</clipPath>
</defs>
</svg>
