<svg width="249" height="73" viewBox="0 0 249 73" fill="none" xmlns="http://www.w3.org/2000/svg">
<path fillRule="evenodd" clipRule="evenodd" d="M4.00016 66.3221C2.5274 66.3221 1.3335 67.516 1.3335 68.9888C1.3335 70.4615 2.5274 71.6555 4.00016 71.6555C5.47292 71.6555 6.66683 70.4615 6.66683 68.9888C6.66683 67.516 5.47292 66.3221 4.00016 66.3221ZM4.00016 64.2507C4.27631 64.2507 4.50016 64.0268 4.50016 63.7507V61.6555C4.50016 61.3793 4.27631 61.1555 4.00016 61.1555C3.72402 61.1555 3.50016 61.3793 3.50016 61.6555V63.7507C3.50016 64.0268 3.72402 64.2507 4.00016 64.2507ZM4.00016 57.965C4.27631 57.965 4.50016 57.7411 4.50016 57.465V55.3697C4.50016 55.0936 4.27631 54.8697 4.00016 54.8697C3.72402 54.8697 3.50016 55.0936 3.50016 55.3697V57.465C3.50016 57.7411 3.72402 57.965 4.00016 57.965ZM4.00016 51.6793C4.27631 51.6793 4.50016 51.4554 4.50016 51.1793V49.084C4.50016 48.8079 4.27631 48.584 4.00016 48.584C3.72402 48.584 3.50016 48.8079 3.50016 49.084V51.1793C3.50016 51.4554 3.72402 51.6793 4.00016 51.6793ZM4.00016 45.3936C4.27631 45.3936 4.50016 45.1697 4.50016 44.8936V42.7983C4.50016 42.5222 4.27631 42.2983 4.00016 42.2983C3.72402 42.2983 3.50016 42.5222 3.50016 42.7983V44.8936C3.50016 45.1697 3.72402 45.3936 4.00016 45.3936ZM4.00016 39.1078C4.27631 39.1078 4.50016 38.884 4.50016 38.6078V36.5126C4.50016 36.2365 4.27631 36.0126 4.00016 36.0126C3.72402 36.0126 3.50016 36.2365 3.50016 36.5126V38.6078C3.50016 38.884 3.72402 39.1078 4.00016 39.1078ZM4.00016 32.8221C4.27631 32.8221 4.50016 32.5983 4.50016 32.3221V30.2269C4.50016 29.9507 4.27631 29.7269 4.00016 29.7269C3.72402 29.7269 3.50016 29.9507 3.50016 30.2269V32.3221C3.50016 32.5983 3.72402 32.8221 4.00016 32.8221ZM4.00016 26.5364C4.27631 26.5364 4.50016 26.3126 4.50016 26.0364V24.9888C4.50016 24.6476 4.51118 24.3091 4.53286 23.9736C4.55067 23.698 4.34171 23.4602 4.06615 23.4424C3.79058 23.4246 3.55275 23.6335 3.53494 23.9091C3.51187 24.2661 3.50016 24.6261 3.50016 24.9888V26.0364C3.50016 26.3126 3.72402 26.5364 4.00016 26.5364ZM4.68464 20.3173C4.94613 20.4061 5.23005 20.2661 5.3188 20.0046C5.53743 19.3604 5.79729 18.7352 6.09525 18.1321C6.21757 17.8845 6.11603 17.5847 5.86846 17.4624C5.62089 17.34 5.32103 17.4416 5.19871 17.6892C4.88144 18.3313 4.6047 18.9971 4.37185 19.6832C4.2831 19.9447 4.42314 20.2286 4.68464 20.3173ZM7.64069 14.815C7.84824 14.9971 8.16415 14.9765 8.3463 14.769C8.79267 14.2604 9.27179 13.7813 9.78037 13.3349C9.98792 13.1528 10.0085 12.8369 9.82634 12.6293C9.64419 12.4218 9.32828 12.4012 9.12073 12.5833C8.57954 13.0583 8.06971 13.5682 7.59472 14.1094C7.41257 14.3169 7.43315 14.6328 7.64069 14.815ZM245.172 12.5243L248.354 9.34234C248.549 9.14708 248.549 8.8305 248.354 8.63523L245.172 5.45325C244.976 5.258 244.66 5.258 244.465 5.45325C244.269 5.64851 244.269 5.9651 244.465 6.16036L246.396 8.09178C246.597 8.29251 246.5 8.70491 246.5 8.98879C246.5 9.27266 246.597 9.68507 246.396 9.8858L244.465 11.8172C244.269 12.0125 244.269 12.3291 244.465 12.5243C244.66 12.7196 244.976 12.7196 245.172 12.5243ZM12.4737 10.8571C12.5961 11.1047 12.8959 11.2062 13.1435 11.0839C13.7466 10.7859 14.3717 10.5261 15.0159 10.3074C15.2774 10.2187 15.4175 9.93476 15.3287 9.67326C15.24 9.41177 14.9561 9.27173 14.6946 9.36048C14.0085 9.59333 13.3427 9.87007 12.7005 10.1873C12.453 10.3097 12.3514 10.6095 12.4737 10.8571ZM18.4538 9.05477C18.4716 9.33034 18.7094 9.5393 18.985 9.52149C19.3205 9.49981 19.659 9.48879 20.0002 9.48879H21.0002C21.2763 9.48879 21.5002 9.26493 21.5002 8.98879C21.5002 8.71265 21.2763 8.48879 21.0002 8.48879H20.0002C19.6375 8.48879 19.2775 8.5005 18.9205 8.52357C18.6449 8.54138 18.4359 8.77921 18.4538 9.05477ZM24.5002 8.98879C24.5002 9.26493 24.724 9.48879 25.0002 9.48879H27.0002C27.2763 9.48879 27.5002 9.26493 27.5002 8.98879C27.5002 8.71265 27.2763 8.48879 27.0002 8.48879H25.0002C24.724 8.48879 24.5002 8.71265 24.5002 8.98879ZM30.5002 8.98879C30.5002 9.26493 30.724 9.48879 31.0002 9.48879H33.0002C33.2763 9.48879 33.5002 9.26493 33.5002 8.98879C33.5002 8.71265 33.2763 8.48879 33.0002 8.48879H31.0002C30.724 8.48879 30.5002 8.71265 30.5002 8.98879ZM36.5002 8.98879C36.5002 9.26493 36.724 9.48879 37.0002 9.48879H39.0002C39.2763 9.48879 39.5002 9.26493 39.5002 8.98879C39.5002 8.71265 39.2763 8.48879 39.0002 8.48879H37.0002C36.724 8.48879 36.5002 8.71265 36.5002 8.98879ZM42.5002 8.98879C42.5002 9.26493 42.724 9.48879 43.0002 9.48879H45.0002C45.2763 9.48879 45.5002 9.26493 45.5002 8.98879C45.5002 8.71265 45.2763 8.48879 45.0002 8.48879H43.0002C42.724 8.48879 42.5002 8.71265 42.5002 8.98879ZM48.5002 8.98879C48.5002 9.26493 48.724 9.48879 49.0002 9.48879H51.0002C51.2763 9.48879 51.5002 9.26493 51.5002 8.98879C51.5002 8.71265 51.2763 8.48879 51.0002 8.48879H49.0002C48.724 8.48879 48.5002 8.71265 48.5002 8.98879ZM54.5002 8.98879C54.5002 9.26493 54.724 9.48879 55.0002 9.48879H57.0002C57.2763 9.48879 57.5002 9.26493 57.5002 8.98879C57.5002 8.71265 57.2763 8.48879 57.0002 8.48879H55.0002C54.724 8.48879 54.5002 8.71265 54.5002 8.98879ZM60.5002 8.98879C60.5002 9.26493 60.724 9.48879 61.0002 9.48879H63.0002C63.2763 9.48879 63.5002 9.26493 63.5002 8.98879C63.5002 8.71265 63.2763 8.48879 63.0002 8.48879H61.0002C60.724 8.48879 60.5002 8.71265 60.5002 8.98879ZM66.5002 8.98879C66.5002 9.26493 66.724 9.48879 67.0002 9.48879H69.0002C69.2763 9.48879 69.5002 9.26493 69.5002 8.98879C69.5002 8.71265 69.2763 8.48879 69.0002 8.48879H67.0002C66.724 8.48879 66.5002 8.71265 66.5002 8.98879ZM72.5002 8.98879C72.5002 9.26493 72.724 9.48879 73.0002 9.48879H75.0002C75.2763 9.48879 75.5002 9.26493 75.5002 8.98879C75.5002 8.71265 75.2763 8.48879 75.0002 8.48879H73.0002C72.724 8.48879 72.5002 8.71265 72.5002 8.98879ZM78.5002 8.98879C78.5002 9.26493 78.724 9.48879 79.0002 9.48879H81.0002C81.2763 9.48879 81.5002 9.26493 81.5002 8.98879C81.5002 8.71265 81.2763 8.48879 81.0002 8.48879H79.0002C78.724 8.48879 78.5002 8.71265 78.5002 8.98879ZM84.5002 8.98879C84.5002 9.26493 84.724 9.48879 85.0002 9.48879H87.0002C87.2763 9.48879 87.5002 9.26493 87.5002 8.98879C87.5002 8.71265 87.2763 8.48879 87.0002 8.48879H85.0002C84.724 8.48879 84.5002 8.71265 84.5002 8.98879ZM90.5002 8.98879C90.5002 9.26493 90.724 9.48879 91.0002 9.48879H93.0002C93.2763 9.48879 93.5002 9.26493 93.5002 8.98879C93.5002 8.71265 93.2763 8.48879 93.0002 8.48879H91.0002C90.724 8.48879 90.5002 8.71265 90.5002 8.98879ZM96.5002 8.98879C96.5002 9.26493 96.724 9.48879 97.0002 9.48879H99.0002C99.2763 9.48879 99.5002 9.26493 99.5002 8.98879C99.5002 8.71265 99.2763 8.48879 99.0002 8.48879H97.0002C96.724 8.48879 96.5002 8.71265 96.5002 8.98879ZM102.5 8.98879C102.5 9.26493 102.724 9.48879 103 9.48879H105C105.276 9.48879 105.5 9.26493 105.5 8.98879C105.5 8.71265 105.276 8.48879 105 8.48879H103C102.724 8.48879 102.5 8.71265 102.5 8.98879ZM108.5 8.98879C108.5 9.26493 108.724 9.48879 109 9.48879H111C111.276 9.48879 111.5 9.26493 111.5 8.98879C111.5 8.71265 111.276 8.48879 111 8.48879H109C108.724 8.48879 108.5 8.71265 108.5 8.98879ZM114.5 8.98879C114.5 9.26493 114.724 9.48879 115 9.48879H117C117.276 9.48879 117.5 9.26493 117.5 8.98879C117.5 8.71265 117.276 8.48879 117 8.48879H115C114.724 8.48879 114.5 8.71265 114.5 8.98879ZM120.5 8.98879C120.5 9.26493 120.724 9.48879 121 9.48879H123C123.276 9.48879 123.5 9.26493 123.5 8.98879C123.5 8.71265 123.276 8.48879 123 8.48879H121C120.724 8.48879 120.5 8.71265 120.5 8.98879ZM126.5 8.98879C126.5 9.26493 126.724 9.48879 127 9.48879H129C129.276 9.48879 129.5 9.26493 129.5 8.98879C129.5 8.71265 129.276 8.48879 129 8.48879H127C126.724 8.48879 126.5 8.71265 126.5 8.98879ZM132.5 8.98879C132.5 9.26493 132.724 9.48879 133 9.48879H135C135.276 9.48879 135.5 9.26493 135.5 8.98879C135.5 8.71265 135.276 8.48879 135 8.48879H133C132.724 8.48879 132.5 8.71265 132.5 8.98879ZM138.5 8.98879C138.5 9.26493 138.724 9.48879 139 9.48879H141C141.276 9.48879 141.5 9.26493 141.5 8.98879C141.5 8.71265 141.276 8.48879 141 8.48879H139C138.724 8.48879 138.5 8.71265 138.5 8.98879ZM144.5 8.98879C144.5 9.26493 144.724 9.48879 145 9.48879H147C147.276 9.48879 147.5 9.26493 147.5 8.98879C147.5 8.71265 147.276 8.48879 147 8.48879H145C144.724 8.48879 144.5 8.71265 144.5 8.98879ZM150.5 8.98879C150.5 9.26493 150.724 9.48879 151 9.48879H153C153.276 9.48879 153.5 9.26493 153.5 8.98879C153.5 8.71265 153.276 8.48879 153 8.48879H151C150.724 8.48879 150.5 8.71265 150.5 8.98879ZM156.5 8.98879C156.5 9.26493 156.724 9.48879 157 9.48879H159C159.276 9.48879 159.5 9.26493 159.5 8.98879C159.5 8.71265 159.276 8.48879 159 8.48879H157C156.724 8.48879 156.5 8.71265 156.5 8.98879ZM162.5 8.98879C162.5 9.26493 162.724 9.48879 163 9.48879H165C165.276 9.48879 165.5 9.26493 165.5 8.98879C165.5 8.71265 165.276 8.48879 165 8.48879H163C162.724 8.48879 162.5 8.71265 162.5 8.98879ZM168.5 8.98879C168.5 9.26493 168.724 9.48879 169 9.48879H171C171.276 9.48879 171.5 9.26493 171.5 8.98879C171.5 8.71265 171.276 8.48879 171 8.48879H169C168.724 8.48879 168.5 8.71265 168.5 8.98879ZM174.5 8.98879C174.5 9.26493 174.724 9.48879 175 9.48879H177C177.276 9.48879 177.5 9.26493 177.5 8.98879C177.5 8.71265 177.276 8.48879 177 8.48879H175C174.724 8.48879 174.5 8.71265 174.5 8.98879ZM180.5 8.98879C180.5 9.26493 180.724 9.48879 181 9.48879H183C183.276 9.48879 183.5 9.26493 183.5 8.98879C183.5 8.71265 183.276 8.48879 183 8.48879H181C180.724 8.48879 180.5 8.71265 180.5 8.98879ZM186.5 8.98879C186.5 9.26493 186.724 9.48879 187 9.48879H189C189.276 9.48879 189.5 9.26493 189.5 8.98879C189.5 8.71265 189.276 8.48879 189 8.48879H187C186.724 8.48879 186.5 8.71265 186.5 8.98879ZM192.5 8.98879C192.5 9.26493 192.724 9.48879 193 9.48879H195C195.276 9.48879 195.5 9.26493 195.5 8.98879C195.5 8.71265 195.276 8.48879 195 8.48879H193C192.724 8.48879 192.5 8.71265 192.5 8.98879ZM198.5 8.98879C198.5 9.26493 198.724 9.48879 199 9.48879H201C201.276 9.48879 201.5 9.26493 201.5 8.98879C201.5 8.71265 201.276 8.48879 201 8.48879H199C198.724 8.48879 198.5 8.71265 198.5 8.98879ZM204.5 8.98879C204.5 9.26493 204.724 9.48879 205 9.48879H207C207.276 9.48879 207.5 9.26493 207.5 8.98879C207.5 8.71265 207.276 8.48879 207 8.48879H205C204.724 8.48879 204.5 8.71265 204.5 8.98879ZM210.5 8.98879C210.5 9.26493 210.724 9.48879 211 9.48879H213C213.276 9.48879 213.5 9.26493 213.5 8.98879C213.5 8.71265 213.276 8.48879 213 8.48879H211C210.724 8.48879 210.5 8.71265 210.5 8.98879ZM216.5 8.98879C216.5 9.26493 216.724 9.48879 217 9.48879H219C219.276 9.48879 219.5 9.26493 219.5 8.98879C219.5 8.71265 219.276 8.48879 219 8.48879H217C216.724 8.48879 216.5 8.71265 216.5 8.98879ZM222.5 8.98879C222.5 9.26493 222.724 9.48879 223 9.48879H225C225.276 9.48879 225.5 9.26493 225.5 8.98879C225.5 8.71265 225.276 8.48879 225 8.48879H223C222.724 8.48879 222.5 8.71265 222.5 8.98879ZM228.5 8.98879C228.5 9.26493 228.724 9.48879 229 9.48879H231C231.276 9.48879 231.5 9.26493 231.5 8.98879C231.5 8.71265 231.276 8.48879 231 8.48879H229C228.724 8.48879 228.5 8.71265 228.5 8.98879ZM234.5 8.98879C234.5 9.26493 234.724 9.48879 235 9.48879H237C237.276 9.48879 237.5 9.26493 237.5 8.98879C237.5 8.71265 237.276 8.48879 237 8.48879H235C234.724 8.48879 234.5 8.71265 234.5 8.98879ZM240.5 8.98879C240.5 9.26493 240.724 9.48879 241 9.48879H243C243.276 9.48879 243.5 9.26493 243.5 8.98879C243.5 8.71265 243.276 8.48879 243 8.48879H241C240.724 8.48879 240.5 8.71265 240.5 8.98879Z" fill="#758692"/>
</svg>
