<svg width="1024" height="1024" viewBox="0 0 1024 1024" fill="none" xmlns="http://www.w3.org/2000/svg">
<g clip-path="url(#clip0_402_18576)">
<rect width="1024" height="1024" fill="#0E1419"/>
<g opacity="0.32" filter="url(#filter0_f_402_18576)">
<ellipse cx="496.082" cy="520.281" rx="496.082" ry="520.281" transform="matrix(1 0 0 -1 -418 675.562)" fill="#2AB7C0"/>
</g>
<g opacity="0.32" filter="url(#filter1_f_402_18576)">
<ellipse cx="500.115" cy="520.281" rx="500.115" ry="520.281" transform="matrix(1 0 0 -1 404.77 1385.4)" fill="#1E52C8"/>
</g>
<path d="M685.886 515.468V736.18C685.886 746.58 677.797 754.669 667.397 754.669H608.463C598.063 754.669 589.974 746.58 589.974 736.18V557.068C589.974 532.801 583.041 513.157 568.019 499.29C556.463 487.734 542.597 480.801 525.263 478.49C520.641 477.334 517.174 477.334 512.552 477.334C489.441 477.334 470.952 484.268 455.93 499.29C440.908 513.157 433.974 532.801 433.974 557.068V735.024C433.974 745.424 425.886 753.513 415.486 753.513H356.552C346.152 753.513 338.063 745.424 338.063 735.024V287.822C338.063 277.422 346.152 269.333 356.552 269.333H415.486C425.886 269.333 433.974 277.422 433.974 287.822V368.712L380.289 465.115L474.419 389.512L496.374 374.489C507.93 366.4 524.108 366.4 535.663 374.489L669.708 477.334C678.952 484.268 685.475 492.816 685.886 505.751C685.999 509.338 685.886 512.001 685.886 515.468Z" fill="#1B2832"/>
<path d="M685.886 515.468V736.18C685.886 746.58 677.797 754.669 667.397 754.669H608.463C598.063 754.669 589.974 746.58 589.974 736.18V557.068C589.974 532.801 583.041 513.157 568.019 499.29C556.463 487.734 542.597 480.801 525.263 478.49C520.641 477.334 517.174 477.334 512.552 477.334C489.441 477.334 470.952 484.268 455.93 499.29C440.908 513.157 433.974 532.801 433.974 557.068V735.024C433.974 745.424 425.886 753.513 415.486 753.513H356.552C346.152 753.513 338.063 745.424 338.063 735.024V287.822C338.063 277.422 346.152 269.333 356.552 269.333H415.486C425.886 269.333 433.974 277.422 433.974 287.822V368.712L380.289 465.115L474.419 389.512L496.374 374.489C507.93 366.4 524.108 366.4 535.663 374.489L669.708 477.334C678.952 484.268 685.475 492.816 685.886 505.751C685.999 509.338 685.886 512.001 685.886 515.468Z" fill="white"/>
</g>
<defs>
<filter id="filter0_f_402_18576" x="-918" y="-865" width="1992.16" height="2040.56" filterUnits="userSpaceOnUse" color-interpolation-filters="sRGB">
<feFlood flood-opacity="0" result="BackgroundImageFix"/>
<feBlend mode="normal" in="SourceGraphic" in2="BackgroundImageFix" result="shape"/>
<feGaussianBlur stdDeviation="250" result="effect1_foregroundBlur_402_18576"/>
</filter>
<filter id="filter1_f_402_18576" x="-95.23" y="-155.159" width="2000.23" height="2040.56" filterUnits="userSpaceOnUse" color-interpolation-filters="sRGB">
<feFlood flood-opacity="0" result="BackgroundImageFix"/>
<feBlend mode="normal" in="SourceGraphic" in2="BackgroundImageFix" result="shape"/>
<feGaussianBlur stdDeviation="250" result="effect1_foregroundBlur_402_18576"/>
</filter>
<clipPath id="clip0_402_18576">
<rect width="1024" height="1024" fill="white"/>
</clipPath>
</defs>
</svg>
