<svg width="373" height="72" viewBox="0 0 373 72" fill="none" xmlns="http://www.w3.org/2000/svg">
<path d="M23.6296 70.8903H9.57454V35.9462H0V24.5692H9.57416V16.4736C9.57416 6.88026 13.8088 0 27.8258 0C30.7904 0 35.4447 0.595954 35.4447 0.595954V11.1602H30.5562C25.5751 11.1602 23.6303 12.6713 23.6303 16.8489V24.5692H35.2582L34.2228 35.9462H23.6299L23.6296 70.8903ZM55.8791 23.66C55.6744 23.66 55.4636 23.6674 55.2551 23.6726C42.2225 23.6726 36.2597 33.4497 36.2597 47.3285C36.2597 64.8121 43.9942 71.8095 55.3569 71.8095C61.858 71.8095 66.1292 69.0805 68.7253 63.9877V70.8951H82.0936V24.574H68.7253V31.6976C66.6055 27.1144 62.2149 23.7143 55.8791 23.66ZM59.2783 34.6055C64.7521 34.6055 68.0374 38.4134 68.0374 44.8904L68.0501 51.5058C68.0501 55.8713 65.3365 60.9786 59.2783 60.9786C49.9645 60.9786 50.2133 50.9485 50.2133 47.6079C50.2133 36.3707 55.1757 34.6055 59.2783 34.6055ZM87.4924 47.737C87.4924 42.1082 87.2223 23.6901 111.282 23.6901C120.94 23.6901 124.973 26.7528 124.973 26.7528L121.732 36.7795C121.732 36.7795 117.704 34.5676 112.456 34.5676C105.734 34.5676 101.445 38.4539 101.445 45.2918L101.453 50.1948C101.453 56.7652 105.591 61.1512 112.47 61.1512C117.251 61.1512 121.658 58.9184 121.658 58.9184L124.891 68.7356C124.891 68.7356 121.203 71.8177 111.35 71.8177C88.4409 71.8177 87.4927 55.2932 87.4927 47.737H87.4924ZM203.357 23.6726C216.39 23.6726 222.446 33.4497 222.446 47.3285C222.446 64.8121 214.711 71.8095 203.349 71.8095C196.848 71.8095 192.042 69.0809 189.446 63.9877V70.8951L176.246 70.8899V1.40842L190.261 0.189351V31.07C192.284 25.6673 198.931 23.6726 203.357 23.6726ZM199.427 34.6055C193.954 34.6055 190.261 38.4134 190.261 44.8904L190.248 51.5058C190.24 55.8713 192.805 60.9786 199.427 60.9786C208.741 60.9786 208.492 50.9485 208.492 47.6079C208.492 36.3707 203.53 34.6055 199.427 34.6055ZM149.291 23.711C134.509 23.711 126.705 31.7489 126.705 46.0332V48.6871C126.705 67.2268 137.664 72 150.729 72C163.429 72 169.177 68.4574 169.177 68.4574L166.555 59.0233C166.555 59.0233 159.793 61.8926 152.41 61.8926C144.756 61.8926 141.464 59.947 140.62 52.611H170.298V45.0426C170.298 29.5477 161.539 23.7106 149.29 23.7106L149.291 23.711ZM149.647 33.1577C154.764 33.1577 158.079 36.287 157.897 43.5445H140.646C140.945 35.9061 144.521 33.1577 149.647 33.1577ZM250.392 23.6473C235.212 23.6473 227.22 32.1789 227.22 47.468C227.22 68.4455 240.996 71.8222 250.417 71.8222C264.209 71.8222 273.385 64.4166 273.385 47.6585C273.385 30.2162 263.068 23.6473 250.392 23.6473ZM250.201 34.6435C256.876 34.6435 259.521 39.6258 259.521 45.297V50.1729C259.521 57.0431 255.82 61.0169 250.176 61.0169C244.897 61.0169 241.187 57.2998 241.187 50.1729V45.297C241.187 37.6962 245.602 34.6435 250.201 34.6435ZM301.306 23.6473C286.126 23.6473 278.134 32.1789 278.134 47.468C278.134 68.4455 291.91 71.8222 301.331 71.8222C315.123 71.8222 324.299 64.4166 324.299 47.6585C324.299 30.2162 313.981 23.6473 301.306 23.6473ZM301.115 34.6435C307.79 34.6435 310.434 39.6258 310.434 45.297V50.1729C310.434 57.0431 306.733 61.0169 301.089 61.0169C295.811 61.0169 292.101 57.2998 292.101 50.1729V45.297C292.101 37.6962 296.515 34.6435 301.115 34.6435ZM329.595 70.8903V1.40842L343.651 0.189351V46.7605L357.596 24.5692H372.44L357.893 47.5528L373 70.8903H358.114L343.651 48.2299V70.8903H329.595Z" fill="#1877F2"/>
</svg>
