<svg width="261" height="72" viewBox="0 0 261 72" fill="none" xmlns="http://www.w3.org/2000/svg">
<path d="M261 67.6261C261 69.1402 259.748 70.3177 258.138 70.3177H249.193C247.583 70.3177 246.331 69.1402 246.331 67.6261V65.271C240.964 69.6448 234.703 71.8317 227.547 71.8317C223.254 71.8317 219.318 70.9906 215.383 69.4766C211.626 67.9626 208.227 65.9439 205.544 63.2523C202.861 60.729 200.535 57.701 198.925 54.1683C197.315 50.6356 196.599 46.9347 196.599 43.0655C196.599 39.1964 197.315 35.4954 198.925 31.9628C200.535 28.4301 202.682 25.402 205.544 22.7105C208.227 20.1871 211.626 18.0002 215.383 16.4862C219.14 14.9722 223.254 14.1311 227.547 14.1311C234.524 14.1311 240.785 16.318 246.152 20.5236V2.86009C246.152 1.34608 247.404 0.168518 249.014 0.168518H258.138C259.748 0.168518 261 1.34608 261 2.86009V67.6261ZM246.51 43.0655C246.51 38.3553 244.721 34.4861 241.322 31.2899C237.923 28.0936 233.809 26.4114 228.8 26.4114C223.97 26.4114 219.855 28.0936 216.456 31.2899C213.057 34.4861 211.268 38.5235 211.268 43.0655C211.268 47.6075 213.057 51.6449 216.456 54.8412C219.855 58.0374 223.97 59.7196 228.8 59.7196C233.63 59.7196 237.744 58.0374 241.143 54.8412C244.721 51.6449 246.51 47.6075 246.51 43.0655Z" fill="white"/>
<path d="M188.374 67.6261C188.374 69.1402 187.121 70.3177 185.511 70.3177H176.567C174.957 70.3177 173.705 69.1402 173.705 67.6261V65.271C168.338 69.6448 162.077 71.8317 154.921 71.8317C150.628 71.8317 146.692 70.9906 142.756 69.4766C139 67.9626 135.601 65.9439 132.917 63.2523C130.234 60.729 127.909 57.701 126.299 54.1683C124.689 50.6356 123.973 46.9347 123.973 43.0655C123.973 39.1964 124.689 35.4954 126.299 31.9628C127.909 28.4301 130.055 25.402 132.917 22.7105C135.601 20.1871 139 18.0002 142.756 16.4862C146.513 14.9722 150.628 14.1311 154.921 14.1311C161.898 14.1311 168.159 16.318 173.526 20.5236V2.86009C173.526 1.34608 174.778 0.168518 176.388 0.168518H185.511C187.121 0.168518 188.374 1.34608 188.374 2.86009V67.6261ZM173.883 43.0655C173.883 38.3553 172.095 34.4861 168.696 31.2899C165.297 28.0936 161.182 26.4114 156.173 26.4114C151.343 26.4114 147.229 28.0936 143.83 31.2899C140.431 34.4861 138.642 38.5235 138.642 43.0655C138.642 47.6075 140.431 51.6449 143.83 54.8412C147.229 58.0374 151.343 59.7196 156.173 59.7196C161.003 59.7196 165.118 58.0374 168.517 54.8412C172.095 51.6449 173.883 47.6075 173.883 43.0655Z" fill="white"/>
<path d="M62.2539 50.6356V16.8227C62.2539 15.3087 63.5061 14.1311 65.1161 14.1311H74.2396C75.8496 14.1311 77.1018 15.3087 77.1018 16.8227V47.944C77.1018 51.3085 78.1752 54.1683 80.5007 56.3552C82.6474 58.5421 85.6886 59.7197 89.2664 59.7197C92.8442 59.7197 95.7064 58.7104 98.032 56.5234C100.358 54.3365 101.431 51.4767 101.431 48.1123V16.8227C101.431 15.3087 102.683 14.1311 104.293 14.1311H113.417C115.027 14.1311 116.279 15.3087 116.279 16.8227V67.9626C116.279 69.4766 115.027 70.6542 113.417 70.6542H104.293C102.683 70.6542 101.431 69.4766 101.431 67.9626V65.7757C97.1376 69.8131 91.9497 72 85.5097 72C78.8907 72 73.3451 69.9813 69.0517 65.944C64.4006 61.5701 62.2539 56.6917 62.2539 50.6356Z" fill="white"/>
<path d="M53.8461 35.8316V67.9623C53.8461 69.4763 52.5938 70.6539 50.9838 70.6539H41.8604C40.2504 70.6539 38.9981 69.4763 38.9981 67.9623V41.8876C38.9981 38.355 37.9248 35.4952 35.5992 33.4765C33.8103 31.7942 31.6636 30.7849 28.9803 30.4485C28.2647 30.2802 27.728 30.2802 27.0125 30.2802C23.4347 30.2802 20.5724 31.2896 18.2468 33.4765C15.9213 35.4952 14.8479 38.355 14.8479 41.8876V67.7941C14.8479 69.3081 13.5957 70.4856 11.9857 70.4856H2.86225C1.25223 70.4856 0 69.3081 0 67.7941V2.69158C0 1.17756 1.25223 0 2.86225 0H11.9857C13.5957 0 14.8479 1.17756 14.8479 2.69158V14.4672L6.53693 28.5013L21.1091 17.4952L24.508 15.3083C26.2969 14.1308 28.8014 14.1308 30.5903 15.3083L51.3416 30.2802C52.7727 31.2896 53.7825 32.5341 53.8461 34.4171C53.8637 34.9393 53.8461 35.3269 53.8461 35.8316Z" fill="white"/>
</svg>
