<svg width="373" height="63" viewBox="0 0 373 63" fill="none" xmlns="http://www.w3.org/2000/svg">
<path fill-rule="evenodd" clip-rule="evenodd" d="M238.427 0.434327V61.24C238.11 61.8932 237.635 62.0349 237.086 62.0349C234.154 62.0349 231.222 62.0569 228.29 62.0256C227.066 62.0124 226.623 61.5068 226.584 60.229C226.559 59.4069 226.579 58.583 226.579 57.5275C226.189 57.8522 225.963 58.0101 225.773 58.2044C223.052 60.9882 219.741 62.5395 215.909 62.8543C207.924 63.5109 201.807 60.1682 197.466 53.5406C191.408 44.2919 192.503 31.4728 200.045 23.6757C205.505 18.0295 212.113 16.1567 219.695 18.4578C222 19.1571 223.997 20.4501 225.683 22.2077C225.861 22.3929 226.058 22.5591 226.252 22.7279C226.276 22.7484 226.332 22.7306 226.574 22.7306V3.05914C226.575 2.66658 226.57 2.27416 226.577 1.88191C226.602 0.316504 226.858 0.0321824 228.379 0.0208719C230.837 0.00296363 233.294 0.0144214 235.752 0.0147356C236.183 0.0147356 236.622 -0.0297157 237.043 0.0357909C237.484 0.103497 237.907 0.279279 238.427 0.434327ZM205.635 40.424C205.665 40.8298 205.67 41.3995 205.757 41.9566C205.877 42.7299 206.005 43.5096 206.221 44.259C207.534 48.8216 211.254 51.7896 215.985 52.0842C220.522 52.3663 224.604 49.8848 226.435 45.6317C227.914 42.1925 227.931 38.6856 226.581 35.1959C223.433 27.0573 212.926 26.4563 208.298 32.2423C206.422 34.5882 205.704 37.3092 205.635 40.424ZM26.3253 61.7619C25.6655 61.8739 25.1749 62.0252 24.6829 62.0292C21.9245 62.0531 19.1661 62.0481 16.4077 62.0393C14.6577 62.0338 14.4424 61.8063 14.4409 59.9545C14.4356 53.6768 14.4385 47.3991 14.4381 41.1219C14.4381 40.7294 14.4486 40.3363 14.4295 39.9447C14.3755 38.8507 14.0958 38.4932 13.064 38.1646C11.7091 37.7326 10.322 37.3835 9.00452 36.8563C4.3896 35.0096 1.5735 31.6005 0.719442 26.6442C0.372788 24.6323 0.228193 22.5837 0.0311033 20.5477C-0.0310212 19.9063 -0.0757508 19.2174 0.683566 18.6789H11.5959C12.3774 19.1554 12.3286 19.7866 12.3867 20.3956C12.5226 21.8242 12.5902 23.2715 12.883 24.6686C13.0541 25.4847 13.4783 26.3278 14.0125 26.9675C15.0528 28.2129 16.5638 28.0764 17.4769 26.7534C22.1903 19.9242 28.7996 16.9516 36.8793 17.0196C42.5182 17.0672 47.5594 18.8533 51.8134 22.6445C56.0081 26.383 58.2806 31.1437 58.3745 36.7839C58.5047 44.585 58.414 52.3897 58.4044 60.1935C58.4026 61.7038 58.0711 62.0274 56.5619 62.0365C53.8036 62.0523 51.0451 62.0498 48.2868 62.0385C46.6142 62.0319 46.3343 61.7529 46.3322 60.0493C46.3233 53.205 46.3124 46.3604 46.3362 39.5162C46.3432 37.468 45.99 35.531 44.9999 33.7307C42.7929 29.7174 38.8931 27.8184 34.462 28.6012C30.5084 29.2995 27.3162 32.7105 26.6552 37.0013C26.5096 37.9445 26.4536 38.9101 26.4511 39.8657C26.4334 46.4482 26.4441 53.0311 26.4359 59.6137C26.4352 60.2568 26.3716 60.9001 26.3253 61.7619ZM97.0972 47.8453C99.4568 49.1877 104.708 53.5681 105.174 54.534C105.05 55.5117 104.283 56.0658 103.617 56.6572C99.9248 59.9355 95.6321 61.973 90.7807 62.6826C85.502 63.4547 80.3596 62.8557 75.526 60.4734C69.1398 57.3267 65.1943 52.2006 63.8202 45.1364C62.7079 39.4177 63.3856 33.9082 66.2482 28.8097C69.6751 22.7058 74.9616 19.1389 81.7411 17.9123C86.7294 17.0099 91.6341 17.4441 96.2757 19.6507C102.625 22.6695 106.237 27.8104 107.297 34.7546C107.617 36.8488 107.566 39.0085 107.587 41.1392C107.603 42.7577 107.286 43.0197 105.663 43.021C96.0948 43.0282 86.5267 43.0234 76.9588 43.0295C76.3684 43.03 75.7779 43.0895 75.0236 43.1305C75.1492 43.8065 75.1926 44.3621 75.3578 44.878C76.3541 47.991 78.415 50.1897 81.4323 51.2137C86.5474 52.9499 91.3676 52.2653 95.6881 48.8223C96.1444 48.4587 96.6476 48.1546 97.0972 47.8453ZM75.5541 34.6446C77.0389 35.028 94.5434 34.9618 95.5725 34.5603C95.2008 32.7692 94.3412 31.2524 93.0038 30.0187C88.8898 26.2229 81.2245 26.6099 77.4893 30.794C76.5262 31.8729 75.7997 33.0822 75.5541 34.6446ZM267.135 62.9408C258.13 63.1666 249.105 57.3282 245.727 47.9833C240.948 34.762 249.379 20.1135 263.127 17.8842C271.414 16.5405 278.596 18.8346 284.372 25.078C293.09 34.5031 291.801 50.0417 281.72 57.951C277.484 61.2747 272.709 62.9839 267.135 62.9408ZM278.1 40.1009C278.02 39.4214 277.965 38.5055 277.798 37.6108C276.853 32.5671 273.163 29.1837 268.152 28.731C263.336 28.2957 259.023 31.014 257.26 35.6301C256.42 37.8301 256.276 40.1005 256.602 42.4374C257.635 49.8406 265.619 54.085 272.186 50.644C276.289 48.4937 277.879 44.809 278.1 40.1009ZM317.568 62.9328C308.501 63.1378 299.699 57.5721 296.156 48.6503C291.331 36.5029 297.835 22.4293 310.24 18.672C319.453 15.8815 327.713 17.8355 334.4 24.9527C344.187 35.3687 341.585 52.5606 329.282 59.7638C325.62 61.9075 321.689 63.0313 317.568 62.9328ZM328.281 40.0198C328.192 39.3201 328.12 38.4514 327.969 37.597C327.161 33.0309 323.678 29.5101 319.338 28.8442C314.426 28.0905 310.023 30.2736 307.895 34.5669C306.66 37.0599 306.398 39.6993 306.788 42.4522C307.836 49.8651 315.798 54.0886 322.374 50.6394C326.534 48.4576 328.068 44.697 328.281 40.0198ZM122.658 40.6942C122.347 40.1778 122.077 39.6876 121.769 39.2235C117.822 33.2918 113.869 27.3641 109.92 21.4343C109.655 21.0367 109.37 20.6476 109.152 20.2241C108.703 19.3502 109.037 18.6544 109.981 18.4823C110.317 18.4212 110.669 18.4367 111.013 18.4364C114.117 18.4332 117.222 18.4799 120.324 18.4124C121.552 18.3855 122.298 18.8593 122.955 19.8797C125.163 23.315 127.45 26.6987 129.71 30.0996C130.02 30.5655 130.349 31.0178 130.787 31.6444C131.14 31.1725 131.427 30.8237 131.676 30.4488C134.059 26.8679 136.459 23.299 138.795 19.6865C139.384 18.7751 140.072 18.404 141.134 18.4186C144.41 18.4639 147.687 18.4358 150.963 18.4358C151.766 18.4358 152.549 18.4703 152.835 19.753C150.722 23.1752 148.305 26.6106 145.992 30.1128C143.696 33.5887 141.385 37.0543 139.02 40.616C139.422 41.2332 139.775 41.8183 140.17 42.3736C144.12 47.9313 148.077 53.4839 152.03 59.0395C152.332 59.4638 152.661 59.8771 152.898 60.3379C153.304 61.1296 152.951 61.8316 152.091 61.9983C151.798 62.0548 151.489 62.0396 151.188 62.0402C147.912 62.0427 144.635 62.0085 141.359 62.0611C140.335 62.0775 139.688 61.7034 139.11 60.8671C136.692 57.3649 134.22 53.8998 131.763 50.4242C131.519 50.0789 131.249 49.7531 130.878 49.2732C130.519 49.7504 130.233 50.1108 129.968 50.4864C127.539 53.9279 125.089 57.3558 122.703 60.828C122.095 61.7126 121.408 62.079 120.344 62.0618C117.112 62.0076 113.878 62.0423 110.645 62.0418C110.429 62.0418 110.213 62.0473 109.998 62.0316C108.67 61.9325 108.294 61.1546 109.015 59.9875C109.174 59.729 109.36 59.4869 109.536 59.2392C113.642 53.4724 117.748 47.7061 121.851 41.9372C122.124 41.5527 122.366 41.145 122.658 40.6942ZM165.794 28.9966C165.004 28.9544 164.454 28.903 163.905 28.8995C162.095 28.8881 160.285 28.9098 158.475 28.8881C156.992 28.8705 156.555 28.4405 156.535 26.9238C156.505 24.7451 156.504 22.5652 156.535 20.3865C156.556 18.9136 157.026 18.4706 158.518 18.4425C159.94 18.4155 161.363 18.4556 162.784 18.4188C164.795 18.367 165.503 17.7612 165.696 15.7109C165.838 14.1975 165.788 12.6647 165.806 11.1405C165.819 10.0076 165.774 8.87337 165.812 7.74169C165.844 6.74809 166.179 6.37925 167.149 6.36935C170.209 6.33809 173.268 6.34075 176.327 6.37626C176.752 6.38144 177.175 6.64567 177.711 6.82837V18.267C178.353 18.3327 178.848 18.4235 179.343 18.4268C181.669 18.443 183.996 18.4244 186.323 18.4394C187.984 18.4497 188.268 18.744 188.277 20.4358C188.287 22.6585 188.279 24.8813 188.279 27.1038C188.279 27.7204 188.293 28.3425 187.681 28.9239H177.814C177.772 29.5768 177.718 30.0411 177.717 30.5061C177.711 35.126 177.686 39.7458 177.735 44.3649C177.747 45.4848 177.922 46.6239 178.181 47.7158C178.63 49.6097 179.881 50.7971 181.717 51.3551C183.788 51.9843 185.884 51.9194 187.99 51.5717C189.6 51.3066 190.019 51.6404 190.038 53.2982C190.062 55.5643 190.062 57.8307 190.036 60.0969C190.023 61.3654 189.779 61.7253 188.659 61.9527C184.464 62.8037 180.269 62.9325 176.129 61.645C169.796 59.6741 165.958 54.6042 165.831 47.8465C165.726 42.1826 165.8 36.5156 165.794 30.85C165.793 30.2903 165.794 29.7309 165.794 28.9966ZM358.014 61.8068C357.311 61.9039 356.814 62.0281 356.316 62.0318C353.601 62.0517 350.885 62.0497 348.169 62.0384C346.542 62.0318 346.284 61.7829 346.283 60.1427C346.273 52.3817 346.277 44.621 346.277 36.8599C346.277 31.4973 346.274 26.1344 346.282 20.7715C346.283 20.1697 346.344 19.5678 346.389 18.7796C346.963 18.6585 347.483 18.4593 348.004 18.4535C350.806 18.4221 353.608 18.4287 356.41 18.4491C356.868 18.4524 357.325 18.5906 357.818 18.6727C358.599 20.5285 357.935 22.4486 358.359 24.4866C358.663 24.0564 358.884 23.7759 359.071 23.4741C361.68 19.2721 366.854 17.0799 371.636 18.1555C372.638 18.3809 372.97 18.7132 372.98 19.7602C373.009 22.7248 373.006 25.6899 372.975 28.6543C372.971 29.0992 372.752 29.542 372.592 30.1362C371.949 30.0904 371.412 30.0538 370.874 30.0138C369.419 29.9048 367.945 29.5877 366.512 29.7247C362.914 30.0697 360.515 32.1519 359.173 35.5031C358.452 37.305 358.198 39.1956 358.201 41.1352C358.212 47.2827 358.21 53.4304 358.197 59.5779C358.196 60.2585 358.089 60.9394 358.014 61.8068Z" fill="#8ED500"/>
</svg>
