<svg width="44" height="44" viewBox="0 0 44 44" fill="none" xmlns="http://www.w3.org/2000/svg">
<path fill-rule="evenodd" clip-rule="evenodd" d="M40.3332 22C40.3332 32.1255 32.1253 40.3333 21.9998 40.3333C11.8743 40.3333 3.6665 32.1255 3.6665 22C3.6665 11.8745 11.8743 3.66663 21.9998 3.66663C32.1253 3.66663 40.3332 11.8745 40.3332 22ZM29.3882 16.445C29.6457 16.7028 29.7903 17.0523 29.7903 17.4166C29.7903 17.781 29.6457 18.1305 29.3882 18.3883L20.2215 27.555C19.9637 27.8125 19.6142 27.9571 19.2498 27.9571C18.8855 27.9571 18.536 27.8125 18.2782 27.555L14.6115 23.8883C14.4764 23.7624 14.3681 23.6106 14.2929 23.4419C14.2178 23.2733 14.1773 23.0912 14.1741 22.9066C14.1708 22.722 14.2048 22.5386 14.2739 22.3674C14.3431 22.1962 14.446 22.0406 14.5766 21.9101C14.7072 21.7795 14.8627 21.6766 15.0339 21.6074C15.2051 21.5382 15.3885 21.5043 15.5731 21.5075C15.7577 21.5108 15.9398 21.5512 16.1085 21.6264C16.2772 21.7015 16.429 21.8099 16.5548 21.945L19.2498 24.64L23.3473 20.5425L27.4448 16.445C27.7027 16.1875 28.0521 16.0428 28.4165 16.0428C28.7809 16.0428 29.1304 16.1875 29.3882 16.445Z" fill="#2AC096"/>
</svg>
