<svg width="44" height="44" viewBox="0 0 44 44" fill="none" xmlns="http://www.w3.org/2000/svg">
<path fill-rule="evenodd" clip-rule="evenodd" d="M40.3332 22C40.3332 32.1255 32.1253 40.3333 21.9998 40.3333C11.8743 40.3333 3.6665 32.1255 3.6665 22C3.6665 11.8745 11.8743 3.66663 21.9998 3.66663C32.1253 3.66663 40.3332 11.8745 40.3332 22ZM16.4448 16.445C16.7027 16.1875 17.0521 16.0428 17.4165 16.0428C17.7809 16.0428 18.1304 16.1875 18.3882 16.445L21.9998 20.0566L25.6115 16.445C25.8722 16.2021 26.2169 16.0699 26.5731 16.0761C26.9293 16.0824 27.2692 16.2267 27.5211 16.4787C27.7731 16.7306 27.9174 17.0705 27.9237 17.4267C27.9299 17.7829 27.7977 18.1276 27.5548 18.3883L23.9432 22L27.5548 25.6116C27.7977 25.8723 27.9299 26.217 27.9237 26.5732C27.9174 26.9295 27.7731 27.2693 27.5211 27.5213C27.2692 27.7732 26.9293 27.9175 26.5731 27.9238C26.2169 27.9301 25.8722 27.7978 25.6115 27.555L21.9998 23.9433L18.3882 27.555C18.1275 27.7978 17.7828 27.9301 17.4265 27.9238C17.0703 27.9175 16.7305 27.7732 16.4785 27.5213C16.2266 27.2693 16.0823 26.9295 16.076 26.5732C16.0697 26.217 16.202 25.8723 16.4448 25.6116L20.0565 22L16.4448 18.3883C16.1873 18.1305 16.0427 17.781 16.0427 17.4166C16.0427 17.0522 16.1873 16.7028 16.4448 16.445Z" fill="#CD384E"/>
</svg>
