<svg width="296" height="72" viewBox="0 0 296 72" fill="none" xmlns="http://www.w3.org/2000/svg">
<path d="M24.7151 28.352V25.5484C23.7404 25.4149 22.758 25.3454 21.7743 25.3404C9.76839 25.3254 4.16659e-07 35.1118 4.16659e-07 47.1582C-0.000685263 50.6673 0.844937 54.1247 2.465 57.2366C4.08506 60.3484 6.43166 63.0228 9.30538 65.0322C5.54203 61.0006 3.45025 55.6876 3.45385 50.1697C3.45385 38.3013 12.9494 28.6276 24.7151 28.3545" fill="#25F4EE"/>
<path d="M25.2431 60.1315C30.5991 60.1315 34.979 55.8547 35.1717 50.5355L35.1867 3.01159H43.8539C43.6757 2.01753 43.5836 1.00993 43.5786 0H31.7504L31.7354 47.5265C31.6378 50.0994 30.5499 52.5348 28.6992 54.323C26.8486 56.1111 24.3788 57.1134 21.8068 57.1199C20.1953 57.1235 18.6081 56.7275 17.1867 55.9674C18.1006 57.2549 19.309 58.3048 20.711 59.0292C22.113 59.7536 23.6654 60.1316 25.2431 60.1315ZM60.0469 19.1419V16.4986C56.8605 16.5051 53.7423 15.5746 51.0794 13.8227C53.4133 16.5224 56.5607 18.3893 60.0469 19.1419Z" fill="#25F4EE"/>
<path d="M51.0794 13.8252C48.4652 10.8314 47.0278 6.98801 47.0349 3.01159H43.8689C44.2727 5.20999 45.1202 7.30284 46.3596 9.16215C47.5989 11.0215 49.2066 12.6082 51.0794 13.8252ZM21.7893 37.1788C19.1522 37.1835 16.6246 38.2347 14.7606 40.1021C12.8966 41.9696 11.8484 44.5007 11.8457 47.1406C11.8457 50.969 14.0206 54.3013 17.1867 55.9674C15.9587 54.2778 15.298 52.2417 15.2996 50.1522C15.3022 47.5123 16.3504 44.9811 18.2144 43.1137C20.0784 41.2463 22.6061 40.195 25.2431 40.1904C26.2668 40.1904 27.2579 40.3658 28.1839 40.6539V28.5449C27.2093 28.4114 26.2269 28.3419 25.2431 28.337C25.0679 28.337 24.9078 28.352 24.7326 28.352V37.6423C23.7801 37.3417 22.788 37.1855 21.7893 37.1788Z" fill="#FE2C55"/>
<path d="M60.0469 19.1419V28.352C53.9076 28.352 48.2163 26.3827 43.5786 23.0504V47.1582C43.5786 59.1845 33.8127 68.9884 21.7893 68.9884C17.3203 68.9881 12.9604 67.6064 9.30538 65.0322C11.3411 67.2276 13.807 68.9794 16.5492 70.1782C19.2913 71.377 22.2509 71.9972 25.2431 72C37.249 72 47.0349 62.2136 47.0349 50.1672V26.062C51.832 29.5149 57.5925 31.3696 63.5008 31.3636V19.5127C62.2995 19.5093 61.1482 19.3857 60.0469 19.1419Z" fill="#FE2C55"/>
<path d="M43.5811 47.1582V23.0504C48.3788 26.5038 54.1403 28.3586 60.0494 28.352V19.1419C56.5623 18.3898 53.4139 16.5229 51.0794 13.8227C49.2071 12.6035 47.6012 11.0168 46.3588 9.15861C45.1164 7.30038 44.2634 5.20923 43.8514 3.01159H35.1892L35.1742 50.5355C35.0773 53.1089 33.9896 55.545 32.1389 57.3337C30.2882 59.1224 27.8181 60.125 25.2456 60.1315C23.6677 60.1279 22.1131 59.75 20.7092 59.0288C19.3053 58.3076 18.0922 57.2636 17.1691 55.9825C15.5616 55.1363 14.215 53.8672 13.2744 52.3119C12.3337 50.7565 11.8346 48.9738 11.8307 47.1556C11.834 44.5162 12.8825 41.9857 14.7464 40.1188C16.6104 38.2519 19.1376 37.201 21.7743 37.1964C22.7979 37.1964 23.789 37.3717 24.7151 37.6599V28.3696C12.9494 28.6276 3.45385 38.3013 3.45385 50.1697C3.45385 55.9073 5.67633 61.1262 9.30537 65.0348C12.9602 67.6098 17.3201 68.9923 21.7893 68.9934C33.7977 68.9934 43.5811 59.1895 43.5811 47.1607M75.2038 19.1744H112.183L108.791 29.7776H99.2006V68.9734H87.2423V29.7751L75.2189 29.7902L75.2038 19.1744ZM172.773 19.1744H210.615L207.224 29.7776H196.787V68.9734H184.811V29.7751L172.788 29.7902L172.773 19.1744ZM114.453 35.0166H126.298V68.9734H114.515L114.453 35.0166ZM142.859 19.0467V42.2399L154.595 30.6896H168.726L153.874 45.1212L170.503 68.9734H157.456L146.361 52.4422L142.844 55.8547V68.9734H130.996V19.0467H142.859ZM256.511 19.0467H268.359V42.2399L280.092 30.6896H294.225L279.374 45.1212L296 68.9734H282.97L271.876 52.4422L268.359 55.8547V68.9734H256.511V19.0467ZM120.367 31.1381C121.948 31.1368 123.465 30.5069 124.583 29.3869C125.7 28.2668 126.328 26.7483 126.328 25.165C126.328 23.9835 125.978 22.8284 125.322 21.8461C124.667 20.8637 123.734 20.0981 122.644 19.6462C121.553 19.1942 120.353 19.0762 119.196 19.3071C118.038 19.538 116.975 20.1074 116.141 20.9432C115.307 21.7791 114.739 22.8438 114.509 24.0028C114.279 25.1618 114.398 26.363 114.851 27.4543C115.303 28.5457 116.069 29.4782 117.05 30.1339C118.032 30.7896 119.186 31.1391 120.367 31.1381Z" fill="white"/>
<path d="M209.096 48.6464C209.094 43.5327 211.019 38.6066 214.486 34.8509C217.953 31.0953 222.707 28.7862 227.799 28.3846C227.209 28.3395 226.617 28.3178 226.024 28.3194C214.817 28.3194 205.737 37.4168 205.737 48.6464C205.737 59.876 214.817 68.9734 226.024 68.9734C226.55 68.9734 227.271 68.9408 227.801 68.9082C217.345 68.0914 209.096 59.3298 209.096 48.6464Z" fill="#25F4EE"/>
<path d="M232.404 28.322C231.861 28.322 231.14 28.352 230.612 28.3846C235.702 28.7892 240.453 31.0996 243.917 34.8549C247.381 38.6103 249.304 43.5347 249.303 48.6464C249.304 53.7581 247.381 58.6825 243.917 62.4379C240.453 66.1933 235.702 68.5036 230.612 68.9082C231.14 68.9583 231.861 68.9734 232.404 68.9734C243.612 68.9734 252.692 59.876 252.692 48.6464C252.692 37.4168 243.612 28.322 232.404 28.322Z" fill="#FE2C55"/>
<path d="M229.206 58.5305C227.91 58.5305 226.626 58.2748 225.429 57.7779C224.232 57.281 223.144 56.5528 222.228 55.6348C221.312 54.7168 220.586 53.6271 220.092 52.428C219.597 51.2288 219.343 49.9438 219.345 48.6464C219.345 46.0276 220.384 43.5161 222.233 41.6644C224.083 39.8126 226.592 38.7723 229.208 38.7723C231.824 38.7723 234.333 39.8126 236.183 41.6644C238.032 43.5161 239.072 46.0276 239.072 48.6464C239.072 54.1084 234.642 58.5305 229.206 58.5305ZM229.206 28.3194C218.001 28.3194 208.918 37.4168 208.918 48.6464C208.918 59.876 218.001 68.9734 229.206 68.9734C240.411 68.9734 249.493 59.876 249.493 48.6464C249.493 37.4168 240.413 28.3194 229.206 28.3194Z" fill="white"/>
</svg>
