<svg width="64" height="16" viewBox="0 0 64 16" fill="none" xmlns="http://www.w3.org/2000/svg">
<path d="M34.0879 0C36.392 2.1216e-05 39.0869 1.89904 39.0869 5.95996C39.0868 10.2022 36.4949 12.2627 33.8408 12.2627C32.4216 12.2627 31.1671 11.7169 30.2002 10.4238V16H27.2998V0.323242H30.2002V1.91895C31.0027 0.82803 32.2573 0 34.0879 0ZM48.0156 0C50.3197 0.000234933 53.0137 1.89927 53.0137 5.95996C53.0136 10.2021 50.4223 12.2625 47.7686 12.2627C46.3493 12.2627 45.0939 11.7169 44.127 10.4238V16H41.2266V0.323242H44.1279V1.91895C44.9302 0.828069 46.185 0 48.0156 0ZM12.2402 6.58594C12.7958 6.20212 13.5569 6.36346 14.0508 7.09082C15.285 8.86842 16.8693 10.081 18.9053 10.0811L19.2695 10.0693C21.0418 9.95993 22.0986 9.0452 23.1016 7.75781C23.6771 7.01059 24.4387 6.86826 24.9531 7.27246C25.5084 7.69677 25.5289 8.46462 24.9531 9.21191C23.4106 11.2322 21.4357 12.4443 18.9053 12.4443C16.1488 12.4443 13.7835 10.9494 12.0762 8.38379C11.6033 7.71699 11.726 6.94964 12.2402 6.58594ZM59.1445 0C61.5312 0 63.2798 1.09116 64 3.83887L61.3877 4.24219C61.3465 2.84847 60.4618 2.42489 59.207 2.4248C58.2195 2.4248 57.499 2.84883 57.499 3.51562C57.4992 4.04069 57.8697 4.58616 58.9805 4.78809L60.9756 5.15137C62.9298 5.51551 63.9795 6.76793 63.9795 8.48535C63.9792 11.0102 61.6543 12.2627 59.4736 12.2627C57.1698 12.2626 54.6192 11.0904 54.208 8.24219L56.8203 7.83789C56.9644 9.31277 57.8903 9.83881 59.3711 9.83887C60.5024 9.83887 61.2636 9.43452 61.2637 8.72754C61.2637 8.10123 60.9141 7.63618 59.6797 7.41406L57.8691 7.09082C55.9565 6.74715 54.7842 5.41356 54.7842 3.7168C54.7844 1.09068 57.211 7.8171e-05 59.1445 0ZM5.9248 8.16113L8.63965 0.302734H11.8281L7.09668 11.959H4.73145L0 0.302734H3.18848L5.9248 8.16113ZM33.1826 2.50488C31.5988 2.50497 30.2003 3.61605 30.2002 6.10059C30.2002 8.4844 31.5987 9.73711 33.1621 9.7373C34.643 9.7373 36.166 8.56534 36.166 6.10059C36.1659 3.67634 34.6431 2.50488 33.1826 2.50488ZM47.1104 2.50488C45.5265 2.50488 44.1271 3.61595 44.127 6.10059C44.127 8.48459 45.5262 9.7373 47.0898 9.7373C48.5708 9.73729 50.0928 8.56532 50.0928 6.10059C50.0926 3.67645 48.5708 2.50499 47.1104 2.50488ZM21.0039 2.06055C21.8679 2.06067 22.6084 2.70741 22.6084 3.63672L22.5996 3.80762C22.5149 4.64394 21.8138 5.2118 21.0039 5.21191C20.1401 5.21191 19.3996 4.56573 19.3994 3.63672C19.3994 2.70732 20.14 2.06055 21.0039 2.06055Z" fill="white"/>
</svg>
