<svg width="194" height="72" viewBox="0 0 194 72" fill="none" xmlns="http://www.w3.org/2000/svg">
<path d="M185.692 58.912C185.692 60.0055 184.839 60.8559 183.742 60.8559H177.649C176.552 60.8559 175.699 60.0055 175.699 58.912V57.2111C172.044 60.37 167.778 61.9494 162.904 61.9494C159.979 61.9494 157.298 61.3419 154.617 60.2485C152.058 59.155 149.742 57.6971 147.915 55.7531C146.087 53.9307 144.502 51.7438 143.406 49.1924C142.309 46.641 141.821 43.9681 141.821 41.1737C141.821 38.3793 142.309 35.7064 143.406 33.155C144.502 30.6036 145.965 28.4167 147.915 26.4727C149.742 24.6503 152.058 23.0709 154.617 21.9774C157.176 20.884 159.979 20.2765 162.904 20.2765C167.656 20.2765 171.922 21.8559 175.578 24.8933V12.1363C175.578 11.0428 176.431 10.1924 177.527 10.1924H183.742C184.839 10.1924 185.692 11.0428 185.692 12.1363V58.912ZM175.821 41.1737C175.821 37.7718 174.603 34.9774 172.287 32.669C169.972 30.3606 167.169 29.1456 163.757 29.1456C160.466 29.1456 157.664 30.3606 155.348 32.669C153.033 34.9774 151.814 37.8933 151.814 41.1737C151.814 44.4541 153.033 47.37 155.348 49.6784C157.664 51.9868 160.466 53.2017 163.757 53.2017C167.047 53.2017 169.85 51.9868 172.165 49.6784C174.603 47.37 175.821 44.4541 175.821 41.1737Z" fill="white"/>
<path d="M136.215 58.912C136.215 60.0055 135.362 60.8559 134.266 60.8559H128.172C127.076 60.8559 126.223 60.0055 126.223 58.912V57.2111C122.567 60.37 118.301 61.9494 113.427 61.9494C110.502 61.9494 107.821 61.3419 105.14 60.2485C102.581 59.155 100.266 57.6971 98.4377 55.7531C96.6097 53.9307 95.0255 51.7438 93.9287 49.1924C92.8319 46.641 92.3445 43.9681 92.3445 41.1737C92.3445 38.3793 92.8319 35.7064 93.9287 33.155C95.0255 30.6036 96.4878 28.4167 98.4377 26.4727C100.266 24.6503 102.581 23.0709 105.14 21.9774C107.699 20.884 110.502 20.2765 113.427 20.2765C118.18 20.2765 122.445 21.8559 126.101 24.8933V12.1363C126.101 11.0428 126.954 10.1924 128.051 10.1924H134.266C135.362 10.1924 136.215 11.0428 136.215 12.1363V24.2858V36.4354V58.912ZM126.344 41.1737C126.344 37.7718 125.126 34.9774 122.81 32.669C120.495 30.3606 117.692 29.1456 114.28 29.1456C110.99 29.1456 108.187 30.3606 105.871 32.669C103.556 34.9774 102.337 37.8933 102.337 41.1737C102.337 44.4541 103.556 47.37 105.871 49.6784C108.187 51.9868 110.99 53.2017 114.28 53.2017C117.57 53.2017 120.373 51.9868 122.689 49.6784C125.126 47.37 126.344 44.4541 126.344 41.1737Z" fill="white"/>
<path d="M50.3014 46.641V22.2204C50.3014 21.1269 51.1545 20.2765 52.2512 20.2765H58.4663C59.563 20.2765 60.4161 21.1269 60.4161 22.2204V44.697C60.4161 47.127 61.1473 49.1924 62.7315 50.7718C64.1939 52.3513 66.2655 53.2017 68.7028 53.2017C71.1401 53.2017 73.0899 52.4727 74.6741 50.8933C76.2584 49.3139 76.9895 47.2484 76.9895 44.8185V22.2204C76.9895 21.1269 77.8426 20.2765 78.9394 20.2765H85.1544C86.2512 20.2765 87.1042 21.1269 87.1042 22.2204V59.155C87.1042 60.2485 86.2512 61.0989 85.1544 61.0989H78.9394C77.8426 61.0989 76.9895 60.2485 76.9895 59.155V57.5756C74.0648 60.4914 70.5308 62.0709 66.1437 62.0709C61.6347 62.0709 57.857 60.6129 54.9322 57.697C51.7638 54.5382 50.3014 51.0148 50.3014 46.641Z" fill="white"/>
<path d="M44.5734 35.9494V59.155C44.5734 60.2485 43.7204 61.099 42.6236 61.099H36.4086C35.3118 61.099 34.4587 60.2485 34.4587 59.155V40.3233C34.4587 37.7718 33.7276 35.7064 32.1433 34.2485C30.9247 33.0335 29.4623 32.3046 27.6344 32.0616C27.1469 31.9401 26.7813 31.9401 26.2939 31.9401C23.8566 31.9401 21.9068 32.669 20.3226 34.2485C18.7383 35.7064 18.0072 37.7718 18.0072 40.3233V59.0335C18.0072 60.127 17.1541 60.9775 16.0573 60.9775H9.84229C8.74552 60.9775 7.89247 60.127 7.89247 59.0335V12.0148C7.89247 10.9214 8.74552 10.0709 9.84229 10.0709H16.0573C17.1541 10.0709 18.0072 10.9214 18.0072 12.0148V20.5195L12.3456 30.6553L22.2724 22.7064L24.5878 21.127C25.8064 20.2765 27.5125 20.2765 28.7312 21.127L42.8673 31.9401C43.8422 32.669 44.5301 33.5679 44.5734 34.9278C44.5854 35.305 44.5734 35.5849 44.5734 35.9494Z" fill="white"/>
</svg>
