<svg width="113" height="33" viewBox="0 0 113 33" fill="none" xmlns="http://www.w3.org/2000/svg">
<mask id="path-1-inside-1_1_8850" fill="white">
<path d="M0 24.5056C0 11.2508 10.7452 0.505615 24 0.505615H89C102.255 0.505615 113 11.2508 113 24.5056V32.5056H0V24.5056Z"/>
</mask>
<path d="M0 24.5056C0 11.2508 10.7452 0.505615 24 0.505615H89C102.255 0.505615 113 11.2508 113 24.5056V32.5056H0V24.5056Z" fill="#D3B6F4"/>
<path d="M-1 24.5056C-1 10.6985 10.1929 -0.494385 24 -0.494385H89C102.807 -0.494385 114 10.6985 114 24.5056H112C112 11.8031 101.703 1.50562 89 1.50562H24C11.2975 1.50562 1 11.8031 1 24.5056H-1ZM113 32.5056H0H113ZM-1 32.5056V24.5056C-1 10.6985 10.1929 -0.494385 24 -0.494385V1.50562C11.2975 1.50562 1 11.8031 1 24.5056V32.5056H-1ZM89 -0.494385C102.807 -0.494385 114 10.6985 114 24.5056V32.5056H112V24.5056C112 11.8031 101.703 1.50562 89 1.50562V-0.494385Z" fill="#BE91EF" mask="url(#path-1-inside-1_1_8850)"/>
<path fillRule="evenodd" clipRule="evenodd" d="M20.1806 8.69082C20.4 8.63216 20.6338 8.66301 20.8305 8.77658C21.0272 8.89015 21.1708 9.07716 21.2297 9.29653L21.7429 11.2085C21.7721 11.3173 21.7795 11.4308 21.7649 11.5425C21.7502 11.6542 21.7137 11.7619 21.6574 11.8595C21.5437 12.0566 21.3563 12.2004 21.1366 12.2594C20.9168 12.3183 20.6827 12.2876 20.4856 12.1739C20.2885 12.0602 20.1447 11.8729 20.0857 11.6531L19.576 9.73996C19.5468 9.63123 19.5393 9.5178 19.5539 9.40616C19.5686 9.29453 19.605 9.18687 19.6613 9.08933C19.7175 8.9918 19.7924 8.9063 19.8817 8.83773C19.971 8.76915 20.073 8.71885 20.1817 8.68967L20.1806 8.69082ZM16.0823 12.7971C16.0236 13.0165 16.0545 13.2503 16.1681 13.447C16.2816 13.6437 16.4686 13.7873 16.688 13.8462L18.6 14.3582C18.7101 14.3919 18.8258 14.4031 18.9402 14.391C19.0547 14.379 19.1655 14.3441 19.2662 14.2883C19.3669 14.2325 19.4553 14.157 19.5261 14.0663C19.597 13.9756 19.6488 13.8716 19.6786 13.7604C19.7084 13.6493 19.7155 13.5332 19.6995 13.4193C19.6835 13.3053 19.6447 13.1957 19.5854 13.0971C19.5261 12.9984 19.4476 12.9127 19.3545 12.8451C19.2614 12.7775 19.1556 12.7293 19.0434 12.7034L17.1314 12.1902C16.912 12.1316 16.6782 12.1624 16.4815 12.276C16.2848 12.3896 16.1412 12.5766 16.0823 12.796V12.7971ZM21.1109 15.0428C21.0438 14.8416 21.0341 14.6256 21.0829 14.4192C21.1316 14.2127 21.2368 14.0239 21.3867 13.8739C21.5367 13.7238 21.7254 13.6185 21.9318 13.5696C22.1382 13.5207 22.3541 13.5302 22.5554 13.5971L30.6926 16.3114C31.744 16.6622 31.7303 18.1537 30.672 18.4851L28.3566 19.2131L31.4423 22.2988C31.6566 22.5133 31.7769 22.8041 31.7768 23.1072C31.7767 23.4104 31.6562 23.7011 31.4417 23.9154C31.2273 24.1297 30.9365 24.25 30.6333 24.2499C30.3302 24.2498 30.0394 24.1293 29.8252 23.9148L26.7326 20.8211L25.9989 23.1594C25.6674 24.2165 24.1749 24.2302 23.824 23.1788L21.1097 15.0417L21.1109 15.0428ZM18.3612 18.5114C18.2821 18.5933 18.1876 18.6586 18.083 18.7036C17.9785 18.7486 17.866 18.7723 17.7522 18.7733C17.6384 18.7744 17.5255 18.7527 17.4201 18.7097C17.3148 18.6666 17.2191 18.603 17.1385 18.5226C17.058 18.4421 16.9943 18.3465 16.9512 18.2412C16.908 18.1358 16.8863 18.023 16.8872 17.9092C16.8882 17.7954 16.9118 17.6829 16.9566 17.5783C17.0015 17.4737 17.0668 17.3791 17.1486 17.3L18.5497 15.9C18.7122 15.7486 18.9271 15.6661 19.1492 15.67C19.3712 15.674 19.5831 15.7639 19.7402 15.921C19.8972 16.078 19.9872 16.2899 19.9911 16.5119C19.995 16.734 19.9126 16.9489 19.7612 17.1114L18.3612 18.5114ZM25.744 10.9788C25.9002 10.8172 25.9867 10.6008 25.9849 10.376C25.983 10.1513 25.893 9.93625 25.7341 9.77725C25.5753 9.61825 25.3604 9.52801 25.1356 9.52595C24.9109 9.52389 24.6943 9.61019 24.5326 9.76625L23.1314 11.1662C22.9754 11.328 22.8891 11.5445 22.8911 11.7693C22.8932 11.994 22.9834 12.209 23.1424 12.3678C23.3014 12.5267 23.5165 12.6167 23.7412 12.6185C23.9659 12.6204 24.1824 12.5339 24.344 12.3777L25.744 10.9788Z" fill="#9248E4"/>
<path d="M36.88 11.4456H40.128C40.7893 11.4456 41.3867 11.5576 41.92 11.7816C42.4587 12.0056 42.888 12.3496 43.208 12.8136C43.528 13.2776 43.688 13.8749 43.688 14.6056C43.688 15.3363 43.528 15.9469 43.208 16.4376C42.888 16.9229 42.4587 17.2883 41.92 17.5336C41.3867 17.7789 40.7893 17.9016 40.128 17.9016H38.56V22.0056H36.88V11.4456ZM38.56 16.5256H39.664C40.0747 16.5256 40.448 16.4669 40.784 16.3496C41.1253 16.2269 41.3947 16.0269 41.592 15.7496C41.7947 15.4723 41.896 15.1043 41.896 14.6456C41.896 14.1816 41.7947 13.8189 41.592 13.5576C41.3947 13.2909 41.1253 13.1016 40.784 12.9896C40.448 12.8776 40.0747 12.8216 39.664 12.8216H38.56V16.5256ZM46.5723 22.0056H44.8683V15.4376H46.5723V16.5336H46.5323C46.5696 16.4003 46.6709 16.2349 46.8363 16.0376C47.0069 15.8349 47.2416 15.6536 47.5403 15.4936C47.8389 15.3283 48.1989 15.2456 48.6203 15.2456C48.9243 15.2456 49.1963 15.2883 49.4363 15.3736C49.6763 15.4589 49.8469 15.5443 49.9483 15.6296L49.2603 17.0376C49.1909 16.9523 49.0603 16.8696 48.8683 16.7896C48.6816 16.7043 48.4496 16.6616 48.1723 16.6616C47.8256 16.6616 47.5323 16.7629 47.2923 16.9656C47.0576 17.1683 46.8789 17.4109 46.7563 17.6936C46.6336 17.9763 46.5723 18.2403 46.5723 18.4856V22.0056ZM56.7481 15.1016L57.2921 15.5896L50.6921 22.2936L50.1481 21.8056L56.7481 15.1016ZM53.7481 22.1976C53.0601 22.1976 52.4468 22.0483 51.9081 21.7496C51.3748 21.4456 50.9561 21.0349 50.6521 20.5176C50.3481 19.9949 50.1961 19.4029 50.1961 18.7416C50.1961 18.0803 50.3481 17.4856 50.6521 16.9576C50.9561 16.4296 51.3748 16.0136 51.9081 15.7096C52.4468 15.4003 53.0601 15.2456 53.7481 15.2456C54.4361 15.2456 55.0441 15.4003 55.5721 15.7096C56.1001 16.0136 56.5135 16.4296 56.8121 16.9576C57.1161 17.4856 57.2681 18.0803 57.2681 18.7416C57.2681 19.4029 57.1161 19.9949 56.8121 20.5176C56.5135 21.0349 56.1001 21.4456 55.5721 21.7496C55.0441 22.0483 54.4361 22.1976 53.7481 22.1976ZM53.7481 20.7576C54.1321 20.7576 54.4655 20.6696 54.7481 20.4936C55.0308 20.3176 55.2495 20.0776 55.4041 19.7736C55.5588 19.4696 55.6361 19.1229 55.6361 18.7336C55.6361 18.3443 55.5588 17.9976 55.4041 17.6936C55.2495 17.3843 55.0308 17.1389 54.7481 16.9576C54.4655 16.7763 54.1321 16.6856 53.7481 16.6856C53.3641 16.6856 53.0281 16.7763 52.7401 16.9576C52.4575 17.1389 52.2361 17.3843 52.0761 17.6936C51.9215 17.9976 51.8441 18.3443 51.8441 18.7336C51.8441 19.1229 51.9215 19.4696 52.0761 19.7736C52.2361 20.0776 52.4575 20.3176 52.7401 20.4936C53.0281 20.6696 53.3641 20.7576 53.7481 20.7576ZM57.9801 15.4376H59.8121L61.7881 20.4376L63.7641 15.4376H65.5881L62.7961 22.0056H60.7881L57.9801 15.4376ZM73.4781 15.2456C73.8461 15.2456 74.1875 15.2803 74.5021 15.3496C74.8168 15.4189 75.0861 15.5016 75.3101 15.5976C75.5341 15.6936 75.6888 15.7736 75.7741 15.8376L75.1501 16.8936C75.0435 16.8029 74.8515 16.6989 74.5741 16.5816C74.3021 16.4643 73.9955 16.4056 73.6541 16.4056C73.3128 16.4056 73.0248 16.4669 72.7901 16.5896C72.5555 16.7123 72.4381 16.8963 72.4381 17.1416C72.4381 17.3816 72.5608 17.5736 72.8061 17.7176C73.0568 17.8616 73.3955 17.9816 73.8221 18.0776C74.1741 18.1576 74.5101 18.2696 74.8301 18.4136C75.1501 18.5523 75.4115 18.7523 75.6141 19.0136C75.8221 19.2696 75.9261 19.6136 75.9261 20.0456C75.9261 20.4563 75.8381 20.8003 75.6621 21.0776C75.4915 21.3496 75.2621 21.5683 74.9741 21.7336C74.6861 21.8989 74.3661 22.0163 74.0141 22.0856C73.6675 22.1603 73.3181 22.1976 72.9661 22.1976C72.5341 22.1976 72.1475 22.1549 71.8061 22.0696C71.4701 21.9843 71.1901 21.8856 70.9661 21.7736C70.7421 21.6563 70.5821 21.5576 70.4861 21.4776L71.1101 20.2936C71.2488 20.4269 71.4755 20.5683 71.7901 20.7176C72.1048 20.8616 72.4568 20.9336 72.8461 20.9336C73.2621 20.9336 73.5955 20.8536 73.8461 20.6936C74.0968 20.5336 74.2221 20.3203 74.2221 20.0536C74.2221 19.8563 74.1608 19.6963 74.0381 19.5736C73.9208 19.4509 73.7581 19.3523 73.5501 19.2776C73.3421 19.2029 73.1101 19.1363 72.8541 19.0776C72.6141 19.0189 72.3715 18.9443 72.1261 18.8536C71.8861 18.7576 71.6648 18.6349 71.4621 18.4856C71.2595 18.3309 71.0968 18.1389 70.9741 17.9096C70.8515 17.6803 70.7901 17.4109 70.7901 17.1016C70.7901 16.7069 70.9155 16.3709 71.1661 16.0936C71.4168 15.8163 71.7475 15.6056 72.1581 15.4616C72.5688 15.3176 73.0088 15.2456 73.4781 15.2456ZM78.6243 19.1256C78.6349 19.4723 78.7176 19.7843 78.8723 20.0616C79.0269 20.3389 79.2536 20.5576 79.5523 20.7176C79.8563 20.8723 80.2269 20.9496 80.6643 20.9496C81.0429 20.9496 81.3683 20.8989 81.6403 20.7976C81.9176 20.6909 82.1469 20.5656 82.3283 20.4216C82.5096 20.2723 82.6429 20.1336 82.7283 20.0056L83.4883 21.0376C83.3229 21.2616 83.1149 21.4616 82.8643 21.6376C82.6136 21.8136 82.3016 21.9496 81.9283 22.0456C81.5603 22.1469 81.1043 22.1976 80.5603 22.1976C79.8456 22.1976 79.2243 22.0509 78.6963 21.7576C78.1683 21.4643 77.7576 21.0509 77.4643 20.5176C77.1763 19.9843 77.0323 19.3603 77.0323 18.6456C77.0323 18.0056 77.1656 17.4296 77.4323 16.9176C77.6989 16.4003 78.0856 15.9923 78.5923 15.6936C79.1043 15.3949 79.7176 15.2456 80.4323 15.2456C81.0989 15.2456 81.6776 15.3789 82.1683 15.6456C82.6589 15.9123 83.0376 16.2963 83.3043 16.7976C83.5763 17.2936 83.7123 17.8936 83.7123 18.5976C83.7123 18.6403 83.7096 18.7283 83.7043 18.8616C83.7043 18.9949 83.6989 19.0829 83.6883 19.1256H78.6243ZM82.1123 17.8776C82.1069 17.7069 82.0483 17.5123 81.9363 17.2936C81.8296 17.0749 81.6563 16.8856 81.4163 16.7256C81.1763 16.5603 80.8563 16.4776 80.4563 16.4776C80.0456 16.4776 79.7123 16.5576 79.4563 16.7176C79.2003 16.8723 79.0109 17.0589 78.8883 17.2776C78.7656 17.4909 78.6936 17.6909 78.6723 17.8776H82.1123ZM86.911 22.0056H85.191V10.9976H86.911V22.0056ZM88.1364 15.4376H89.9684L91.9444 20.4376L93.9204 15.4376H95.7444L92.9524 22.0056H90.9444L88.1364 15.4376Z" fill="#121B22"/>
</svg>
