<svg width="374" height="353" viewBox="0 0 374 353" fill="none" xmlns="http://www.w3.org/2000/svg">
<g filter="url(#filter0_d_6512_20674)">
<path d="M12 28.4944C12 19.6578 19.1634 12.4944 28 12.4944H338C346.837 12.4944 354 19.6578 354 28.4944V316.494C354 325.331 346.837 332.494 338 332.494H28C19.1634 332.494 12 325.331 12 316.494V28.4944Z" fill="#0E1419" shape-rendering="crispEdges"/>
<path d="M12.5 28.4944C12.5 19.934 19.4396 12.9944 28 12.9944H338C346.56 12.9944 353.5 19.934 353.5 28.4944V316.494C353.5 325.055 346.56 331.994 338 331.994H28C19.4396 331.994 12.5 325.055 12.5 316.494V28.4944Z" stroke="#121B22" shape-rendering="crispEdges"/>
<path d="M145.336 52.7704C145.336 53.4797 145.219 54.0904 144.984 54.6024C144.749 55.1091 144.405 55.5011 143.952 55.7784C143.499 56.0504 142.941 56.1864 142.28 56.1864C141.784 56.1864 141.36 56.1197 141.008 55.9864C140.656 55.8531 140.379 55.7064 140.176 55.5464C139.979 55.3811 139.856 55.2584 139.808 55.1784L140.496 53.7304C140.56 53.8211 140.653 53.9331 140.776 54.0664C140.904 54.1944 141.072 54.3091 141.28 54.4104C141.493 54.5064 141.755 54.5544 142.064 54.5544C142.421 54.5544 142.717 54.4744 142.952 54.3144C143.187 54.1491 143.363 53.9144 143.48 53.6104C143.597 53.3064 143.656 52.9411 143.656 52.5144V45.4344H145.336V52.7704ZM152.336 55.9944V54.7784C152.293 54.9064 152.171 55.0824 151.968 55.3064C151.771 55.5304 151.499 55.7331 151.152 55.9144C150.811 56.0957 150.405 56.1864 149.936 56.1864C149.323 56.1864 148.771 56.0397 148.28 55.7464C147.789 55.4531 147.403 55.0451 147.12 54.5224C146.837 53.9997 146.696 53.3971 146.696 52.7144C146.696 52.0317 146.837 51.4291 147.12 50.9064C147.403 50.3837 147.789 49.9757 148.28 49.6824C148.771 49.3837 149.323 49.2344 149.936 49.2344C150.395 49.2344 150.792 49.3144 151.128 49.4744C151.464 49.6344 151.733 49.8184 151.936 50.0264C152.144 50.2344 152.272 50.4157 152.32 50.5704V49.4264H154.016V55.9944H152.336ZM148.384 52.7144C148.384 53.1357 148.477 53.5037 148.664 53.8184C148.851 54.1331 149.093 54.3757 149.392 54.5464C149.696 54.7171 150.021 54.8024 150.368 54.8024C150.741 54.8024 151.072 54.7144 151.36 54.5384C151.653 54.3624 151.883 54.1197 152.048 53.8104C152.219 53.4957 152.304 53.1304 152.304 52.7144C152.304 52.2984 152.219 51.9357 152.048 51.6264C151.883 51.3117 151.653 51.0664 151.36 50.8904C151.072 50.7091 150.741 50.6184 150.368 50.6184C150.021 50.6184 149.696 50.7064 149.392 50.8824C149.093 51.0531 148.851 51.2957 148.664 51.6104C148.477 51.9251 148.384 52.2931 148.384 52.7144ZM159.704 49.2344C160.147 49.2344 160.576 49.3251 160.992 49.5064C161.408 49.6877 161.75 49.9784 162.016 50.3784C162.288 50.7731 162.424 51.2877 162.424 51.9224V55.9944H160.704V52.2344C160.704 51.6424 160.563 51.2077 160.28 50.9304C160.003 50.6477 159.643 50.5064 159.2 50.5064C158.907 50.5064 158.627 50.5891 158.36 50.7544C158.094 50.9197 157.875 51.1437 157.704 51.4264C157.539 51.7091 157.456 52.0344 157.456 52.4024V55.9944H155.744V49.4264H157.456V50.5304C157.504 50.3491 157.632 50.1597 157.84 49.9624C158.054 49.7597 158.323 49.5891 158.648 49.4504C158.974 49.3064 159.326 49.2344 159.704 49.2344ZM165.744 52.6504C165.744 53.2904 165.874 53.7997 166.136 54.1784C166.402 54.5571 166.821 54.7464 167.392 54.7464C167.968 54.7464 168.386 54.5571 168.648 54.1784C168.909 53.7997 169.04 53.2904 169.04 52.6504V49.4264H170.736V52.8664C170.736 53.5277 170.605 54.1091 170.344 54.6104C170.082 55.1064 169.704 55.4931 169.208 55.7704C168.712 56.0477 168.106 56.1864 167.392 56.1864C166.682 56.1864 166.08 56.0477 165.584 55.7704C165.088 55.4931 164.709 55.1064 164.448 54.6104C164.186 54.1091 164.056 53.5277 164.056 52.8664V49.4264H165.744V52.6504ZM177.727 55.9944V54.7784C177.684 54.9064 177.561 55.0824 177.359 55.3064C177.161 55.5304 176.889 55.7331 176.543 55.9144C176.201 56.0957 175.796 56.1864 175.327 56.1864C174.713 56.1864 174.161 56.0397 173.671 55.7464C173.18 55.4531 172.793 55.0451 172.511 54.5224C172.228 53.9997 172.087 53.3971 172.087 52.7144C172.087 52.0317 172.228 51.4291 172.511 50.9064C172.793 50.3837 173.18 49.9757 173.671 49.6824C174.161 49.3837 174.713 49.2344 175.327 49.2344C175.785 49.2344 176.183 49.3144 176.519 49.4744C176.855 49.6344 177.124 49.8184 177.327 50.0264C177.535 50.2344 177.663 50.4157 177.711 50.5704V49.4264H179.407V55.9944H177.727ZM173.775 52.7144C173.775 53.1357 173.868 53.5037 174.055 53.8184C174.241 54.1331 174.484 54.3757 174.783 54.5464C175.087 54.7171 175.412 54.8024 175.759 54.8024C176.132 54.8024 176.463 54.7144 176.751 54.5384C177.044 54.3624 177.273 54.1197 177.439 53.8104C177.609 53.4957 177.695 53.1304 177.695 52.7144C177.695 52.2984 177.609 51.9357 177.439 51.6264C177.273 51.3117 177.044 51.0664 176.751 50.8904C176.463 50.7091 176.132 50.6184 175.759 50.6184C175.412 50.6184 175.087 50.7064 174.783 50.8824C174.484 51.0531 174.241 51.2957 174.055 51.6104C173.868 51.9251 173.775 52.2931 173.775 52.7144ZM182.791 55.9944H181.087V49.4264H182.791V50.5224H182.751C182.788 50.3891 182.89 50.2237 183.055 50.0264C183.226 49.8237 183.46 49.6424 183.759 49.4824C184.058 49.3171 184.418 49.2344 184.839 49.2344C185.143 49.2344 185.415 49.2771 185.655 49.3624C185.895 49.4477 186.066 49.5331 186.167 49.6184L185.479 51.0264C185.41 50.9411 185.279 50.8584 185.087 50.7784C184.9 50.6931 184.668 50.6504 184.391 50.6504C184.044 50.6504 183.751 50.7517 183.511 50.9544C183.276 51.1571 183.098 51.3997 182.975 51.6824C182.852 51.9651 182.791 52.2291 182.791 52.4744V55.9944ZM194.61 46.7064C194.199 46.7064 193.836 46.7944 193.522 46.9704C193.212 47.1411 192.954 47.3437 192.746 47.5784C192.538 47.8131 192.378 48.0264 192.266 48.2184C192.159 48.4104 192.1 48.5171 192.09 48.5384L190.626 47.8824C190.636 47.8344 190.687 47.7144 190.778 47.5224C190.868 47.3251 191.01 47.1011 191.202 46.8504C191.394 46.5944 191.642 46.3437 191.946 46.0984C192.255 45.8531 192.628 45.6504 193.066 45.4904C193.508 45.3251 194.023 45.2424 194.61 45.2424C195.244 45.2424 195.783 45.3304 196.226 45.5064C196.668 45.6824 197.028 45.9251 197.306 46.2344C197.583 46.5384 197.786 46.8877 197.914 47.2824C198.042 47.6771 198.106 48.0931 198.106 48.5304C198.106 48.9784 198.002 49.4317 197.794 49.8904C197.591 50.3491 197.327 50.7944 197.002 51.2264C196.676 51.6531 196.327 52.0531 195.954 52.4264C195.58 52.7997 195.218 53.1331 194.866 53.4264C194.519 53.7197 194.22 53.9597 193.97 54.1464C193.724 54.3331 193.57 54.4504 193.506 54.4984H198.018V55.9944H190.914V54.6344C191.052 54.5224 191.279 54.3437 191.594 54.0984C191.914 53.8531 192.282 53.5624 192.698 53.2264C193.114 52.8851 193.535 52.5144 193.962 52.1144C194.394 51.7144 194.794 51.3037 195.162 50.8824C195.535 50.4611 195.834 50.0477 196.058 49.6424C196.287 49.2371 196.402 48.8584 196.402 48.5064C196.402 47.8451 196.247 47.3811 195.938 47.1144C195.628 46.8424 195.186 46.7064 194.61 46.7064ZM199.566 50.7224C199.566 49.7891 199.678 48.9784 199.902 48.2904C200.131 47.6024 200.44 47.0344 200.83 46.5864C201.219 46.1331 201.656 45.7971 202.142 45.5784C202.627 45.3544 203.128 45.2424 203.646 45.2424C204.168 45.2424 204.672 45.3544 205.158 45.5784C205.648 45.7971 206.086 46.1331 206.47 46.5864C206.854 47.0344 207.158 47.6024 207.382 48.2904C207.606 48.9784 207.718 49.7891 207.718 50.7224C207.718 51.6877 207.606 52.5144 207.382 53.2024C207.158 53.8904 206.854 54.4557 206.47 54.8984C206.086 55.3357 205.648 55.6611 205.158 55.8744C204.672 56.0824 204.168 56.1864 203.646 56.1864C203.128 56.1864 202.627 56.0824 202.142 55.8744C201.656 55.6611 201.219 55.3357 200.83 54.8984C200.44 54.4557 200.131 53.8904 199.902 53.2024C199.678 52.5144 199.566 51.6877 199.566 50.7224ZM201.27 50.7224C201.27 51.6077 201.374 52.3464 201.582 52.9384C201.795 53.5251 202.08 53.9624 202.438 54.2504C202.8 54.5331 203.203 54.6744 203.646 54.6744C204.099 54.6744 204.502 54.5304 204.854 54.2424C205.211 53.9544 205.494 53.5171 205.702 52.9304C205.91 52.3437 206.014 51.6077 206.014 50.7224C206.014 49.8531 205.91 49.1251 205.702 48.5384C205.494 47.9517 205.211 47.5091 204.854 47.2104C204.502 46.9064 204.099 46.7544 203.646 46.7544C203.203 46.7544 202.8 46.9064 202.438 47.2104C202.08 47.5091 201.795 47.9544 201.582 48.5464C201.374 49.1331 201.27 49.8584 201.27 50.7224ZM212.797 46.7064C212.386 46.7064 212.024 46.7944 211.709 46.9704C211.4 47.1411 211.141 47.3437 210.933 47.5784C210.725 47.8131 210.565 48.0264 210.453 48.2184C210.346 48.4104 210.288 48.5171 210.277 48.5384L208.813 47.8824C208.824 47.8344 208.874 47.7144 208.965 47.5224C209.056 47.3251 209.197 47.1011 209.389 46.8504C209.581 46.5944 209.829 46.3437 210.133 46.0984C210.442 45.8531 210.816 45.6504 211.253 45.4904C211.696 45.3251 212.21 45.2424 212.797 45.2424C213.432 45.2424 213.97 45.3304 214.413 45.5064C214.856 45.6824 215.216 45.9251 215.493 46.2344C215.77 46.5384 215.973 46.8877 216.101 47.2824C216.229 47.6771 216.293 48.0931 216.293 48.5304C216.293 48.9784 216.189 49.4317 215.981 49.8904C215.778 50.3491 215.514 50.7944 215.189 51.2264C214.864 51.6531 214.514 52.0531 214.141 52.4264C213.768 52.7997 213.405 53.1331 213.053 53.4264C212.706 53.7197 212.408 53.9597 212.157 54.1464C211.912 54.3331 211.757 54.4504 211.693 54.4984H216.205V55.9944H209.101V54.6344C209.24 54.5224 209.466 54.3437 209.781 54.0984C210.101 53.8531 210.469 53.5624 210.885 53.2264C211.301 52.8851 211.722 52.5144 212.149 52.1144C212.581 51.7144 212.981 51.3037 213.349 50.8824C213.722 50.4611 214.021 50.0477 214.245 49.6424C214.474 49.2371 214.589 48.8584 214.589 48.5064C214.589 47.8451 214.434 47.3811 214.125 47.1144C213.816 46.8424 213.373 46.7064 212.797 46.7064ZM223.577 45.4344V52.2744H224.785V53.7704H223.577V55.9944H221.889V53.7704H217.473V52.4024L221.697 45.4344H223.577ZM221.889 52.2744V47.8104H221.881L219.217 52.2744H221.889Z" fill="white"/>
<path d="M36 44.4944C36 40.0761 39.5817 36.4944 44 36.4944H60C64.4183 36.4944 68 40.0761 68 44.4944V60.4944C68 64.9127 64.4183 68.4944 60 68.4944H44C39.5817 68.4944 36 64.9127 36 60.4944V44.4944Z" fill="#2D4354" fill-opacity="0.32"/>
<path d="M49.1669 46.1611C49.1669 46.0285 49.1142 45.9013 49.0205 45.8075C48.9267 45.7138 48.7995 45.6611 48.6669 45.6611C48.5343 45.6611 48.4071 45.7138 48.3133 45.8075C48.2196 45.9013 48.1669 46.0285 48.1669 46.1611V47.2144C47.2069 47.2911 46.5776 47.4791 46.1149 47.9424C45.6516 48.4051 45.4636 49.0351 45.3862 49.9944H58.6142C58.5369 49.0344 58.3489 48.4051 57.8856 47.9424C57.4229 47.4791 56.7929 47.2911 55.8336 47.2137V46.1611C55.8336 46.0285 55.7809 45.9013 55.6871 45.8075C55.5933 45.7138 55.4662 45.6611 55.3336 45.6611C55.201 45.6611 55.0738 45.7138 54.98 45.8075C54.8862 45.9013 54.8336 46.0285 54.8336 46.1611V47.1697C54.3902 47.1611 53.8929 47.1611 53.3336 47.1611H50.6669C50.1076 47.1611 49.6102 47.1611 49.1669 47.1697V46.1611Z" fill="white"/>
<path fillRule="evenodd" clipRule="evenodd" d="M45.3335 52.4944C45.3335 51.9351 45.3335 51.4377 45.3422 50.9944H58.6582C58.6668 51.4377 58.6668 51.9351 58.6668 52.4944V53.8277C58.6668 56.3417 58.6668 57.5991 57.8855 58.3797C57.1048 59.1611 55.8475 59.1611 53.3335 59.1611H50.6668C48.1528 59.1611 46.8955 59.1611 46.1148 58.3797C45.3335 57.5991 45.3335 56.3417 45.3335 53.8277V52.4944ZM55.3335 53.8277C55.5103 53.8277 55.6799 53.7575 55.8049 53.6325C55.9299 53.5074 56.0002 53.3379 56.0002 53.1611C56.0002 52.9842 55.9299 52.8147 55.8049 52.6896C55.6799 52.5646 55.5103 52.4944 55.3335 52.4944C55.1567 52.4944 54.9871 52.5646 54.8621 52.6896C54.7371 52.8147 54.6668 52.9842 54.6668 53.1611C54.6668 53.3379 54.7371 53.5074 54.8621 53.6325C54.9871 53.7575 55.1567 53.8277 55.3335 53.8277ZM55.3335 56.4944C55.5103 56.4944 55.6799 56.4241 55.8049 56.2991C55.9299 56.1741 56.0002 56.0045 56.0002 55.8277C56.0002 55.6509 55.9299 55.4813 55.8049 55.3563C55.6799 55.2313 55.5103 55.1611 55.3335 55.1611C55.1567 55.1611 54.9871 55.2313 54.8621 55.3563C54.7371 55.4813 54.6668 55.6509 54.6668 55.8277C54.6668 56.0045 54.7371 56.1741 54.8621 56.2991C54.9871 56.4241 55.1567 56.4944 55.3335 56.4944ZM52.6668 53.1611C52.6668 53.3379 52.5966 53.5074 52.4716 53.6325C52.3465 53.7575 52.177 53.8277 52.0002 53.8277C51.8234 53.8277 51.6538 53.7575 51.5288 53.6325C51.4037 53.5074 51.3335 53.3379 51.3335 53.1611C51.3335 52.9842 51.4037 52.8147 51.5288 52.6896C51.6538 52.5646 51.8234 52.4944 52.0002 52.4944C52.177 52.4944 52.3465 52.5646 52.4716 52.6896C52.5966 52.8147 52.6668 52.9842 52.6668 53.1611ZM52.6668 55.8277C52.6668 56.0045 52.5966 56.1741 52.4716 56.2991C52.3465 56.4241 52.177 56.4944 52.0002 56.4944C51.8234 56.4944 51.6538 56.4241 51.5288 56.2991C51.4037 56.1741 51.3335 56.0045 51.3335 55.8277C51.3335 55.6509 51.4037 55.4813 51.5288 55.3563C51.6538 55.2313 51.8234 55.1611 52.0002 55.1611C52.177 55.1611 52.3465 55.2313 52.4716 55.3563C52.5966 55.4813 52.6668 55.6509 52.6668 55.8277ZM48.6668 53.8277C48.8436 53.8277 49.0132 53.7575 49.1382 53.6325C49.2633 53.5074 49.3335 53.3379 49.3335 53.1611C49.3335 52.9842 49.2633 52.8147 49.1382 52.6896C49.0132 52.5646 48.8436 52.4944 48.6668 52.4944C48.49 52.4944 48.3204 52.5646 48.1954 52.6896C48.0704 52.8147 48.0002 52.9842 48.0002 53.1611C48.0002 53.3379 48.0704 53.5074 48.1954 53.6325C48.3204 53.7575 48.49 53.8277 48.6668 53.8277ZM48.6668 56.4944C48.8436 56.4944 49.0132 56.4241 49.1382 56.2991C49.2633 56.1741 49.3335 56.0045 49.3335 55.8277C49.3335 55.6509 49.2633 55.4813 49.1382 55.3563C49.0132 55.2313 48.8436 55.1611 48.6668 55.1611C48.49 55.1611 48.3204 55.2313 48.1954 55.3563C48.0704 55.4813 48.0002 55.6509 48.0002 55.8277C48.0002 56.0045 48.0704 56.1741 48.1954 56.2991C48.3204 56.4241 48.49 56.4944 48.6668 56.4944Z" fill="white"/>
<g clip-path="url(#clip0_6512_20674)">
<path d="M57.2551 84.2544V93.4944H56.0651V86.8234L56.1281 85.8014L55.8761 86.9284L53.6501 92.9694H52.4671L50.2411 86.9284L49.9961 85.8014L50.0521 86.8234V93.4944H48.8551V84.2544H50.4511L52.9711 91.5064L53.0551 91.9754L53.1461 91.5064L55.6731 84.2544H57.2551ZM63.7974 93.4944V92.3744C63.76 92.4911 63.6504 92.6521 63.4684 92.8574C63.291 93.0627 63.046 93.2494 62.7334 93.4174C62.4254 93.5807 62.0614 93.6624 61.6414 93.6624C61.1094 93.6624 60.6264 93.5364 60.1924 93.2844C59.763 93.0324 59.42 92.6801 59.1634 92.2274C58.9114 91.7701 58.7854 91.2357 58.7854 90.6244C58.7854 90.0131 58.9114 89.4811 59.1634 89.0284C59.42 88.5711 59.763 88.2164 60.1924 87.9644C60.6264 87.7077 61.1094 87.5794 61.6414 87.5794C62.0567 87.5794 62.416 87.6541 62.7194 87.8034C63.0274 87.9527 63.2724 88.1254 63.4544 88.3214C63.641 88.5174 63.7507 88.6854 63.7834 88.8254V87.7474H64.9874V93.4944H63.7974ZM59.9894 90.6244C59.9894 91.0397 60.0804 91.3991 60.2624 91.7024C60.4444 92.0057 60.68 92.2414 60.9694 92.4094C61.2634 92.5727 61.576 92.6544 61.9074 92.6544C62.262 92.6544 62.5794 92.5704 62.8594 92.4024C63.1394 92.2344 63.361 91.9987 63.5244 91.6954C63.6877 91.3874 63.7694 91.0304 63.7694 90.6244C63.7694 90.2184 63.6877 89.8637 63.5244 89.5604C63.361 89.2524 63.1394 89.0144 62.8594 88.8464C62.5794 88.6737 62.262 88.5874 61.9074 88.5874C61.576 88.5874 61.2634 88.6714 60.9694 88.8394C60.68 89.0074 60.4444 89.2431 60.2624 89.5464C60.0804 89.8497 59.9894 90.2091 59.9894 90.6244Z" fill="#E2EAF0"/>
<path d="M96.8958 85.3394H94.4038V84.2544H100.592V85.3394H98.0998V93.4944H96.8958V85.3394ZM101.44 93.4944V87.7474H102.658V93.4944H101.44ZM102.063 85.7804C101.844 85.7804 101.655 85.7034 101.496 85.5494C101.342 85.3907 101.265 85.2017 101.265 84.9824C101.265 84.7631 101.342 84.5741 101.496 84.4154C101.655 84.2567 101.844 84.1774 102.063 84.1774C102.208 84.1774 102.341 84.2147 102.462 84.2894C102.588 84.3641 102.689 84.4621 102.763 84.5834C102.838 84.7001 102.875 84.8331 102.875 84.9824C102.875 85.2017 102.796 85.3907 102.637 85.5494C102.479 85.7034 102.287 85.7804 102.063 85.7804Z" fill="#E2EAF0"/>
<path d="M133.927 88.8674C133.927 89.5534 134.069 90.1717 134.354 90.7224C134.643 91.2731 135.04 91.7117 135.544 92.0384C136.048 92.3604 136.627 92.5214 137.28 92.5214C137.938 92.5214 138.517 92.3604 139.016 92.0384C139.52 91.7117 139.914 91.2731 140.199 90.7224C140.484 90.1717 140.626 89.5534 140.626 88.8674C140.626 88.1814 140.484 87.5654 140.199 87.0194C139.914 86.4687 139.52 86.0324 139.016 85.7104C138.517 85.3884 137.938 85.2274 137.28 85.2274C136.627 85.2274 136.048 85.3884 135.544 85.7104C135.04 86.0324 134.643 86.4687 134.354 87.0194C134.069 87.5654 133.927 88.1814 133.927 88.8674ZM132.688 88.8674C132.688 88.1954 132.802 87.5701 133.031 86.9914C133.264 86.4081 133.589 85.8994 134.004 85.4654C134.419 85.0314 134.905 84.6931 135.46 84.4504C136.02 84.2077 136.627 84.0864 137.28 84.0864C137.938 84.0864 138.545 84.2077 139.1 84.4504C139.66 84.6931 140.145 85.0314 140.556 85.4654C140.971 85.8994 141.293 86.4081 141.522 86.9914C141.751 87.5701 141.865 88.1954 141.865 88.8674C141.865 89.5441 141.751 90.1741 141.522 90.7574C141.298 91.3361 140.978 91.8447 140.563 92.2834C140.152 92.7174 139.669 93.0557 139.114 93.2984C138.559 93.5411 137.947 93.6624 137.28 93.6624C136.613 93.6624 135.997 93.5411 135.432 93.2984C134.872 93.0557 134.387 92.7174 133.976 92.2834C133.565 91.8447 133.248 91.3361 133.024 90.7574C132.8 90.1741 132.688 89.5441 132.688 88.8674ZM146.438 87.5794C146.816 87.5794 147.183 87.6587 147.537 87.8174C147.897 87.9761 148.191 88.2281 148.419 88.5734C148.653 88.9141 148.769 89.3597 148.769 89.9104V93.4944H147.537V90.1484C147.537 89.5791 147.404 89.1661 147.138 88.9094C146.872 88.6481 146.529 88.5174 146.109 88.5174C145.834 88.5174 145.568 88.5967 145.311 88.7554C145.059 88.9094 144.852 89.1241 144.688 89.3994C144.525 89.6701 144.443 89.9781 144.443 90.3234V93.4944H143.225V87.7474H144.443V88.7694C144.485 88.6107 144.6 88.4381 144.786 88.2514C144.973 88.0647 145.211 87.9061 145.5 87.7754C145.79 87.6447 146.102 87.5794 146.438 87.5794Z" fill="#E2EAF0"/>
<path d="M179.269 85.3394H176.777V84.2544H182.965V85.3394H180.473V93.4944H179.269V85.3394ZM185.78 93.6624C185.187 93.6624 184.66 93.5294 184.198 93.2634C183.74 92.9974 183.381 92.6381 183.12 92.1854C182.858 91.7281 182.728 91.2124 182.728 90.6384C182.728 90.0644 182.858 89.5464 183.12 89.0844C183.381 88.6224 183.74 88.2561 184.198 87.9854C184.66 87.7147 185.187 87.5794 185.78 87.5794C186.368 87.5794 186.888 87.7147 187.341 87.9854C187.798 88.2561 188.155 88.6224 188.412 89.0844C188.668 89.5464 188.797 90.0644 188.797 90.6384C188.797 91.2124 188.668 91.7281 188.412 92.1854C188.155 92.6381 187.798 92.9974 187.341 93.2634C186.888 93.5294 186.368 93.6624 185.78 93.6624ZM185.78 92.6194C186.153 92.6194 186.477 92.5331 186.753 92.3604C187.033 92.1877 187.25 91.9521 187.404 91.6534C187.558 91.3501 187.635 91.0094 187.635 90.6314C187.635 90.2534 187.558 89.9127 187.404 89.6094C187.25 89.3061 187.033 89.0657 186.753 88.8884C186.477 88.7111 186.153 88.6224 185.78 88.6224C185.402 88.6224 185.073 88.7111 184.793 88.8884C184.513 89.0657 184.293 89.3061 184.135 89.6094C183.981 89.9127 183.904 90.2534 183.904 90.6314C183.904 91.0094 183.981 91.3501 184.135 91.6534C184.293 91.9521 184.513 92.1877 184.793 92.3604C185.073 92.5331 185.402 92.6194 185.78 92.6194Z" fill="#E2EAF0"/>
<path d="M220.137 84.2544H224.953V85.3394H221.327V88.3214H224.708V89.3994H221.327V93.4944H220.137V84.2544ZM227.67 93.4944H226.459V87.7474H227.67V88.7414H227.635C227.659 88.6201 227.745 88.4684 227.894 88.2864C228.044 88.1044 228.249 87.9411 228.51 87.7964C228.772 87.6517 229.084 87.5794 229.448 87.5794C229.714 87.5794 229.948 87.6167 230.148 87.6914C230.354 87.7614 230.498 87.8314 230.582 87.9014L230.085 88.9094C230.02 88.8441 229.906 88.7787 229.742 88.7134C229.579 88.6434 229.376 88.6084 229.133 88.6084C228.825 88.6084 228.562 88.7041 228.342 88.8954C228.123 89.0867 227.955 89.3177 227.838 89.5884C227.726 89.8544 227.67 90.1017 227.67 90.3304V93.4944Z" fill="#E2EAF0"/>
<path d="M261.084 84.2544H262.281V92.4094H265.914V93.4944H261.084V84.2544ZM272.768 87.4814L273.202 87.8734L267.441 93.7184L267.014 93.3264L272.768 87.4814ZM270.122 93.6624C269.529 93.6624 269.002 93.5294 268.54 93.2634C268.082 92.9974 267.723 92.6381 267.462 92.1854C267.2 91.7281 267.07 91.2124 267.07 90.6384C267.07 90.0644 267.2 89.5464 267.462 89.0844C267.723 88.6224 268.082 88.2561 268.54 87.9854C269.002 87.7147 269.529 87.5794 270.122 87.5794C270.71 87.5794 271.23 87.7147 271.683 87.9854C272.14 88.2561 272.497 88.6224 272.754 89.0844C273.01 89.5464 273.139 90.0644 273.139 90.6384C273.139 91.2124 273.01 91.7281 272.754 92.1854C272.497 92.6381 272.14 92.9974 271.683 93.2634C271.23 93.5294 270.71 93.6624 270.122 93.6624ZM270.122 92.6194C270.495 92.6194 270.819 92.5331 271.095 92.3604C271.375 92.1877 271.592 91.9521 271.746 91.6534C271.9 91.3501 271.977 91.0094 271.977 90.6314C271.977 90.2534 271.9 89.9127 271.746 89.6094C271.592 89.3061 271.375 89.0657 271.095 88.8884C270.819 88.7111 270.495 88.6224 270.122 88.6224C269.744 88.6224 269.415 88.7111 269.135 88.8884C268.855 89.0657 268.635 89.3061 268.477 89.6094C268.323 89.9127 268.246 90.2534 268.246 90.6314C268.246 91.0094 268.323 91.3501 268.477 91.6534C268.635 91.9521 268.855 92.1877 269.135 92.3604C269.415 92.5331 269.744 92.6194 270.122 92.6194Z" fill="#E2EAF0"/>
<path d="M305.469 84.0864C306.001 84.0864 306.459 84.1471 306.841 84.2684C307.229 84.3897 307.532 84.5181 307.751 84.6534C307.975 84.7887 308.108 84.8774 308.15 84.9194L307.534 85.9064C307.464 85.8457 307.341 85.7594 307.163 85.6474C306.986 85.5307 306.764 85.4281 306.498 85.3394C306.232 85.2461 305.929 85.1994 305.588 85.1994C305.061 85.1994 304.643 85.3067 304.335 85.5214C304.032 85.7314 303.88 86.0301 303.88 86.4174C303.88 86.6787 303.96 86.9097 304.118 87.1104C304.282 87.3064 304.51 87.4861 304.804 87.6494C305.098 87.8127 305.441 87.9807 305.833 88.1534C306.155 88.2887 306.47 88.4427 306.778 88.6154C307.091 88.7881 307.373 88.9911 307.625 89.2244C307.882 89.4577 308.085 89.7284 308.234 90.0364C308.388 90.3444 308.465 90.6991 308.465 91.1004C308.465 91.4971 308.384 91.8541 308.22 92.1714C308.062 92.4887 307.835 92.7594 307.541 92.9834C307.252 93.2027 306.914 93.3707 306.526 93.4874C306.139 93.6041 305.721 93.6624 305.273 93.6624C304.709 93.6624 304.198 93.5924 303.74 93.4524C303.288 93.3124 302.921 93.1654 302.641 93.0114C302.366 92.8574 302.207 92.7617 302.165 92.7244L302.816 91.6954C302.872 91.7421 302.975 91.8121 303.124 91.9054C303.274 91.9941 303.458 92.0874 303.677 92.1854C303.897 92.2834 304.144 92.3674 304.419 92.4374C304.695 92.5027 304.989 92.5354 305.301 92.5354C305.927 92.5354 306.4 92.3954 306.722 92.1154C307.044 91.8354 307.205 91.4761 307.205 91.0374C307.205 90.7014 307.103 90.4121 306.897 90.1694C306.692 89.9267 306.419 89.7097 306.078 89.5184C305.738 89.3271 305.362 89.1427 304.951 88.9654C304.531 88.7741 304.146 88.5641 303.796 88.3354C303.446 88.1067 303.164 87.8337 302.949 87.5164C302.739 87.1944 302.634 86.8071 302.634 86.3544C302.634 85.9064 302.76 85.5121 303.012 85.1714C303.269 84.8307 303.612 84.5647 304.041 84.3734C304.475 84.1821 304.951 84.0864 305.469 84.0864ZM315.26 87.4814L315.694 87.8734L309.933 93.7184L309.506 93.3264L315.26 87.4814ZM312.614 93.6624C312.021 93.6624 311.494 93.5294 311.032 93.2634C310.574 92.9974 310.215 92.6381 309.954 92.1854C309.692 91.7281 309.562 91.2124 309.562 90.6384C309.562 90.0644 309.692 89.5464 309.954 89.0844C310.215 88.6224 310.574 88.2561 311.032 87.9854C311.494 87.7147 312.021 87.5794 312.614 87.5794C313.202 87.5794 313.722 87.7147 314.175 87.9854C314.632 88.2561 314.989 88.6224 315.246 89.0844C315.502 89.5464 315.631 90.0644 315.631 90.6384C315.631 91.2124 315.502 91.7281 315.246 92.1854C314.989 92.6381 314.632 92.9974 314.175 93.2634C313.722 93.5294 313.202 93.6624 312.614 93.6624ZM312.614 92.6194C312.987 92.6194 313.311 92.5331 313.587 92.3604C313.867 92.1877 314.084 91.9521 314.238 91.6534C314.392 91.3501 314.469 91.0094 314.469 90.6314C314.469 90.2534 314.392 89.9127 314.238 89.6094C314.084 89.3061 313.867 89.0657 313.587 88.8884C313.311 88.7111 312.987 88.6224 312.614 88.6224C312.236 88.6224 311.907 88.7111 311.627 88.8884C311.347 89.0657 311.127 89.3061 310.969 89.6094C310.815 89.9127 310.738 90.2534 310.738 90.6314C310.738 91.0094 310.815 91.3501 310.969 91.6534C311.127 91.9521 311.347 92.1877 311.627 92.3604C311.907 92.5331 312.236 92.6194 312.614 92.6194Z" fill="#E2EAF0"/>
<path d="M38.1001 114.494C38.1001 112.285 39.891 110.494 42.1001 110.494H71.9001C74.1092 110.494 75.9001 112.285 75.9001 114.494V142.494C75.9001 144.704 74.1092 146.494 71.9001 146.494H42.1001C39.891 146.494 38.1001 144.704 38.1001 142.494V114.494Z" fill="#121B22"/>
<path d="M56.7924 125.745L55.1894 126.655V125.479L57.3104 124.254H57.9964V133.494H56.7924V125.745Z" fill="white"/>
<path d="M80.1001 114.494C80.1001 112.285 81.891 110.494 84.1001 110.494H113.9C116.109 110.494 117.9 112.285 117.9 114.494V142.494C117.9 144.704 116.109 146.494 113.9 146.494H84.1001C81.891 146.494 80.1001 144.704 80.1001 142.494V114.494Z" fill="#121B22"/>
<path d="M98.9445 125.143C98.5572 125.143 98.2189 125.223 97.9295 125.381C97.6449 125.535 97.4045 125.717 97.2085 125.927C97.0172 126.133 96.8702 126.322 96.7675 126.494C96.6695 126.662 96.6159 126.756 96.6065 126.774L95.5495 126.312C95.5589 126.27 95.6032 126.17 95.6825 126.011C95.7619 125.848 95.8855 125.659 96.0535 125.444C96.2215 125.23 96.4362 125.02 96.6975 124.814C96.9589 124.604 97.2739 124.432 97.6425 124.296C98.0159 124.156 98.4499 124.086 98.9445 124.086C99.4485 124.086 99.8849 124.156 100.254 124.296C100.622 124.436 100.926 124.632 101.164 124.884C101.402 125.136 101.579 125.435 101.696 125.78C101.812 126.126 101.871 126.501 101.871 126.907C101.871 127.299 101.777 127.701 101.591 128.111C101.404 128.522 101.161 128.926 100.863 129.322C100.564 129.714 100.242 130.085 99.8965 130.435C99.5559 130.781 99.2245 131.093 98.9025 131.373C98.5852 131.653 98.3099 131.884 98.0765 132.066C97.8479 132.244 97.6985 132.36 97.6285 132.416H101.794V133.494H95.7595V132.507C95.9042 132.395 96.1212 132.225 96.4105 131.996C96.7045 131.763 97.0359 131.49 97.4045 131.177C97.7732 130.865 98.1465 130.526 98.5245 130.162C98.9025 129.798 99.2525 129.427 99.5745 129.049C99.8965 128.667 100.156 128.293 100.352 127.929C100.552 127.561 100.653 127.215 100.653 126.893C100.653 126.249 100.503 125.797 100.205 125.535C99.9105 125.274 99.4905 125.143 98.9445 125.143Z" fill="white"/>
<path d="M122.1 114.494C122.1 112.285 123.891 110.494 126.1 110.494H155.9C158.109 110.494 159.9 112.285 159.9 114.494V142.494C159.9 144.704 158.109 146.494 155.9 146.494H126.1C123.891 146.494 122.1 144.704 122.1 142.494V114.494Z" fill="#121B22"/>
<path d="M138.028 125.724C138.056 125.617 138.131 125.472 138.252 125.29C138.373 125.108 138.546 124.926 138.77 124.744C138.999 124.558 139.281 124.401 139.617 124.275C139.958 124.149 140.361 124.086 140.828 124.086C141.416 124.086 141.918 124.196 142.333 124.415C142.753 124.63 143.073 124.924 143.292 125.297C143.516 125.671 143.628 126.091 143.628 126.557C143.628 126.917 143.558 127.241 143.418 127.53C143.278 127.82 143.096 128.058 142.872 128.244C142.653 128.426 142.419 128.538 142.172 128.58C142.433 128.604 142.699 128.706 142.97 128.888C143.241 129.07 143.467 129.32 143.649 129.637C143.831 129.955 143.922 130.335 143.922 130.778C143.922 131.324 143.789 131.817 143.523 132.255C143.262 132.689 142.895 133.032 142.424 133.284C141.957 133.536 141.416 133.662 140.8 133.662C140.193 133.662 139.675 133.56 139.246 133.354C138.821 133.144 138.481 132.89 138.224 132.591C137.967 132.293 137.792 132.003 137.699 131.723L138.798 131.156C138.868 131.362 138.987 131.576 139.155 131.8C139.328 132.02 139.549 132.206 139.82 132.36C140.095 132.514 140.417 132.591 140.786 132.591C141.197 132.591 141.544 132.51 141.829 132.346C142.118 132.178 142.338 131.957 142.487 131.681C142.636 131.401 142.711 131.091 142.711 130.75C142.711 130.372 142.62 130.062 142.438 129.819C142.261 129.577 142.025 129.399 141.731 129.287C141.437 129.171 141.122 129.112 140.786 129.112H140.604V128.188H140.842C141.141 128.188 141.416 128.128 141.668 128.006C141.925 127.885 142.13 127.708 142.284 127.474C142.443 127.241 142.522 126.963 142.522 126.641C142.522 126.212 142.38 125.848 142.095 125.549C141.81 125.251 141.381 125.101 140.807 125.101C140.49 125.101 140.219 125.148 139.995 125.241C139.776 125.335 139.598 125.449 139.463 125.584C139.328 125.715 139.225 125.839 139.155 125.955C139.09 126.072 139.052 126.156 139.043 126.207L138.028 125.724Z" fill="white"/>
<path d="M164.6 114.494C164.6 112.561 166.167 110.994 168.1 110.994H197.9C199.833 110.994 201.4 112.561 201.4 114.494V142.494C201.4 144.427 199.833 145.994 197.9 145.994H168.1C166.167 145.994 164.6 144.427 164.6 142.494V114.494Z" fill="#1B2832" stroke="#4B75D3"/>
<path d="M185.258 124.254V129.721H186.329V131.548H185.258V133.494H183.172V131.548H179.364V129.889L182.857 124.254H185.258ZM183.172 129.721V126.935H183.158L181.471 129.721H183.172Z" fill="white"/>
<path fillRule="evenodd" clipRule="evenodd" d="M198.5 114.1V116.284V116.285V116.285C198.5 117.64 198.5 118.317 198.214 118.613C198.084 118.751 197.911 118.84 197.724 118.867C197.34 118.916 196.891 118.47 195.995 117.578C195.599 117.183 195.4 116.986 195.171 116.935C195.058 116.909 194.942 116.909 194.829 116.935C194.601 116.986 194.402 117.183 194.008 117.575L194.005 117.578C193.108 118.47 192.66 118.916 192.277 118.867C192.089 118.841 191.915 118.751 191.785 118.613C191.5 118.317 191.5 117.64 191.5 116.285V114.1C191.5 112.223 191.5 111.285 192.013 110.702C192.526 110.119 193.35 110.119 195 110.119C196.65 110.119 197.474 110.119 197.987 110.702C198.5 111.285 198.5 112.223 198.5 114.1Z" fill="#55C5CD"/>
<path d="M206.1 114.494C206.1 112.285 207.891 110.494 210.1 110.494H239.9C242.109 110.494 243.9 112.285 243.9 114.494V142.494C243.9 144.704 242.109 146.494 239.9 146.494H210.1C207.891 146.494 206.1 144.704 206.1 142.494V114.494Z" fill="#121B22"/>
<path d="M222.905 131.45C222.933 131.534 222.986 131.642 223.066 131.772C223.15 131.903 223.264 132.034 223.409 132.164C223.553 132.29 223.735 132.398 223.955 132.486C224.174 132.575 224.438 132.619 224.746 132.619C225.366 132.619 225.852 132.421 226.202 132.024C226.552 131.623 226.724 131.096 226.72 130.442C226.715 129.836 226.554 129.367 226.237 129.035C225.919 128.704 225.497 128.538 224.97 128.538C224.643 128.538 224.356 128.599 224.109 128.72C223.866 128.837 223.668 128.979 223.514 129.147C223.364 129.315 223.259 129.474 223.199 129.623L222.142 129.266L222.933 124.254H227.539V125.332H223.969L223.535 128.209C223.558 128.167 223.637 128.093 223.773 127.985C223.913 127.873 224.109 127.771 224.361 127.677C224.613 127.579 224.918 127.53 225.278 127.53C225.744 127.53 226.178 127.635 226.58 127.845C226.981 128.051 227.305 128.366 227.553 128.79C227.8 129.21 227.926 129.742 227.931 130.386C227.931 131.03 227.805 131.6 227.553 132.094C227.305 132.584 226.946 132.969 226.475 133.249C226.003 133.525 225.441 133.662 224.788 133.662C224.307 133.662 223.892 133.602 223.542 133.48C223.196 133.354 222.907 133.198 222.674 133.011C222.44 132.825 222.258 132.638 222.128 132.451C221.997 132.26 221.906 132.099 221.855 131.968L222.905 131.45Z" fill="white"/>
<path d="M248.1 114.494C248.1 112.285 249.891 110.494 252.1 110.494H281.9C284.109 110.494 285.9 112.285 285.9 114.494V142.494C285.9 144.704 284.109 146.494 281.9 146.494H252.1C249.891 146.494 248.1 144.704 248.1 142.494V114.494Z" fill="#121B22"/>
<path d="M267.156 127.474C267.678 127.474 268.161 127.605 268.605 127.866C269.053 128.123 269.414 128.482 269.69 128.944C269.965 129.402 270.103 129.934 270.103 130.54C270.103 131.142 269.956 131.679 269.662 132.15C269.372 132.617 268.98 132.986 268.486 133.256C267.996 133.527 267.454 133.662 266.862 133.662C266.255 133.662 265.707 133.529 265.217 133.263C264.731 132.993 264.346 132.615 264.062 132.129C263.777 131.644 263.635 131.077 263.635 130.428C263.635 129.747 263.751 129.171 263.985 128.699C264.218 128.223 264.493 127.789 264.811 127.397L267.324 124.254H268.759L265.714 127.943C265.816 127.831 265.991 127.726 266.239 127.628C266.491 127.526 266.796 127.474 267.156 127.474ZM266.883 132.647C267.265 132.647 267.613 132.554 267.926 132.367C268.243 132.176 268.495 131.922 268.682 131.604C268.868 131.287 268.962 130.937 268.962 130.554C268.962 130.172 268.868 129.824 268.682 129.511C268.495 129.194 268.243 128.942 267.926 128.755C267.613 128.569 267.265 128.475 266.883 128.475C266.495 128.475 266.143 128.569 265.826 128.755C265.513 128.942 265.261 129.194 265.07 129.511C264.883 129.824 264.79 130.172 264.79 130.554C264.79 130.937 264.883 131.287 265.07 131.604C265.261 131.922 265.513 132.176 265.826 132.367C266.143 132.554 266.495 132.647 266.883 132.647Z" fill="white"/>
<path d="M290.1 114.494C290.1 112.285 291.891 110.494 294.1 110.494H323.9C326.109 110.494 327.9 112.285 327.9 114.494V142.494C327.9 144.704 326.109 146.494 323.9 146.494H294.1C291.891 146.494 290.1 144.704 290.1 142.494V114.494Z" fill="#121B22"/>
<path d="M306.175 124.254H312.146V125.115L307.386 133.494H306.042L310.732 125.332H306.175V124.254Z" fill="white"/>
<path d="M38.1001 154.494C38.1001 152.285 39.891 150.494 42.1001 150.494H71.9001C74.1092 150.494 75.9001 152.285 75.9001 154.494V182.494C75.9001 184.704 74.1092 186.494 71.9001 186.494H42.1001C39.891 186.494 38.1001 184.704 38.1001 182.494V154.494Z" fill="#121B22"/>
<path d="M56.889 173.662C56.3104 173.662 55.79 173.543 55.328 173.305C54.866 173.067 54.502 172.745 54.236 172.339C53.97 171.929 53.837 171.469 53.837 170.96C53.837 170.503 53.914 170.116 54.068 169.798C54.2267 169.476 54.439 169.21 54.705 169C54.971 168.79 55.2604 168.627 55.573 168.51C55.3444 168.403 55.1274 168.263 54.922 168.09C54.7214 167.913 54.5557 167.691 54.425 167.425C54.2944 167.155 54.229 166.828 54.229 166.445C54.229 165.979 54.348 165.568 54.586 165.213C54.824 164.859 55.1414 164.583 55.538 164.387C55.9394 164.187 56.3874 164.086 56.882 164.086C57.3767 164.086 57.8224 164.187 58.219 164.387C58.6157 164.583 58.9284 164.859 59.157 165.213C59.3904 165.568 59.507 165.979 59.507 166.445C59.507 167.019 59.374 167.465 59.108 167.782C58.8467 168.1 58.5387 168.342 58.184 168.51C58.4967 168.627 58.7837 168.79 59.045 169C59.311 169.21 59.5234 169.476 59.682 169.798C59.8454 170.116 59.927 170.503 59.927 170.96C59.927 171.469 59.794 171.929 59.528 172.339C59.2667 172.745 58.905 173.067 58.443 173.305C57.9857 173.543 57.4677 173.662 56.889 173.662ZM56.882 172.584C57.2134 172.584 57.512 172.507 57.778 172.353C58.0487 172.199 58.2634 171.989 58.422 171.723C58.5854 171.457 58.667 171.161 58.667 170.834C58.667 170.503 58.5854 170.207 58.422 169.945C58.2634 169.679 58.0487 169.469 57.778 169.315C57.512 169.157 57.2134 169.077 56.882 169.077C56.5507 169.077 56.2474 169.157 55.972 169.315C55.7014 169.469 55.4867 169.679 55.328 169.945C55.1694 170.207 55.09 170.503 55.09 170.834C55.09 171.161 55.1694 171.457 55.328 171.723C55.4867 171.989 55.7014 172.199 55.972 172.353C56.2474 172.507 56.5507 172.584 56.882 172.584ZM56.882 168.097C57.162 168.097 57.414 168.03 57.638 167.894C57.8667 167.759 58.0487 167.577 58.184 167.348C58.324 167.115 58.394 166.858 58.394 166.578C58.394 166.303 58.324 166.051 58.184 165.822C58.0487 165.594 57.8667 165.412 57.638 165.276C57.414 165.141 57.162 165.073 56.882 165.073C56.6067 165.073 56.3524 165.141 56.119 165.276C55.8904 165.412 55.706 165.594 55.566 165.822C55.4307 166.051 55.363 166.303 55.363 166.578C55.363 166.858 55.4307 167.115 55.566 167.348C55.706 167.577 55.8904 167.759 56.119 167.894C56.3524 168.03 56.6067 168.097 56.882 168.097Z" fill="white"/>
<path fillRule="evenodd" clipRule="evenodd" d="M72.5 154.1V156.284V156.285V156.285C72.5 157.64 72.5 158.317 72.2139 158.613C72.0842 158.751 71.9113 158.84 71.7239 158.867C71.3397 158.916 70.8909 158.47 69.9949 157.578C69.5985 157.183 69.3999 156.986 69.1706 156.935C69.0583 156.909 68.9417 156.909 68.8294 156.935C68.6007 156.986 68.4025 157.183 68.0081 157.575L68.0051 157.578C67.1082 158.47 66.6602 158.916 66.277 158.867C66.0889 158.841 65.9154 158.751 65.7853 158.613C65.5 158.317 65.5 157.64 65.5 156.285V154.1C65.5 152.223 65.5 151.285 66.0128 150.702C66.5255 150.119 67.3497 150.119 69 150.119C70.6502 150.119 71.4745 150.119 71.9872 150.702C72.5 151.285 72.5 152.223 72.5 154.1Z" fill="#55C5CD"/>
<path d="M80.1001 154.494C80.1001 152.285 81.891 150.494 84.1001 150.494H113.9C116.109 150.494 117.9 152.285 117.9 154.494V182.494C117.9 184.704 116.109 186.494 113.9 186.494H84.1001C81.891 186.494 80.1001 184.704 80.1001 182.494V154.494Z" fill="#121B22"/>
<path d="M97.0414 173.494L100.079 169.805C99.9767 169.917 99.8017 170.025 99.5544 170.127C99.307 170.225 99.0037 170.274 98.6444 170.274C98.1264 170.274 97.641 170.146 97.1884 169.889C96.7404 169.628 96.3787 169.269 96.1034 168.811C95.828 168.349 95.6904 167.815 95.6904 167.208C95.6904 166.606 95.8374 166.072 96.1314 165.605C96.43 165.134 96.8244 164.763 97.3144 164.492C97.8044 164.222 98.3457 164.086 98.9384 164.086C99.545 164.086 100.091 164.222 100.576 164.492C101.062 164.758 101.447 165.134 101.731 165.619C102.021 166.105 102.165 166.672 102.165 167.32C102.165 167.997 102.049 168.573 101.815 169.049C101.582 169.525 101.307 169.959 100.989 170.351L98.4694 173.494H97.0414ZM98.9174 169.273C99.3047 169.273 99.6547 169.18 99.9674 168.993C100.285 168.807 100.537 168.557 100.723 168.244C100.915 167.927 101.01 167.577 101.01 167.194C101.01 166.807 100.915 166.457 100.723 166.144C100.537 165.827 100.285 165.575 99.9674 165.388C99.6547 165.197 99.3047 165.101 98.9174 165.101C98.5347 165.101 98.1847 165.197 97.8674 165.388C97.5547 165.575 97.305 165.827 97.1184 166.144C96.9317 166.457 96.8384 166.807 96.8384 167.194C96.8384 167.577 96.9317 167.927 97.1184 168.244C97.305 168.557 97.5547 168.807 97.8674 168.993C98.1847 169.18 98.5347 169.273 98.9174 169.273Z" fill="white"/>
<path d="M122.1 154.494C122.1 152.285 123.891 150.494 126.1 150.494H155.9C158.109 150.494 159.9 152.285 159.9 154.494V182.494C159.9 184.704 158.109 186.494 155.9 186.494H126.1C123.891 186.494 122.1 184.704 122.1 182.494V154.494Z" fill="#121B22"/>
<path d="M136.725 165.745L135.122 166.655V165.479L137.243 164.254H137.929V173.494H136.725V165.745ZM139.534 168.881C139.534 168.06 139.632 167.348 139.828 166.746C140.029 166.144 140.295 165.647 140.626 165.255C140.962 164.859 141.336 164.565 141.746 164.373C142.162 164.182 142.589 164.086 143.027 164.086C143.466 164.086 143.893 164.182 144.308 164.373C144.724 164.565 145.095 164.859 145.421 165.255C145.753 165.647 146.014 166.144 146.205 166.746C146.401 167.348 146.499 168.06 146.499 168.881C146.499 169.717 146.401 170.438 146.205 171.044C146.014 171.646 145.753 172.141 145.421 172.528C145.095 172.911 144.724 173.196 144.308 173.382C143.893 173.569 143.466 173.662 143.027 173.662C142.589 173.662 142.162 173.569 141.746 173.382C141.336 173.196 140.962 172.911 140.626 172.528C140.295 172.141 140.029 171.646 139.828 171.044C139.632 170.438 139.534 169.717 139.534 168.881ZM140.759 168.881C140.759 169.707 140.862 170.396 141.067 170.946C141.273 171.492 141.546 171.901 141.886 172.171C142.232 172.442 142.612 172.577 143.027 172.577C143.443 172.577 143.821 172.442 144.161 172.171C144.502 171.901 144.775 171.492 144.98 170.946C145.186 170.396 145.288 169.707 145.288 168.881C145.288 168.065 145.186 167.383 144.98 166.837C144.775 166.287 144.502 165.871 144.161 165.591C143.821 165.311 143.443 165.171 143.027 165.171C142.612 165.171 142.232 165.311 141.886 165.591C141.546 165.871 141.273 166.287 141.067 166.837C140.862 167.383 140.759 168.065 140.759 168.881Z" fill="white"/>
<path fillRule="evenodd" clipRule="evenodd" d="M156.5 154.1V156.284V156.285V156.285C156.5 157.64 156.5 158.317 156.214 158.613C156.084 158.751 155.911 158.84 155.724 158.867C155.34 158.916 154.891 158.47 153.995 157.578C153.599 157.183 153.4 156.986 153.171 156.935C153.058 156.909 152.942 156.909 152.829 156.935C152.601 156.986 152.402 157.183 152.008 157.575L152.005 157.578C151.108 158.47 150.66 158.916 150.277 158.867C150.089 158.841 149.915 158.751 149.785 158.613C149.5 158.317 149.5 157.64 149.5 156.285V154.1C149.5 152.223 149.5 151.285 150.013 150.702C150.526 150.119 151.35 150.119 153 150.119C154.65 150.119 155.474 150.119 155.987 150.702C156.5 151.285 156.5 152.223 156.5 154.1Z" fill="#55C5CD"/>
<path d="M164.1 154.494C164.1 152.285 165.891 150.494 168.1 150.494H197.9C200.109 150.494 201.9 152.285 201.9 154.494V182.494C201.9 184.704 200.109 186.494 197.9 186.494H168.1C165.891 186.494 164.1 184.704 164.1 182.494V154.494Z" fill="#121B22"/>
<path d="M180.653 165.745L179.05 166.655V165.479L181.171 164.254H181.857V173.494H180.653V165.745ZM184.932 165.745L183.329 166.655V165.479L185.45 164.254H186.136V173.494H184.932V165.745Z" fill="white"/>
<path d="M206.1 154.494C206.1 152.285 207.891 150.494 210.1 150.494H239.9C242.109 150.494 243.9 152.285 243.9 154.494V182.494C243.9 184.704 242.109 186.494 239.9 186.494H210.1C207.891 186.494 206.1 184.704 206.1 182.494V154.494Z" fill="#121B22"/>
<path d="M220.978 165.745L219.375 166.655V165.479L221.496 164.254H222.182V173.494H220.978V165.745ZM227.084 165.143C226.697 165.143 226.359 165.223 226.069 165.381C225.785 165.535 225.544 165.717 225.348 165.927C225.157 166.133 225.01 166.322 224.907 166.494C224.809 166.662 224.756 166.756 224.746 166.774L223.689 166.312C223.699 166.27 223.743 166.17 223.822 166.011C223.902 165.848 224.025 165.659 224.193 165.444C224.361 165.23 224.576 165.02 224.837 164.814C225.099 164.604 225.414 164.432 225.782 164.296C226.156 164.156 226.59 164.086 227.084 164.086C227.588 164.086 228.025 164.156 228.393 164.296C228.762 164.436 229.065 164.632 229.303 164.884C229.541 165.136 229.719 165.435 229.835 165.78C229.952 166.126 230.01 166.501 230.01 166.907C230.01 167.299 229.917 167.701 229.73 168.111C229.544 168.522 229.301 168.926 229.002 169.322C228.704 169.714 228.382 170.085 228.036 170.435C227.696 170.781 227.364 171.093 227.042 171.373C226.725 171.653 226.45 171.884 226.216 172.066C225.988 172.244 225.838 172.36 225.768 172.416H229.933V173.494H223.899V172.507C224.044 172.395 224.261 172.225 224.55 171.996C224.844 171.763 225.176 171.49 225.544 171.177C225.913 170.865 226.286 170.526 226.664 170.162C227.042 169.798 227.392 169.427 227.714 169.049C228.036 168.667 228.295 168.293 228.491 167.929C228.692 167.561 228.792 167.215 228.792 166.893C228.792 166.249 228.643 165.797 228.344 165.535C228.05 165.274 227.63 165.143 227.084 165.143Z" fill="white"/>
<path fillRule="evenodd" clipRule="evenodd" d="M240.5 154.1V156.284V156.285V156.285C240.5 157.64 240.5 158.317 240.214 158.613C240.084 158.751 239.911 158.84 239.724 158.867C239.34 158.916 238.891 158.47 237.995 157.578C237.599 157.183 237.4 156.986 237.171 156.935C237.058 156.909 236.942 156.909 236.829 156.935C236.601 156.986 236.402 157.183 236.008 157.575L236.005 157.578C235.108 158.47 234.66 158.916 234.277 158.867C234.089 158.841 233.915 158.751 233.785 158.613C233.5 158.317 233.5 157.64 233.5 156.285V154.1C233.5 152.223 233.5 151.285 234.013 150.702C234.526 150.119 235.35 150.119 237 150.119C238.65 150.119 239.474 150.119 239.987 150.702C240.5 151.285 240.5 152.223 240.5 154.1Z" fill="#55C5CD"/>
<path d="M248.1 154.494C248.1 152.285 249.891 150.494 252.1 150.494H281.9C284.109 150.494 285.9 152.285 285.9 154.494V182.494C285.9 184.704 284.109 186.494 281.9 186.494H252.1C249.891 186.494 248.1 184.704 248.1 182.494V154.494Z" fill="#121B22"/>
<path d="M263.169 165.745L261.566 166.655V165.479L263.687 164.254H264.373V173.494H263.169V165.745ZM266.168 165.724C266.196 165.617 266.27 165.472 266.392 165.29C266.513 165.108 266.686 164.926 266.91 164.744C267.138 164.558 267.421 164.401 267.757 164.275C268.097 164.149 268.501 164.086 268.968 164.086C269.556 164.086 270.057 164.196 270.473 164.415C270.893 164.63 271.212 164.924 271.432 165.297C271.656 165.671 271.768 166.091 271.768 166.557C271.768 166.917 271.698 167.241 271.558 167.53C271.418 167.82 271.236 168.058 271.012 168.244C270.792 168.426 270.559 168.538 270.312 168.58C270.573 168.604 270.839 168.706 271.11 168.888C271.38 169.07 271.607 169.32 271.789 169.637C271.971 169.955 272.062 170.335 272.062 170.778C272.062 171.324 271.929 171.817 271.663 172.255C271.401 172.689 271.035 173.032 270.564 173.284C270.097 173.536 269.556 173.662 268.94 173.662C268.333 173.662 267.815 173.56 267.386 173.354C266.961 173.144 266.62 172.89 266.364 172.591C266.107 172.293 265.932 172.003 265.839 171.723L266.938 171.156C267.008 171.362 267.127 171.576 267.295 171.8C267.467 172.02 267.689 172.206 267.96 172.36C268.235 172.514 268.557 172.591 268.926 172.591C269.336 172.591 269.684 172.51 269.969 172.346C270.258 172.178 270.477 171.957 270.627 171.681C270.776 171.401 270.851 171.091 270.851 170.75C270.851 170.372 270.76 170.062 270.578 169.819C270.4 169.577 270.165 169.399 269.871 169.287C269.577 169.171 269.262 169.112 268.926 169.112H268.744V168.188H268.982C269.28 168.188 269.556 168.128 269.808 168.006C270.064 167.885 270.27 167.708 270.424 167.474C270.582 167.241 270.662 166.963 270.662 166.641C270.662 166.212 270.519 165.848 270.235 165.549C269.95 165.251 269.521 165.101 268.947 165.101C268.629 165.101 268.359 165.148 268.135 165.241C267.915 165.335 267.738 165.449 267.603 165.584C267.467 165.715 267.365 165.839 267.295 165.955C267.229 166.072 267.192 166.156 267.183 166.207L266.168 165.724Z" fill="white"/>
<path d="M290.1 154.494C290.1 152.285 291.891 150.494 294.1 150.494H323.9C326.109 150.494 327.9 152.285 327.9 154.494V182.494C327.9 184.704 326.109 186.494 323.9 186.494H294.1C291.891 186.494 290.1 184.704 290.1 182.494V154.494Z" fill="#121B22"/>
<path d="M305.34 165.745L303.737 166.655V165.479L305.858 164.254H306.544V173.494H305.34V165.745ZM313.001 164.254V170.47H314.058V171.548H313.001V173.494H311.797V171.548H307.912V170.554L311.699 164.254H313.001ZM311.797 170.47V166.067H311.79L309.179 170.47H311.797Z" fill="white"/>
<path d="M38.1001 194.494C38.1001 192.285 39.891 190.494 42.1001 190.494H71.9001C74.1092 190.494 75.9001 192.285 75.9001 194.494V222.494C75.9001 224.704 74.1092 226.494 71.9001 226.494H42.1001C39.891 226.494 38.1001 224.704 38.1001 222.494V194.494Z" fill="#121B22"/>
<path d="M53.0941 205.745L51.4911 206.655V205.479L53.6121 204.254H54.2981V213.494H53.0941V205.745ZM57.0444 211.45C57.0724 211.534 57.1261 211.642 57.2054 211.772C57.2894 211.903 57.4037 212.034 57.5484 212.164C57.6931 212.29 57.8751 212.398 58.0944 212.486C58.3137 212.575 58.5774 212.619 58.8854 212.619C59.5061 212.619 59.9914 212.421 60.3414 212.024C60.6914 211.623 60.8641 211.096 60.8594 210.442C60.8547 209.836 60.6937 209.367 60.3764 209.035C60.0591 208.704 59.6367 208.538 59.1094 208.538C58.7827 208.538 58.4957 208.599 58.2484 208.72C58.0057 208.837 57.8074 208.979 57.6534 209.147C57.5041 209.315 57.3991 209.474 57.3384 209.623L56.2814 209.266L57.0724 204.254H61.6784V205.332H58.1084L57.6744 208.209C57.6977 208.167 57.7771 208.093 57.9124 207.985C58.0524 207.873 58.2484 207.771 58.5004 207.677C58.7524 207.579 59.0581 207.53 59.4174 207.53C59.8841 207.53 60.3181 207.635 60.7194 207.845C61.1207 208.051 61.4451 208.366 61.6924 208.79C61.9397 209.21 62.0657 209.742 62.0704 210.386C62.0704 211.03 61.9444 211.6 61.6924 212.094C61.4451 212.584 61.0857 212.969 60.6144 213.249C60.1431 213.525 59.5807 213.662 58.9274 213.662C58.4467 213.662 58.0314 213.602 57.6814 213.48C57.3361 213.354 57.0467 213.198 56.8134 213.011C56.5801 212.825 56.3981 212.638 56.2674 212.451C56.1367 212.26 56.0457 212.099 55.9944 211.968L57.0444 211.45Z" fill="white"/>
<path d="M80.1001 194.494C80.1001 192.285 81.891 190.494 84.1001 190.494H113.9C116.109 190.494 117.9 192.285 117.9 194.494V222.494C117.9 224.704 116.109 226.494 113.9 226.494H84.1001C81.891 226.494 80.1001 224.704 80.1001 222.494V194.494Z" fill="#121B22"/>
<path d="M94.9369 205.745L93.3339 206.655V205.479L95.4549 204.254H96.1409V213.494H94.9369V205.745ZM101.295 207.474C101.818 207.474 102.301 207.605 102.744 207.866C103.192 208.123 103.554 208.482 103.829 208.944C104.105 209.402 104.242 209.934 104.242 210.54C104.242 211.142 104.095 211.679 103.801 212.15C103.512 212.617 103.12 212.986 102.625 213.256C102.135 213.527 101.594 213.662 101.001 213.662C100.395 213.662 99.8462 213.529 99.3562 213.263C98.8708 212.993 98.4858 212.615 98.2012 212.129C97.9165 211.644 97.7742 211.077 97.7742 210.428C97.7742 209.747 97.8908 209.171 98.1242 208.699C98.3575 208.223 98.6328 207.789 98.9502 207.397L101.463 204.254H102.898L99.8532 207.943C99.9558 207.831 100.131 207.726 100.378 207.628C100.63 207.526 100.936 207.474 101.295 207.474ZM101.022 212.647C101.405 212.647 101.753 212.554 102.065 212.367C102.383 212.176 102.635 211.922 102.821 211.604C103.008 211.287 103.101 210.937 103.101 210.554C103.101 210.172 103.008 209.824 102.821 209.511C102.635 209.194 102.383 208.942 102.065 208.755C101.753 208.569 101.405 208.475 101.022 208.475C100.635 208.475 100.283 208.569 99.9652 208.755C99.6525 208.942 99.4005 209.194 99.2092 209.511C99.0225 209.824 98.9292 210.172 98.9292 210.554C98.9292 210.937 99.0225 211.287 99.2092 211.604C99.4005 211.922 99.6525 212.176 99.9652 212.367C100.283 212.554 100.635 212.647 101.022 212.647Z" fill="white"/>
<path d="M122.1 194.494C122.1 192.285 123.891 190.494 126.1 190.494H155.9C158.109 190.494 159.9 192.285 159.9 194.494V222.494C159.9 224.704 158.109 226.494 155.9 226.494H126.1C123.891 226.494 122.1 224.704 122.1 222.494V194.494Z" fill="#121B22"/>
<path d="M137.156 205.745L135.553 206.655V205.479L137.674 204.254H138.36V213.494H137.156V205.745ZM140.315 204.254H146.286V205.115L141.526 213.494H140.182L144.872 205.332H140.315V204.254Z" fill="white"/>
<path fillRule="evenodd" clipRule="evenodd" d="M156.5 194.1V196.284V196.285V196.285C156.5 197.64 156.5 198.317 156.214 198.613C156.084 198.751 155.911 198.84 155.724 198.867C155.34 198.916 154.891 198.47 153.995 197.578C153.599 197.183 153.4 196.986 153.171 196.935C153.058 196.909 152.942 196.909 152.829 196.935C152.601 196.986 152.402 197.183 152.008 197.575L152.005 197.578C151.108 198.47 150.66 198.916 150.277 198.867C150.089 198.841 149.915 198.751 149.785 198.613C149.5 198.317 149.5 197.64 149.5 196.285V194.1C149.5 192.223 149.5 191.285 150.013 190.702C150.526 190.119 151.35 190.119 153 190.119C154.65 190.119 155.474 190.119 155.987 190.702C156.5 191.285 156.5 192.223 156.5 194.1Z" fill="#55C5CD"/>
<path d="M164.1 194.494C164.1 192.285 165.891 190.494 168.1 190.494H197.9C200.109 190.494 201.9 192.285 201.9 194.494V222.494C201.9 224.704 200.109 226.494 197.9 226.494H168.1C165.891 226.494 164.1 224.704 164.1 222.494V194.494Z" fill="#121B22"/>
<path d="M178.957 205.745L177.354 206.655V205.479L179.475 204.254H180.161V213.494H178.957V205.745ZM185.029 213.662C184.45 213.662 183.93 213.543 183.468 213.305C183.006 213.067 182.642 212.745 182.376 212.339C182.11 211.929 181.977 211.469 181.977 210.96C181.977 210.503 182.054 210.116 182.208 209.798C182.366 209.476 182.579 209.21 182.845 209C183.111 208.79 183.4 208.627 183.713 208.51C183.484 208.403 183.267 208.263 183.062 208.09C182.861 207.913 182.695 207.691 182.565 207.425C182.434 207.155 182.369 206.828 182.369 206.445C182.369 205.979 182.488 205.568 182.726 205.213C182.964 204.859 183.281 204.583 183.678 204.387C184.079 204.187 184.527 204.086 185.022 204.086C185.516 204.086 185.962 204.187 186.359 204.387C186.755 204.583 187.068 204.859 187.297 205.213C187.53 205.568 187.647 205.979 187.647 206.445C187.647 207.019 187.514 207.465 187.248 207.782C186.986 208.1 186.678 208.342 186.324 208.51C186.636 208.627 186.923 208.79 187.185 209C187.451 209.21 187.663 209.476 187.822 209.798C187.985 210.116 188.067 210.503 188.067 210.96C188.067 211.469 187.934 211.929 187.668 212.339C187.406 212.745 187.045 213.067 186.583 213.305C186.125 213.543 185.607 213.662 185.029 213.662ZM185.022 212.584C185.353 212.584 185.652 212.507 185.918 212.353C186.188 212.199 186.403 211.989 186.562 211.723C186.725 211.457 186.807 211.161 186.807 210.834C186.807 210.503 186.725 210.207 186.562 209.945C186.403 209.679 186.188 209.469 185.918 209.315C185.652 209.157 185.353 209.077 185.022 209.077C184.69 209.077 184.387 209.157 184.112 209.315C183.841 209.469 183.626 209.679 183.468 209.945C183.309 210.207 183.23 210.503 183.23 210.834C183.23 211.161 183.309 211.457 183.468 211.723C183.626 211.989 183.841 212.199 184.112 212.353C184.387 212.507 184.69 212.584 185.022 212.584ZM185.022 208.097C185.302 208.097 185.554 208.03 185.778 207.894C186.006 207.759 186.188 207.577 186.324 207.348C186.464 207.115 186.534 206.858 186.534 206.578C186.534 206.303 186.464 206.051 186.324 205.822C186.188 205.594 186.006 205.412 185.778 205.276C185.554 205.141 185.302 205.073 185.022 205.073C184.746 205.073 184.492 205.141 184.259 205.276C184.03 205.412 183.846 205.594 183.706 205.822C183.57 206.051 183.503 206.303 183.503 206.578C183.503 206.858 183.57 207.115 183.706 207.348C183.846 207.577 184.03 207.759 184.259 207.894C184.492 208.03 184.746 208.097 185.022 208.097Z" fill="white"/>
<path d="M206.1 194.494C206.1 192.285 207.891 190.494 210.1 190.494H239.9C242.109 190.494 243.9 192.285 243.9 194.494V222.494C243.9 224.704 242.109 226.494 239.9 226.494H210.1C207.891 226.494 206.1 224.704 206.1 222.494V194.494Z" fill="#121B22"/>
<path d="M220.944 205.745L219.341 206.655V205.479L221.462 204.254H222.148V213.494H220.944V205.745ZM225.181 213.494L228.219 209.805C228.116 209.917 227.941 210.025 227.694 210.127C227.447 210.225 227.143 210.274 226.784 210.274C226.266 210.274 225.781 210.146 225.328 209.889C224.88 209.628 224.518 209.269 224.243 208.811C223.968 208.349 223.83 207.815 223.83 207.208C223.83 206.606 223.977 206.072 224.271 205.605C224.57 205.134 224.964 204.763 225.454 204.492C225.944 204.222 226.485 204.086 227.078 204.086C227.685 204.086 228.231 204.222 228.716 204.492C229.201 204.758 229.586 205.134 229.871 205.619C230.16 206.105 230.305 206.672 230.305 207.32C230.305 207.997 230.188 208.573 229.955 209.049C229.722 209.525 229.446 209.959 229.129 210.351L226.609 213.494H225.181ZM227.057 209.273C227.444 209.273 227.794 209.18 228.107 208.993C228.424 208.807 228.676 208.557 228.863 208.244C229.054 207.927 229.15 207.577 229.15 207.194C229.15 206.807 229.054 206.457 228.863 206.144C228.676 205.827 228.424 205.575 228.107 205.388C227.794 205.197 227.444 205.101 227.057 205.101C226.674 205.101 226.324 205.197 226.007 205.388C225.694 205.575 225.445 205.827 225.258 206.144C225.071 206.457 224.978 206.807 224.978 207.194C224.978 207.577 225.071 207.927 225.258 208.244C225.445 208.557 225.694 208.807 226.007 208.993C226.324 209.18 226.674 209.273 227.057 209.273Z" fill="white"/>
<path d="M248.1 194.494C248.1 192.285 249.891 190.494 252.1 190.494H281.9C284.109 190.494 285.9 192.285 285.9 194.494V222.494C285.9 224.704 284.109 226.494 281.9 226.494H252.1C249.891 226.494 248.1 224.704 248.1 222.494V194.494Z" fill="#121B22"/>
<path d="M262.877 205.143C262.49 205.143 262.151 205.223 261.862 205.381C261.577 205.535 261.337 205.717 261.141 205.927C260.95 206.133 260.803 206.322 260.7 206.494C260.602 206.662 260.548 206.756 260.539 206.774L259.482 206.312C259.491 206.27 259.536 206.17 259.615 206.011C259.694 205.848 259.818 205.659 259.986 205.444C260.154 205.23 260.369 205.02 260.63 204.814C260.891 204.604 261.206 204.432 261.575 204.296C261.948 204.156 262.382 204.086 262.877 204.086C263.381 204.086 263.817 204.156 264.186 204.296C264.555 204.436 264.858 204.632 265.096 204.884C265.334 205.136 265.511 205.435 265.628 205.78C265.745 206.126 265.803 206.501 265.803 206.907C265.803 207.299 265.71 207.701 265.523 208.111C265.336 208.522 265.094 208.926 264.795 209.322C264.496 209.714 264.174 210.085 263.829 210.435C263.488 210.781 263.157 211.093 262.835 211.373C262.518 211.653 262.242 211.884 262.009 212.066C261.78 212.244 261.631 212.36 261.561 212.416H265.726V213.494H259.692V212.507C259.837 212.395 260.054 212.225 260.343 211.996C260.637 211.763 260.968 211.49 261.337 211.177C261.706 210.865 262.079 210.526 262.457 210.162C262.835 209.798 263.185 209.427 263.507 209.049C263.829 208.667 264.088 208.293 264.284 207.929C264.485 207.561 264.585 207.215 264.585 206.893C264.585 206.249 264.436 205.797 264.137 205.535C263.843 205.274 263.423 205.143 262.877 205.143ZM267.209 208.881C267.209 208.06 267.307 207.348 267.503 206.746C267.704 206.144 267.97 205.647 268.301 205.255C268.637 204.859 269.01 204.565 269.421 204.373C269.836 204.182 270.263 204.086 270.702 204.086C271.141 204.086 271.568 204.182 271.983 204.373C272.398 204.565 272.769 204.859 273.096 205.255C273.427 205.647 273.689 206.144 273.88 206.746C274.076 207.348 274.174 208.06 274.174 208.881C274.174 209.717 274.076 210.438 273.88 211.044C273.689 211.646 273.427 212.141 273.096 212.528C272.769 212.911 272.398 213.196 271.983 213.382C271.568 213.569 271.141 213.662 270.702 213.662C270.263 213.662 269.836 213.569 269.421 213.382C269.01 213.196 268.637 212.911 268.301 212.528C267.97 212.141 267.704 211.646 267.503 211.044C267.307 210.438 267.209 209.717 267.209 208.881ZM268.434 208.881C268.434 209.707 268.537 210.396 268.742 210.946C268.947 211.492 269.22 211.901 269.561 212.171C269.906 212.442 270.287 212.577 270.702 212.577C271.117 212.577 271.495 212.442 271.836 212.171C272.177 211.901 272.45 211.492 272.655 210.946C272.86 210.396 272.963 209.707 272.963 208.881C272.963 208.065 272.86 207.383 272.655 206.837C272.45 206.287 272.177 205.871 271.836 205.591C271.495 205.311 271.117 205.171 270.702 205.171C270.287 205.171 269.906 205.311 269.561 205.591C269.22 205.871 268.947 206.287 268.742 206.837C268.537 207.383 268.434 208.065 268.434 208.881Z" fill="white"/>
<path d="M290.1 194.494C290.1 192.285 291.891 190.494 294.1 190.494H323.9C326.109 190.494 327.9 192.285 327.9 194.494V222.494C327.9 224.704 326.109 226.494 323.9 226.494H294.1C291.891 226.494 290.1 224.704 290.1 222.494V194.494Z" fill="#121B22"/>
<path d="M306.805 205.143C306.418 205.143 306.079 205.223 305.79 205.381C305.505 205.535 305.265 205.717 305.069 205.927C304.878 206.133 304.731 206.322 304.628 206.494C304.53 206.662 304.476 206.756 304.467 206.774L303.41 206.312C303.419 206.27 303.464 206.17 303.543 206.011C303.622 205.848 303.746 205.659 303.914 205.444C304.082 205.23 304.297 205.02 304.558 204.814C304.819 204.604 305.134 204.432 305.503 204.296C305.876 204.156 306.31 204.086 306.805 204.086C307.309 204.086 307.745 204.156 308.114 204.296C308.483 204.436 308.786 204.632 309.024 204.884C309.262 205.136 309.439 205.435 309.556 205.78C309.673 206.126 309.731 206.501 309.731 206.907C309.731 207.299 309.638 207.701 309.451 208.111C309.264 208.522 309.022 208.926 308.723 209.322C308.424 209.714 308.102 210.085 307.757 210.435C307.416 210.781 307.085 211.093 306.763 211.373C306.446 211.653 306.17 211.884 305.937 212.066C305.708 212.244 305.559 212.36 305.489 212.416H309.654V213.494H303.62V212.507C303.765 212.395 303.982 212.225 304.271 211.996C304.565 211.763 304.896 211.49 305.265 211.177C305.634 210.865 306.007 210.526 306.385 210.162C306.763 209.798 307.113 209.427 307.435 209.049C307.757 208.667 308.016 208.293 308.212 207.929C308.413 207.561 308.513 207.215 308.513 206.893C308.513 206.249 308.364 205.797 308.065 205.535C307.771 205.274 307.351 205.143 306.805 205.143ZM312.607 205.745L311.004 206.655V205.479L313.125 204.254H313.811V213.494H312.607V205.745Z" fill="white"/>
<path d="M38.1001 234.494C38.1001 232.285 39.891 230.494 42.1001 230.494H71.9001C74.1092 230.494 75.9001 232.285 75.9001 234.494V262.494C75.9001 264.704 74.1092 266.494 71.9001 266.494H42.1001C39.891 266.494 38.1001 264.704 38.1001 262.494V234.494Z" fill="#121B22"/>
<path d="M53.1301 245.143C52.7428 245.143 52.4044 245.223 52.1151 245.381C51.8304 245.535 51.5901 245.717 51.3941 245.927C51.2028 246.133 51.0558 246.322 50.9531 246.494C50.8551 246.662 50.8014 246.756 50.7921 246.774L49.7351 246.312C49.7444 246.27 49.7888 246.17 49.8681 246.011C49.9474 245.848 50.0711 245.659 50.2391 245.444C50.4071 245.23 50.6218 245.02 50.8831 244.814C51.1444 244.604 51.4594 244.432 51.8281 244.296C52.2014 244.156 52.6354 244.086 53.1301 244.086C53.6341 244.086 54.0704 244.156 54.4391 244.296C54.8078 244.436 55.1111 244.632 55.3491 244.884C55.5871 245.136 55.7644 245.435 55.8811 245.78C55.9978 246.126 56.0561 246.501 56.0561 246.907C56.0561 247.299 55.9628 247.701 55.7761 248.111C55.5894 248.522 55.3468 248.926 55.0481 249.322C54.7494 249.714 54.4274 250.085 54.0821 250.435C53.7414 250.781 53.4101 251.093 53.0881 251.373C52.7708 251.653 52.4954 251.884 52.2621 252.066C52.0334 252.244 51.8841 252.36 51.8141 252.416H55.9791V253.494H49.9451V252.507C50.0898 252.395 50.3068 252.225 50.5961 251.996C50.8901 251.763 51.2214 251.49 51.5901 251.177C51.9588 250.865 52.3321 250.526 52.7101 250.162C53.0881 249.798 53.4381 249.427 53.7601 249.049C54.0821 248.667 54.3411 248.293 54.5371 247.929C54.7378 247.561 54.8381 247.215 54.8381 246.893C54.8381 246.249 54.6888 245.797 54.3901 245.535C54.0961 245.274 53.6761 245.143 53.1301 245.143ZM60.759 245.143C60.3717 245.143 60.0333 245.223 59.744 245.381C59.4593 245.535 59.219 245.717 59.023 245.927C58.8317 246.133 58.6847 246.322 58.582 246.494C58.484 246.662 58.4303 246.756 58.421 246.774L57.364 246.312C57.3733 246.27 57.4177 246.17 57.497 246.011C57.5763 245.848 57.7 245.659 57.868 245.444C58.036 245.23 58.2507 245.02 58.512 244.814C58.7733 244.604 59.0883 244.432 59.457 244.296C59.8303 244.156 60.2643 244.086 60.759 244.086C61.263 244.086 61.6993 244.156 62.068 244.296C62.4367 244.436 62.74 244.632 62.978 244.884C63.216 245.136 63.3933 245.435 63.51 245.78C63.6267 246.126 63.685 246.501 63.685 246.907C63.685 247.299 63.5917 247.701 63.405 248.111C63.2183 248.522 62.9757 248.926 62.677 249.322C62.3783 249.714 62.0563 250.085 61.711 250.435C61.3703 250.781 61.039 251.093 60.717 251.373C60.3997 251.653 60.1243 251.884 59.891 252.066C59.6623 252.244 59.513 252.36 59.443 252.416H63.608V253.494H57.574V252.507C57.7187 252.395 57.9357 252.225 58.225 251.996C58.519 251.763 58.8503 251.49 59.219 251.177C59.5877 250.865 59.961 250.526 60.339 250.162C60.717 249.798 61.067 249.427 61.389 249.049C61.711 248.667 61.97 248.293 62.166 247.929C62.3667 247.561 62.467 247.215 62.467 246.893C62.467 246.249 62.3177 245.797 62.019 245.535C61.725 245.274 61.305 245.143 60.759 245.143Z" fill="white"/>
<path d="M80.1001 234.494C80.1001 232.285 81.891 230.494 84.1001 230.494H113.9C116.109 230.494 117.9 232.285 117.9 234.494V262.494C117.9 264.704 116.109 266.494 113.9 266.494H84.1001C81.891 266.494 80.1001 264.704 80.1001 262.494V234.494Z" fill="#121B22"/>
<path d="M95.3215 245.143C94.9342 245.143 94.5958 245.223 94.3065 245.381C94.0218 245.535 93.7815 245.717 93.5855 245.927C93.3942 246.133 93.2472 246.322 93.1445 246.494C93.0465 246.662 92.9928 246.756 92.9835 246.774L91.9265 246.312C91.9358 246.27 91.9802 246.17 92.0595 246.011C92.1388 245.848 92.2625 245.659 92.4305 245.444C92.5985 245.23 92.8132 245.02 93.0745 244.814C93.3358 244.604 93.6508 244.432 94.0195 244.296C94.3928 244.156 94.8268 244.086 95.3215 244.086C95.8255 244.086 96.2618 244.156 96.6305 244.296C96.9992 244.436 97.3025 244.632 97.5405 244.884C97.7785 245.136 97.9558 245.435 98.0725 245.78C98.1892 246.126 98.2475 246.501 98.2475 246.907C98.2475 247.299 98.1542 247.701 97.9675 248.111C97.7808 248.522 97.5382 248.926 97.2395 249.322C96.9408 249.714 96.6188 250.085 96.2735 250.435C95.9328 250.781 95.6015 251.093 95.2795 251.373C94.9622 251.653 94.6868 251.884 94.4535 252.066C94.2248 252.244 94.0755 252.36 94.0055 252.416H98.1705V253.494H92.1365V252.507C92.2812 252.395 92.4982 252.225 92.7875 251.996C93.0815 251.763 93.4128 251.49 93.7815 251.177C94.1502 250.865 94.5235 250.526 94.9015 250.162C95.2795 249.798 95.6295 249.427 95.9515 249.049C96.2735 248.667 96.5325 248.293 96.7285 247.929C96.9292 247.561 97.0295 247.215 97.0295 246.893C97.0295 246.249 96.8802 245.797 96.5815 245.535C96.2875 245.274 95.8675 245.143 95.3215 245.143ZM99.8424 245.724C99.8704 245.617 99.9451 245.472 100.066 245.29C100.188 245.108 100.36 244.926 100.584 244.744C100.813 244.558 101.095 244.401 101.431 244.275C101.772 244.149 102.176 244.086 102.642 244.086C103.23 244.086 103.732 244.196 104.147 244.415C104.567 244.63 104.887 244.924 105.106 245.297C105.33 245.671 105.442 246.091 105.442 246.557C105.442 246.917 105.372 247.241 105.232 247.53C105.092 247.82 104.91 248.058 104.686 248.244C104.467 248.426 104.234 248.538 103.986 248.58C104.248 248.604 104.514 248.706 104.784 248.888C105.055 249.07 105.281 249.32 105.463 249.637C105.645 249.955 105.736 250.335 105.736 250.778C105.736 251.324 105.603 251.817 105.337 252.255C105.076 252.689 104.71 253.032 104.238 253.284C103.772 253.536 103.23 253.662 102.614 253.662C102.008 253.662 101.49 253.56 101.06 253.354C100.636 253.144 100.295 252.89 100.038 252.591C99.7817 252.293 99.6067 252.003 99.5134 251.723L100.612 251.156C100.682 251.362 100.801 251.576 100.969 251.8C101.142 252.02 101.364 252.206 101.634 252.36C101.91 252.514 102.232 252.591 102.6 252.591C103.011 252.591 103.359 252.51 103.643 252.346C103.933 252.178 104.152 251.957 104.301 251.681C104.451 251.401 104.525 251.091 104.525 250.75C104.525 250.372 104.434 250.062 104.252 249.819C104.075 249.577 103.839 249.399 103.545 249.287C103.251 249.171 102.936 249.112 102.6 249.112H102.418V248.188H102.656C102.955 248.188 103.23 248.128 103.482 248.006C103.739 247.885 103.944 247.708 104.098 247.474C104.257 247.241 104.336 246.963 104.336 246.641C104.336 246.212 104.194 245.848 103.909 245.549C103.625 245.251 103.195 245.101 102.621 245.101C102.304 245.101 102.033 245.148 101.809 245.241C101.59 245.335 101.413 245.449 101.277 245.584C101.142 245.715 101.039 245.839 100.969 245.955C100.904 246.072 100.867 246.156 100.857 246.207L99.8424 245.724Z" fill="white"/>
<path fillRule="evenodd" clipRule="evenodd" d="M114.5 234.1V236.284V236.285V236.285C114.5 237.64 114.5 238.317 114.214 238.613C114.084 238.751 113.911 238.84 113.724 238.867C113.34 238.916 112.891 238.47 111.995 237.578C111.599 237.183 111.4 236.986 111.171 236.935C111.058 236.909 110.942 236.909 110.829 236.935C110.601 236.986 110.402 237.183 110.008 237.575L110.005 237.578C109.108 238.47 108.66 238.916 108.277 238.867C108.089 238.841 107.915 238.751 107.785 238.613C107.5 238.317 107.5 237.64 107.5 236.285V234.1C107.5 232.223 107.5 231.285 108.013 230.702C108.526 230.119 109.35 230.119 111 230.119C112.65 230.119 113.474 230.119 113.987 230.702C114.5 231.285 114.5 232.223 114.5 234.1Z" fill="#55C5CD"/>
<path d="M122.1 234.494C122.1 232.285 123.891 230.494 126.1 230.494H155.9C158.109 230.494 159.9 232.285 159.9 234.494V262.494C159.9 264.704 158.109 266.494 155.9 266.494H126.1C123.891 266.494 122.1 264.704 122.1 262.494V234.494Z" fill="#121B22"/>
<path d="M137.492 245.143C137.105 245.143 136.767 245.223 136.477 245.381C136.193 245.535 135.952 245.717 135.756 245.927C135.565 246.133 135.418 246.322 135.315 246.494C135.217 246.662 135.164 246.756 135.154 246.774L134.097 246.312C134.107 246.27 134.151 246.17 134.23 246.011C134.31 245.848 134.433 245.659 134.601 245.444C134.769 245.23 134.984 245.02 135.245 244.814C135.507 244.604 135.822 244.432 136.19 244.296C136.564 244.156 136.998 244.086 137.492 244.086C137.996 244.086 138.433 244.156 138.801 244.296C139.17 244.436 139.473 244.632 139.711 244.884C139.949 245.136 140.127 245.435 140.243 245.78C140.36 246.126 140.418 246.501 140.418 246.907C140.418 247.299 140.325 247.701 140.138 248.111C139.952 248.522 139.709 248.926 139.41 249.322C139.112 249.714 138.79 250.085 138.444 250.435C138.104 250.781 137.772 251.093 137.45 251.373C137.133 251.653 136.858 251.884 136.624 252.066C136.396 252.244 136.246 252.36 136.176 252.416H140.341V253.494H134.307V252.507C134.452 252.395 134.669 252.225 134.958 251.996C135.252 251.763 135.584 251.49 135.952 251.177C136.321 250.865 136.694 250.526 137.072 250.162C137.45 249.798 137.8 249.427 138.122 249.049C138.444 248.667 138.703 248.293 138.899 247.929C139.1 247.561 139.2 247.215 139.2 246.893C139.2 246.249 139.051 245.797 138.752 245.535C138.458 245.274 138.038 245.143 137.492 245.143ZM146.675 244.254V250.47H147.732V251.548H146.675V253.494H145.471V251.548H141.586V250.554L145.373 244.254H146.675ZM145.471 250.47V246.067H145.464L142.853 250.47H145.471Z" fill="white"/>
<path d="M164.1 234.494C164.1 232.285 165.891 230.494 168.1 230.494H197.9C200.109 230.494 201.9 232.285 201.9 234.494V262.494C201.9 264.704 200.109 266.494 197.9 266.494H168.1C165.891 266.494 164.1 264.704 164.1 262.494V234.494Z" fill="#121B22"/>
<path d="M179.246 245.143C178.859 245.143 178.521 245.223 178.231 245.381C177.947 245.535 177.706 245.717 177.51 245.927C177.319 246.133 177.172 246.322 177.069 246.494C176.971 246.662 176.918 246.756 176.908 246.774L175.851 246.312C175.861 246.27 175.905 246.17 175.984 246.011C176.064 245.848 176.187 245.659 176.355 245.444C176.523 245.23 176.738 245.02 176.999 244.814C177.261 244.604 177.576 244.432 177.944 244.296C178.318 244.156 178.752 244.086 179.246 244.086C179.75 244.086 180.187 244.156 180.555 244.296C180.924 244.436 181.227 244.632 181.465 244.884C181.703 245.136 181.881 245.435 181.997 245.78C182.114 246.126 182.172 246.501 182.172 246.907C182.172 247.299 182.079 247.701 181.892 248.111C181.706 248.522 181.463 248.926 181.164 249.322C180.866 249.714 180.544 250.085 180.198 250.435C179.858 250.781 179.526 251.093 179.204 251.373C178.887 251.653 178.612 251.884 178.378 252.066C178.15 252.244 178 252.36 177.93 252.416H182.095V253.494H176.061V252.507C176.206 252.395 176.423 252.225 176.712 251.996C177.006 251.763 177.338 251.49 177.706 251.177C178.075 250.865 178.448 250.526 178.826 250.162C179.204 249.798 179.554 249.427 179.876 249.049C180.198 248.667 180.457 248.293 180.653 247.929C180.854 247.561 180.954 247.215 180.954 246.893C180.954 246.249 180.805 245.797 180.506 245.535C180.212 245.274 179.792 245.143 179.246 245.143ZM184.719 251.45C184.747 251.534 184.801 251.642 184.88 251.772C184.964 251.903 185.079 252.034 185.223 252.164C185.368 252.29 185.55 252.398 185.769 252.486C185.989 252.575 186.252 252.619 186.56 252.619C187.181 252.619 187.666 252.421 188.016 252.024C188.366 251.623 188.539 251.096 188.534 250.442C188.53 249.836 188.369 249.367 188.051 249.035C187.734 248.704 187.312 248.538 186.784 248.538C186.458 248.538 186.171 248.599 185.923 248.72C185.681 248.837 185.482 248.979 185.328 249.147C185.179 249.315 185.074 249.474 185.013 249.623L183.956 249.266L184.747 244.254H189.353V245.332H185.783L185.349 248.209C185.373 248.167 185.452 248.093 185.587 247.985C185.727 247.873 185.923 247.771 186.175 247.677C186.427 247.579 186.733 247.53 187.092 247.53C187.559 247.53 187.993 247.635 188.394 247.845C188.796 248.051 189.12 248.366 189.367 248.79C189.615 249.21 189.741 249.742 189.745 250.386C189.745 251.03 189.619 251.6 189.367 252.094C189.12 252.584 188.761 252.969 188.289 253.249C187.818 253.525 187.256 253.662 186.602 253.662C186.122 253.662 185.706 253.602 185.356 253.48C185.011 253.354 184.722 253.198 184.488 253.011C184.255 252.825 184.073 252.638 183.942 252.451C183.812 252.26 183.721 252.099 183.669 251.968L184.719 251.45Z" fill="white"/>
<path d="M206.1 234.494C206.1 232.285 207.891 230.494 210.1 230.494H239.9C242.109 230.494 243.9 232.285 243.9 234.494V262.494C243.9 264.704 242.109 266.494 239.9 266.494H210.1C207.891 266.494 206.1 264.704 206.1 262.494V234.494Z" fill="#121B22"/>
<path d="M221.089 245.143C220.702 245.143 220.363 245.223 220.074 245.381C219.789 245.535 219.549 245.717 219.353 245.927C219.162 246.133 219.015 246.322 218.912 246.494C218.814 246.662 218.76 246.756 218.751 246.774L217.694 246.312C217.703 246.27 217.748 246.17 217.827 246.011C217.906 245.848 218.03 245.659 218.198 245.444C218.366 245.23 218.581 245.02 218.842 244.814C219.103 244.604 219.418 244.432 219.787 244.296C220.16 244.156 220.594 244.086 221.089 244.086C221.593 244.086 222.029 244.156 222.398 244.296C222.767 244.436 223.07 244.632 223.308 244.884C223.546 245.136 223.723 245.435 223.84 245.78C223.957 246.126 224.015 246.501 224.015 246.907C224.015 247.299 223.922 247.701 223.735 248.111C223.548 248.522 223.306 248.926 223.007 249.322C222.708 249.714 222.386 250.085 222.041 250.435C221.7 250.781 221.369 251.093 221.047 251.373C220.73 251.653 220.454 251.884 220.221 252.066C219.992 252.244 219.843 252.36 219.773 252.416H223.938V253.494H217.904V252.507C218.049 252.395 218.266 252.225 218.555 251.996C218.849 251.763 219.18 251.49 219.549 251.177C219.918 250.865 220.291 250.526 220.669 250.162C221.047 249.798 221.397 249.427 221.719 249.049C222.041 248.667 222.3 248.293 222.496 247.929C222.697 247.561 222.797 247.215 222.797 246.893C222.797 246.249 222.648 245.797 222.349 245.535C222.055 245.274 221.635 245.143 221.089 245.143ZM228.97 247.474C229.493 247.474 229.976 247.605 230.419 247.866C230.867 248.123 231.229 248.482 231.504 248.944C231.779 249.402 231.917 249.934 231.917 250.54C231.917 251.142 231.77 251.679 231.476 252.15C231.187 252.617 230.795 252.986 230.3 253.256C229.81 253.527 229.269 253.662 228.676 253.662C228.069 253.662 227.521 253.529 227.031 253.263C226.546 252.993 226.161 252.615 225.876 252.129C225.591 251.644 225.449 251.077 225.449 250.428C225.449 249.747 225.566 249.171 225.799 248.699C226.032 248.223 226.308 247.789 226.625 247.397L229.138 244.254H230.573L227.528 247.943C227.631 247.831 227.806 247.726 228.053 247.628C228.305 247.526 228.611 247.474 228.97 247.474ZM228.697 252.647C229.08 252.647 229.427 252.554 229.74 252.367C230.057 252.176 230.309 251.922 230.496 251.604C230.683 251.287 230.776 250.937 230.776 250.554C230.776 250.172 230.683 249.824 230.496 249.511C230.309 249.194 230.057 248.942 229.74 248.755C229.427 248.569 229.08 248.475 228.697 248.475C228.31 248.475 227.957 248.569 227.64 248.755C227.327 248.942 227.075 249.194 226.884 249.511C226.697 249.824 226.604 250.172 226.604 250.554C226.604 250.937 226.697 251.287 226.884 251.604C227.075 251.922 227.327 252.176 227.64 252.367C227.957 252.554 228.31 252.647 228.697 252.647Z" fill="white"/>
<path d="M248.1 234.494C248.1 232.285 249.891 230.494 252.1 230.494H281.9C284.109 230.494 285.9 232.285 285.9 234.494V262.494C285.9 264.704 284.109 266.494 281.9 266.494H252.1C249.891 266.494 248.1 264.704 248.1 262.494V234.494Z" fill="#121B22"/>
<path d="M263.308 245.143C262.92 245.143 262.582 245.223 262.293 245.381C262.008 245.535 261.768 245.717 261.572 245.927C261.38 246.133 261.233 246.322 261.131 246.494C261.033 246.662 260.979 246.756 260.97 246.774L259.913 246.312C259.922 246.27 259.966 246.17 260.046 246.011C260.125 245.848 260.249 245.659 260.417 245.444C260.585 245.23 260.799 245.02 261.061 244.814C261.322 244.604 261.637 244.432 262.006 244.296C262.379 244.156 262.813 244.086 263.308 244.086C263.812 244.086 264.248 244.156 264.617 244.296C264.985 244.436 265.289 244.632 265.527 244.884C265.765 245.136 265.942 245.435 266.059 245.78C266.175 246.126 266.234 246.501 266.234 246.907C266.234 247.299 266.14 247.701 265.954 248.111C265.767 248.522 265.524 248.926 265.226 249.322C264.927 249.714 264.605 250.085 264.26 250.435C263.919 250.781 263.588 251.093 263.266 251.373C262.948 251.653 262.673 251.884 262.44 252.066C262.211 252.244 262.062 252.36 261.992 252.416H266.157V253.494H260.123V252.507C260.267 252.395 260.484 252.225 260.774 251.996C261.068 251.763 261.399 251.49 261.768 251.177C262.136 250.865 262.51 250.526 262.888 250.162C263.266 249.798 263.616 249.427 263.938 249.049C264.26 248.667 264.519 248.293 264.715 247.929C264.915 247.561 265.016 247.215 265.016 246.893C265.016 246.249 264.866 245.797 264.568 245.535C264.274 245.274 263.854 245.143 263.308 245.143ZM267.99 244.254H273.961V245.115L269.201 253.494H267.857L272.547 245.332H267.99V244.254Z" fill="white"/>
<path d="M290.1 234.494C290.1 232.285 291.891 230.494 294.1 230.494H323.9C326.109 230.494 327.9 232.285 327.9 234.494V262.494C327.9 264.704 326.109 266.494 323.9 266.494H294.1C291.891 266.494 290.1 264.704 290.1 262.494V234.494Z" fill="#121B22"/>
<path d="M305.11 245.143C304.722 245.143 304.384 245.223 304.095 245.381C303.81 245.535 303.57 245.717 303.374 245.927C303.182 246.133 303.035 246.322 302.933 246.494C302.835 246.662 302.781 246.756 302.772 246.774L301.715 246.312C301.724 246.27 301.768 246.17 301.848 246.011C301.927 245.848 302.051 245.659 302.219 245.444C302.387 245.23 302.601 245.02 302.863 244.814C303.124 244.604 303.439 244.432 303.808 244.296C304.181 244.156 304.615 244.086 305.11 244.086C305.614 244.086 306.05 244.156 306.419 244.296C306.787 244.436 307.091 244.632 307.329 244.884C307.567 245.136 307.744 245.435 307.861 245.78C307.977 246.126 308.036 246.501 308.036 246.907C308.036 247.299 307.942 247.701 307.756 248.111C307.569 248.522 307.326 248.926 307.028 249.322C306.729 249.714 306.407 250.085 306.062 250.435C305.721 250.781 305.39 251.093 305.068 251.373C304.75 251.653 304.475 251.884 304.242 252.066C304.013 252.244 303.864 252.36 303.794 252.416H307.959V253.494H301.925V252.507C302.069 252.395 302.286 252.225 302.576 251.996C302.87 251.763 303.201 251.49 303.57 251.177C303.938 250.865 304.312 250.526 304.69 250.162C305.068 249.798 305.418 249.427 305.74 249.049C306.062 248.667 306.321 248.293 306.517 247.929C306.717 247.561 306.818 247.215 306.818 246.893C306.818 246.249 306.668 245.797 306.37 245.535C306.076 245.274 305.656 245.143 305.11 245.143ZM312.703 253.662C312.125 253.662 311.604 253.543 311.142 253.305C310.68 253.067 310.316 252.745 310.05 252.339C309.784 251.929 309.651 251.469 309.651 250.96C309.651 250.503 309.728 250.116 309.882 249.798C310.041 249.476 310.253 249.21 310.519 249C310.785 248.79 311.075 248.627 311.387 248.51C311.159 248.403 310.942 248.263 310.736 248.09C310.536 247.913 310.37 247.691 310.239 247.425C310.109 247.155 310.043 246.828 310.043 246.445C310.043 245.979 310.162 245.568 310.4 245.213C310.638 244.859 310.956 244.583 311.352 244.387C311.754 244.187 312.202 244.086 312.696 244.086C313.191 244.086 313.637 244.187 314.033 244.387C314.43 244.583 314.743 244.859 314.971 245.213C315.205 245.568 315.321 245.979 315.321 246.445C315.321 247.019 315.188 247.465 314.922 247.782C314.661 248.1 314.353 248.342 313.998 248.51C314.311 248.627 314.598 248.79 314.859 249C315.125 249.21 315.338 249.476 315.496 249.798C315.66 250.116 315.741 250.503 315.741 250.96C315.741 251.469 315.608 251.929 315.342 252.339C315.081 252.745 314.719 253.067 314.257 253.305C313.8 253.543 313.282 253.662 312.703 253.662ZM312.696 252.584C313.028 252.584 313.326 252.507 313.592 252.353C313.863 252.199 314.078 251.989 314.236 251.723C314.4 251.457 314.481 251.161 314.481 250.834C314.481 250.503 314.4 250.207 314.236 249.945C314.078 249.679 313.863 249.469 313.592 249.315C313.326 249.157 313.028 249.077 312.696 249.077C312.365 249.077 312.062 249.157 311.786 249.315C311.516 249.469 311.301 249.679 311.142 249.945C310.984 250.207 310.904 250.503 310.904 250.834C310.904 251.161 310.984 251.457 311.142 251.723C311.301 251.989 311.516 252.199 311.786 252.353C312.062 252.507 312.365 252.584 312.696 252.584ZM312.696 248.097C312.976 248.097 313.228 248.03 313.452 247.894C313.681 247.759 313.863 247.577 313.998 247.348C314.138 247.115 314.208 246.858 314.208 246.578C314.208 246.303 314.138 246.051 313.998 245.822C313.863 245.594 313.681 245.412 313.452 245.276C313.228 245.141 312.976 245.073 312.696 245.073C312.421 245.073 312.167 245.141 311.933 245.276C311.705 245.412 311.52 245.594 311.38 245.822C311.245 246.051 311.177 246.303 311.177 246.578C311.177 246.858 311.245 247.115 311.38 247.348C311.52 247.577 311.705 247.759 311.933 247.894C312.167 248.03 312.421 248.097 312.696 248.097Z" fill="white"/>
<path d="M38.1001 274.494C38.1001 272.285 39.891 270.494 42.1001 270.494H71.9001C74.1092 270.494 75.9001 272.285 75.9001 274.494V302.494C75.9001 304.704 74.1092 306.494 71.9001 306.494H42.1001C39.891 306.494 38.1001 304.704 38.1001 302.494V274.494Z" fill="#121B22"/>
<path d="M53.0959 285.143C52.7086 285.143 52.3702 285.223 52.0809 285.381C51.7962 285.535 51.5559 285.717 51.3599 285.927C51.1686 286.133 51.0216 286.322 50.9189 286.494C50.8209 286.662 50.7672 286.756 50.7579 286.774L49.7009 286.312C49.7102 286.27 49.7546 286.17 49.8339 286.011C49.9132 285.848 50.0369 285.659 50.2049 285.444C50.3729 285.23 50.5876 285.02 50.8489 284.814C51.1102 284.604 51.4252 284.432 51.7939 284.296C52.1672 284.156 52.6012 284.086 53.0959 284.086C53.5999 284.086 54.0362 284.156 54.4049 284.296C54.7736 284.436 55.0769 284.632 55.3149 284.884C55.5529 285.136 55.7302 285.435 55.8469 285.78C55.9636 286.126 56.0219 286.501 56.0219 286.907C56.0219 287.299 55.9286 287.701 55.7419 288.111C55.5552 288.522 55.3126 288.926 55.0139 289.322C54.7152 289.714 54.3932 290.085 54.0479 290.435C53.7072 290.781 53.3759 291.093 53.0539 291.373C52.7366 291.653 52.4612 291.884 52.2279 292.066C51.9992 292.244 51.8499 292.36 51.7799 292.416H55.9449V293.494H49.9109V292.507C50.0556 292.395 50.2726 292.225 50.5619 291.996C50.8559 291.763 51.1872 291.49 51.5559 291.177C51.9246 290.865 52.2979 290.526 52.6759 290.162C53.0539 289.798 53.4039 289.427 53.7259 289.049C54.0479 288.667 54.3069 288.293 54.5029 287.929C54.7036 287.561 54.8039 287.215 54.8039 286.893C54.8039 286.249 54.6546 285.797 54.3559 285.535C54.0619 285.274 53.6419 285.143 53.0959 285.143ZM58.8558 293.494L61.8938 289.805C61.7912 289.917 61.6162 290.025 61.3688 290.127C61.1215 290.225 60.8182 290.274 60.4588 290.274C59.9408 290.274 59.4555 290.146 59.0028 289.889C58.5548 289.628 58.1932 289.269 57.9178 288.811C57.6425 288.349 57.5048 287.815 57.5048 287.208C57.5048 286.606 57.6518 286.072 57.9458 285.605C58.2445 285.134 58.6388 284.763 59.1288 284.492C59.6188 284.222 60.1602 284.086 60.7528 284.086C61.3595 284.086 61.9055 284.222 62.3908 284.492C62.8762 284.758 63.2612 285.134 63.5458 285.619C63.8352 286.105 63.9798 286.672 63.9798 287.32C63.9798 287.997 63.8632 288.573 63.6298 289.049C63.3965 289.525 63.1212 289.959 62.8038 290.351L60.2838 293.494H58.8558ZM60.7318 289.273C61.1192 289.273 61.4692 289.18 61.7818 288.993C62.0992 288.807 62.3512 288.557 62.5378 288.244C62.7292 287.927 62.8248 287.577 62.8248 287.194C62.8248 286.807 62.7292 286.457 62.5378 286.144C62.3512 285.827 62.0992 285.575 61.7818 285.388C61.4692 285.197 61.1192 285.101 60.7318 285.101C60.3492 285.101 59.9992 285.197 59.6818 285.388C59.3692 285.575 59.1195 285.827 58.9328 286.144C58.7462 286.457 58.6528 286.807 58.6528 287.194C58.6528 287.577 58.7462 287.927 58.9328 288.244C59.1195 288.557 59.3692 288.807 59.6818 288.993C59.9992 289.18 60.3492 289.273 60.7318 289.273Z" fill="white"/>
<path d="M80.1001 274.494C80.1001 272.285 81.891 270.494 84.1001 270.494H113.9C116.109 270.494 117.9 272.285 117.9 274.494V302.494C117.9 304.704 116.109 306.494 113.9 306.494H84.1001C81.891 306.494 80.1001 304.704 80.1001 302.494V274.494Z" fill="#121B22"/>
<path d="M91.9606 285.724C91.9886 285.617 92.0632 285.472 92.1846 285.29C92.3059 285.108 92.4786 284.926 92.7026 284.744C92.9312 284.558 93.2136 284.401 93.5496 284.275C93.8902 284.149 94.2939 284.086 94.7606 284.086C95.3486 284.086 95.8502 284.196 96.2656 284.415C96.6856 284.63 97.0052 284.924 97.2246 285.297C97.4486 285.671 97.5606 286.091 97.5606 286.557C97.5606 286.917 97.4906 287.241 97.3506 287.53C97.2106 287.82 97.0286 288.058 96.8046 288.244C96.5852 288.426 96.3519 288.538 96.1046 288.58C96.3659 288.604 96.6319 288.706 96.9026 288.888C97.1732 289.07 97.3996 289.32 97.5816 289.637C97.7636 289.955 97.8546 290.335 97.8546 290.778C97.8546 291.324 97.7216 291.817 97.4556 292.255C97.1942 292.689 96.8279 293.032 96.3566 293.284C95.8899 293.536 95.3486 293.662 94.7326 293.662C94.1259 293.662 93.6079 293.56 93.1786 293.354C92.7539 293.144 92.4132 292.89 92.1566 292.591C91.8999 292.293 91.7249 292.003 91.6316 291.723L92.7306 291.156C92.8006 291.362 92.9196 291.576 93.0876 291.8C93.2602 292.02 93.4819 292.206 93.7526 292.36C94.0279 292.514 94.3499 292.591 94.7186 292.591C95.1292 292.591 95.4769 292.51 95.7616 292.346C96.0509 292.178 96.2702 291.957 96.4196 291.681C96.5689 291.401 96.6436 291.091 96.6436 290.75C96.6436 290.372 96.5526 290.062 96.3706 289.819C96.1932 289.577 95.9576 289.399 95.6636 289.287C95.3696 289.171 95.0546 289.112 94.7186 289.112H94.5366V288.188H94.7746C95.0732 288.188 95.3486 288.128 95.6006 288.006C95.8572 287.885 96.0626 287.708 96.2166 287.474C96.3752 287.241 96.4546 286.963 96.4546 286.641C96.4546 286.212 96.3122 285.848 96.0276 285.549C95.7429 285.251 95.3136 285.101 94.7396 285.101C94.4222 285.101 94.1516 285.148 93.9276 285.241C93.7082 285.335 93.5309 285.449 93.3956 285.584C93.2602 285.715 93.1576 285.839 93.0876 285.955C93.0222 286.072 92.9849 286.156 92.9756 286.207L91.9606 285.724ZM99.0177 288.881C99.0177 288.06 99.1157 287.348 99.3117 286.746C99.5123 286.144 99.7783 285.647 100.11 285.255C100.446 284.859 100.819 284.565 101.23 284.373C101.645 284.182 102.072 284.086 102.511 284.086C102.949 284.086 103.376 284.182 103.792 284.373C104.207 284.565 104.578 284.859 104.905 285.255C105.236 285.647 105.497 286.144 105.689 286.746C105.885 287.348 105.983 288.06 105.983 288.881C105.983 289.717 105.885 290.438 105.689 291.044C105.497 291.646 105.236 292.141 104.905 292.528C104.578 292.911 104.207 293.196 103.792 293.382C103.376 293.569 102.949 293.662 102.511 293.662C102.072 293.662 101.645 293.569 101.23 293.382C100.819 293.196 100.446 292.911 100.11 292.528C99.7783 292.141 99.5123 291.646 99.3117 291.044C99.1157 290.438 99.0177 289.717 99.0177 288.881ZM100.243 288.881C100.243 289.707 100.345 290.396 100.551 290.946C100.756 291.492 101.029 291.901 101.37 292.171C101.715 292.442 102.095 292.577 102.511 292.577C102.926 292.577 103.304 292.442 103.645 292.171C103.985 291.901 104.258 291.492 104.464 290.946C104.669 290.396 104.772 289.707 104.772 288.881C104.772 288.065 104.669 287.383 104.464 286.837C104.258 286.287 103.985 285.871 103.645 285.591C103.304 285.311 102.926 285.171 102.511 285.171C102.095 285.171 101.715 285.311 101.37 285.591C101.029 285.871 100.756 286.287 100.551 286.837C100.345 287.383 100.243 288.065 100.243 288.881Z" fill="white"/>
<path d="M122.1 274.494C122.1 272.285 123.891 270.494 126.1 270.494H155.9C158.109 270.494 159.9 272.285 159.9 274.494V302.494C159.9 304.704 158.109 306.494 155.9 306.494H126.1C123.891 306.494 122.1 304.704 122.1 302.494V274.494Z" fill="#121B22"/>
<path d="M135.888 285.724C135.916 285.617 135.991 285.472 136.112 285.29C136.234 285.108 136.406 284.926 136.63 284.744C136.859 284.558 137.141 284.401 137.477 284.275C137.818 284.149 138.222 284.086 138.688 284.086C139.276 284.086 139.778 284.196 140.193 284.415C140.613 284.63 140.933 284.924 141.152 285.297C141.376 285.671 141.488 286.091 141.488 286.557C141.488 286.917 141.418 287.241 141.278 287.53C141.138 287.82 140.956 288.058 140.732 288.244C140.513 288.426 140.28 288.538 140.032 288.58C140.294 288.604 140.56 288.706 140.83 288.888C141.101 289.07 141.327 289.32 141.509 289.637C141.691 289.955 141.782 290.335 141.782 290.778C141.782 291.324 141.649 291.817 141.383 292.255C141.122 292.689 140.756 293.032 140.284 293.284C139.818 293.536 139.276 293.662 138.66 293.662C138.054 293.662 137.536 293.56 137.106 293.354C136.682 293.144 136.341 292.89 136.084 292.591C135.828 292.293 135.653 292.003 135.559 291.723L136.658 291.156C136.728 291.362 136.847 291.576 137.015 291.8C137.188 292.02 137.41 292.206 137.68 292.36C137.956 292.514 138.278 292.591 138.646 292.591C139.057 292.591 139.405 292.51 139.689 292.346C139.979 292.178 140.198 291.957 140.347 291.681C140.497 291.401 140.571 291.091 140.571 290.75C140.571 290.372 140.48 290.062 140.298 289.819C140.121 289.577 139.885 289.399 139.591 289.287C139.297 289.171 138.982 289.112 138.646 289.112H138.464V288.188H138.702C139.001 288.188 139.276 288.128 139.528 288.006C139.785 287.885 139.99 287.708 140.144 287.474C140.303 287.241 140.382 286.963 140.382 286.641C140.382 286.212 140.24 285.848 139.955 285.549C139.671 285.251 139.241 285.101 138.667 285.101C138.35 285.101 138.079 285.148 137.855 285.241C137.636 285.335 137.459 285.449 137.323 285.584C137.188 285.715 137.085 285.839 137.015 285.955C136.95 286.072 136.913 286.156 136.903 286.207L135.888 285.724ZM144.415 285.745L142.812 286.655V285.479L144.933 284.254H145.619V293.494H144.415V285.745Z" fill="white"/>
<path d="M164.1 274.494C164.1 272.285 165.891 270.494 168.1 270.494H197.9C200.109 270.494 201.9 272.285 201.9 274.494V302.494C201.9 304.704 200.109 306.494 197.9 306.494H168.1C165.891 306.494 164.1 304.704 164.1 302.494V274.494Z" fill="#2D4354" fill-opacity="0.16"/>
<path d="M182.792 285.745L181.189 286.655V285.479L183.31 284.254H183.996V293.494H182.792V285.745Z" fill="#758692"/>
<path d="M206.1 274.494C206.1 272.285 207.891 270.494 210.1 270.494H239.9C242.109 270.494 243.9 272.285 243.9 274.494V302.494C243.9 304.704 242.109 306.494 239.9 306.494H210.1C207.891 306.494 206.1 304.704 206.1 302.494V274.494Z" fill="#2D4354" fill-opacity="0.16"/>
<path d="M224.945 285.143C224.557 285.143 224.219 285.223 223.93 285.381C223.645 285.535 223.405 285.717 223.209 285.927C223.017 286.133 222.87 286.322 222.768 286.494C222.67 286.662 222.616 286.756 222.607 286.774L221.55 286.312C221.559 286.27 221.603 286.17 221.683 286.011C221.762 285.848 221.886 285.659 222.054 285.444C222.222 285.23 222.436 285.02 222.698 284.814C222.959 284.604 223.274 284.432 223.643 284.296C224.016 284.156 224.45 284.086 224.945 284.086C225.449 284.086 225.885 284.156 226.254 284.296C226.622 284.436 226.926 284.632 227.164 284.884C227.402 285.136 227.579 285.435 227.696 285.78C227.812 286.126 227.871 286.501 227.871 286.907C227.871 287.299 227.777 287.701 227.591 288.111C227.404 288.522 227.161 288.926 226.863 289.322C226.564 289.714 226.242 290.085 225.897 290.435C225.556 290.781 225.225 291.093 224.903 291.373C224.585 291.653 224.31 291.884 224.077 292.066C223.848 292.244 223.699 292.36 223.629 292.416H227.794V293.494H221.76V292.507C221.904 292.395 222.121 292.225 222.411 291.996C222.705 291.763 223.036 291.49 223.405 291.177C223.773 290.865 224.147 290.526 224.525 290.162C224.903 289.798 225.253 289.427 225.575 289.049C225.897 288.667 226.156 288.293 226.352 287.929C226.552 287.561 226.653 287.215 226.653 286.893C226.653 286.249 226.503 285.797 226.205 285.535C225.911 285.274 225.491 285.143 224.945 285.143Z" fill="#758692"/>
<path d="M248.1 274.494C248.1 272.285 249.891 270.494 252.1 270.494H281.9C284.109 270.494 285.9 272.285 285.9 274.494V302.494C285.9 304.704 284.109 306.494 281.9 306.494H252.1C249.891 306.494 248.1 304.704 248.1 302.494V274.494Z" fill="#2D4354" fill-opacity="0.16"/>
<path d="M264.028 285.724C264.056 285.617 264.131 285.472 264.252 285.29C264.373 285.108 264.546 284.926 264.77 284.744C264.999 284.558 265.281 284.401 265.617 284.275C265.958 284.149 266.361 284.086 266.828 284.086C267.416 284.086 267.918 284.196 268.333 284.415C268.753 284.63 269.073 284.924 269.292 285.297C269.516 285.671 269.628 286.091 269.628 286.557C269.628 286.917 269.558 287.241 269.418 287.53C269.278 287.82 269.096 288.058 268.872 288.244C268.653 288.426 268.419 288.538 268.172 288.58C268.433 288.604 268.699 288.706 268.97 288.888C269.241 289.07 269.467 289.32 269.649 289.637C269.831 289.955 269.922 290.335 269.922 290.778C269.922 291.324 269.789 291.817 269.523 292.255C269.262 292.689 268.895 293.032 268.424 293.284C267.957 293.536 267.416 293.662 266.8 293.662C266.193 293.662 265.675 293.56 265.246 293.354C264.821 293.144 264.481 292.89 264.224 292.591C263.967 292.293 263.792 292.003 263.699 291.723L264.798 291.156C264.868 291.362 264.987 291.576 265.155 291.8C265.328 292.02 265.549 292.206 265.82 292.36C266.095 292.514 266.417 292.591 266.786 292.591C267.197 292.591 267.544 292.51 267.829 292.346C268.118 292.178 268.338 291.957 268.487 291.681C268.636 291.401 268.711 291.091 268.711 290.75C268.711 290.372 268.62 290.062 268.438 289.819C268.261 289.577 268.025 289.399 267.731 289.287C267.437 289.171 267.122 289.112 266.786 289.112H266.604V288.188H266.842C267.141 288.188 267.416 288.128 267.668 288.006C267.925 287.885 268.13 287.708 268.284 287.474C268.443 287.241 268.522 286.963 268.522 286.641C268.522 286.212 268.38 285.848 268.095 285.549C267.81 285.251 267.381 285.101 266.807 285.101C266.49 285.101 266.219 285.148 265.995 285.241C265.776 285.335 265.598 285.449 265.463 285.584C265.328 285.715 265.225 285.839 265.155 285.955C265.09 286.072 265.052 286.156 265.043 286.207L264.028 285.724Z" fill="#758692"/>
<path d="M290.1 274.494C290.1 272.285 291.891 270.494 294.1 270.494H323.9C326.109 270.494 327.9 272.285 327.9 274.494V302.494C327.9 304.704 326.109 306.494 323.9 306.494H294.1C291.891 306.494 290.1 304.704 290.1 302.494V274.494Z" fill="#2D4354" fill-opacity="0.16"/>
<path d="M310.861 284.254V290.47H311.918V291.548H310.861V293.494H309.657V291.548H305.772V290.554L309.559 284.254H310.861ZM309.657 290.47V286.067H309.65L307.039 290.47H309.657Z" fill="#758692"/>
</g>
</g>
<defs>
<filter id="filter0_d_6512_20674" x="0" y="0.494385" width="374" height="352" filterUnits="userSpaceOnUse" color-interpolation-filters="sRGB">
<feFlood flood-opacity="0" result="BackgroundImageFix"/>
<feColorMatrix in="SourceAlpha" type="matrix" values="0 0 0 0 0 0 0 0 0 0 0 0 0 0 0 0 0 0 127 0" result="hardAlpha"/>
<feOffset dx="4" dy="4"/>
<feGaussianBlur stdDeviation="8"/>
<feComposite in2="hardAlpha" operator="out"/>
<feColorMatrix type="matrix" values="0 0 0 0 0.0352941 0 0 0 0 0.0509804 0 0 0 0 0.0666667 0 0 0 0.08 0"/>
<feBlend mode="normal" in2="BackgroundImageFix" result="effect1_dropShadow_6512_20674"/>
<feBlend mode="normal" in="SourceGraphic" in2="effect1_dropShadow_6512_20674" result="shape"/>
</filter>
<clipPath id="clip0_6512_20674">
<rect width="294" height="240" fill="white" transform="translate(36 68.4944)"/>
</clipPath>
</defs>
</svg>
