<svg width="81" height="30" viewBox="0 0 81 30" fill="none" xmlns="http://www.w3.org/2000/svg">
    <path d="M77.2383 24.2417C77.2383 24.6922 76.8858 25.0425 76.4325 25.0425H73.9145C73.4612 25.0425 73.1087 24.6922 73.1087 24.2417V23.5409C71.5979 24.8423 69.8352 25.493 67.8208 25.493C66.6122 25.493 65.5042 25.2428 64.3963 24.7923C63.3387 24.3418 62.3819 23.7411 61.6264 22.9403C60.871 22.1894 60.2163 21.2885 59.7631 20.2373C59.3098 19.1862 59.1084 18.085 59.1084 16.9337C59.1084 15.7825 59.3098 14.6813 59.7631 13.6302C60.2163 12.579 60.8207 11.678 61.6264 10.8772C62.3819 10.1264 63.3387 9.47565 64.3963 9.02516C65.4539 8.57467 66.6122 8.3244 67.8208 8.3244C69.7849 8.3244 71.5475 8.9751 73.0583 10.2265V4.97076C73.0583 4.52027 73.4109 4.16989 73.8641 4.16989H76.4325C76.8858 4.16989 77.2383 4.52027 77.2383 4.97076V24.2417ZM73.1591 16.9337C73.1591 15.5322 72.6555 14.381 71.6986 13.4299C70.7417 12.4789 69.5834 11.9784 68.1733 11.9784C66.8136 11.9784 65.6553 12.4789 64.6985 13.4299C63.7416 14.381 63.238 15.5823 63.238 16.9337C63.238 18.2852 63.7416 19.4865 64.6985 20.4375C65.6553 21.3886 66.8136 21.8891 68.1733 21.8891C69.5331 21.8891 70.6914 21.3886 71.6482 20.4375C72.6555 19.4865 73.1591 18.2852 73.1591 16.9337Z" fill="#1B2832"/>
    <path d="M56.7918 24.2417C56.7918 24.6922 56.4392 25.0425 55.986 25.0425H53.4679C53.0147 25.0425 52.6622 24.6922 52.6622 24.2417V23.5409C51.1513 24.8423 49.3887 25.493 47.3743 25.493C46.1656 25.493 45.0577 25.2428 43.9497 24.7923C42.8922 24.3418 41.9353 23.7411 41.1799 22.9403C40.4245 22.1894 39.7698 21.2885 39.3166 20.2373C38.8633 19.1862 38.6619 18.085 38.6619 16.9337C38.6619 15.7825 38.8633 14.6813 39.3166 13.6302C39.7698 12.579 40.3741 11.678 41.1799 10.8772C41.9353 10.1264 42.8922 9.47565 43.9497 9.02516C45.0073 8.57467 46.1656 8.3244 47.3743 8.3244C49.3384 8.3244 51.101 8.9751 52.6118 10.2265V4.97076C52.6118 4.52027 52.9643 4.16989 53.4176 4.16989H55.986C56.4392 4.16989 56.7918 4.52027 56.7918 4.97076V9.97619V14.9816V24.2417ZM52.7125 16.9337C52.7125 15.5322 52.2089 14.381 51.2521 13.4299C50.2952 12.4789 49.1369 11.9784 47.7268 11.9784C46.3671 11.9784 45.2088 12.4789 44.2519 13.4299C43.2951 14.381 42.7915 15.5823 42.7915 16.9337C42.7915 18.2852 43.2951 19.4865 44.2519 20.4375C45.2088 21.3886 46.3671 21.8891 47.7268 21.8891C49.0866 21.8891 50.2449 21.3886 51.2017 20.4375C52.2089 19.4865 52.7125 18.2852 52.7125 16.9337Z" fill="#1B2832"/>
    <path d="M21.2874 19.1862V9.12524C21.2874 8.67475 21.6399 8.32437 22.0931 8.32437H24.6615C25.1148 8.32437 25.4673 8.67475 25.4673 9.12524V18.3853C25.4673 19.3864 25.7695 20.2373 26.4242 20.888C27.0285 21.5387 27.8846 21.8891 28.8918 21.8891C29.899 21.8891 30.7048 21.5888 31.3595 20.9381C32.0142 20.2873 32.3164 19.4364 32.3164 18.4353V9.12524C32.3164 8.67475 32.6689 8.32437 33.1221 8.32437H35.6905C36.1438 8.32437 36.4963 8.67475 36.4963 9.12524V24.3417C36.4963 24.7922 36.1438 25.1426 35.6905 25.1426H33.1221C32.6689 25.1426 32.3164 24.7922 32.3164 24.3417V23.691C31.1077 24.8923 29.6472 25.543 27.8343 25.543C25.9709 25.543 24.4097 24.9424 23.2011 23.7411C21.8917 22.4397 21.2874 20.9881 21.2874 19.1862Z" fill="#1B2832"/>
    <path d="M18.9203 14.7814V24.3418C18.9203 24.7923 18.5678 25.1426 18.1145 25.1426H15.5461C15.0929 25.1426 14.7404 24.7923 14.7404 24.3418V16.5834C14.7404 15.5322 14.4382 14.6813 13.7835 14.0806C13.2799 13.5801 12.6756 13.2798 11.9202 13.1797C11.7187 13.1296 11.5676 13.1296 11.3662 13.1296C10.359 13.1296 9.55321 13.4299 8.89852 14.0806C8.24383 14.6813 7.94166 15.5322 7.94166 16.5834V24.2917C7.94166 24.7422 7.58914 25.0926 7.13589 25.0926H4.56749C4.11424 25.0926 3.76172 24.7422 3.76172 24.2917V4.92071C3.76172 4.47022 4.11424 4.11984 4.56749 4.11984H7.13589C7.58914 4.11984 7.94166 4.47022 7.94166 4.92071V8.42451L5.60198 12.6003L9.70429 9.32549L10.6611 8.67478C11.1648 8.3244 11.8698 8.3244 12.3734 8.67478L18.2153 13.1296C18.6182 13.4299 18.9024 13.8002 18.9203 14.3605C18.9253 14.5159 18.9203 14.6312 18.9203 14.7814Z" fill="#1B2832"/>
</svg>